<?xml version="1.0" encoding="utf-8"?>
<!-- Generator: Adobe Illustrator 25.3.1, SVG Export Plug-In . SVG Version: 6.00 Build 0)  -->
<svg version="1.1" id="Layer_1" xmlns="http://www.w3.org/2000/svg" xmlns:xlink="http://www.w3.org/1999/xlink" x="0px" y="0px"
	 width="132.4px" height="38px" viewBox="0 0 132.4 38" style="enable-background:new 0 0 132.4 38;" xml:space="preserve">
<style type="text/css">
	.st0{fill:#83BB9B;}
	.st1{fill:#3E7785;}
</style>
<g>
	<path class="st0" d="M24.6,28.2c-0.2,0-0.3,0.1-0.4,0.3c0,0.1-0.1,0.3-0.1,0.4c-0.6,1.5-1.3,2.7-2,3.6c-0.7,0.8-1.8,1.8-3,1.8
		c-1.9,0-4-2.3-5.3-6.1c-0.4-1-0.7-2.2-0.9-3.5c0-0.2-0.2-0.3-0.4-0.3c-1-0.1-2-0.2-2.9-0.3C9.2,24,9,24.3,9,24.6
		c0.2,1.1,0.4,2.2,0.7,3.3c0.4,1.5,0.9,2.9,1.6,4.1c1.9,3.9,4.7,6,7.7,6c2.1,0,4.2-1.1,5.9-3.2c1-1.2,1.9-2.8,2.6-4.6
		c0.2-0.6,0.4-1.1,0.6-1.8c0.1-0.3-0.2-0.6-0.5-0.5C26.7,28,25.6,28.1,24.6,28.2z"/>
	<g>
		<g>
			<path class="st0" d="M50.2,24.7V13.2h7.5v2h-5.3v2.5h4.4v2h-4.4v2.9h5.3v2H50.2z"/>
			<path class="st0" d="M63,24.9c-1.1,0-2-0.2-2.6-0.7s-1.1-1.2-1.2-2.1l2.2-0.3c0.1,0.4,0.3,0.7,0.6,0.9c0.3,0.2,0.7,0.3,1.2,0.3
				c0.4,0,0.7-0.1,0.9-0.2c0.2-0.2,0.3-0.4,0.3-0.6c0-0.2,0-0.3-0.1-0.4c-0.1-0.1-0.3-0.2-0.6-0.3c-0.3-0.1-0.8-0.2-1.4-0.4
				c-0.7-0.2-1.3-0.4-1.7-0.6c-0.4-0.2-0.7-0.5-0.9-0.8c-0.2-0.3-0.3-0.7-0.3-1.1c0-0.6,0.1-1,0.4-1.4c0.3-0.4,0.7-0.7,1.2-0.9
				c0.5-0.2,1.1-0.3,1.8-0.3c0.7,0,1.3,0.1,1.8,0.3c0.5,0.2,0.9,0.5,1.3,0.9c0.3,0.4,0.5,0.8,0.6,1.4l-2.2,0.4
				c0-0.3-0.2-0.6-0.4-0.8c-0.2-0.2-0.6-0.3-1-0.3c-0.4,0-0.7,0-1,0.2c-0.2,0.1-0.4,0.3-0.4,0.6c0,0.1,0.1,0.3,0.2,0.4
				c0.1,0.1,0.3,0.2,0.6,0.3c0.3,0.1,0.8,0.2,1.5,0.4c0.7,0.2,1.2,0.4,1.6,0.6c0.4,0.2,0.7,0.5,0.9,0.8c0.2,0.3,0.3,0.7,0.3,1.1
				c0,0.9-0.3,1.6-1,2.1C65,24.7,64.1,24.9,63,24.9z"/>
			<path class="st0" d="M72.1,24.9c-0.9,0-1.7-0.2-2.3-0.6c-0.6-0.4-1.1-0.9-1.5-1.6c-0.3-0.7-0.5-1.5-0.5-2.3
				c0-0.9,0.2-1.6,0.5-2.3c0.4-0.7,0.9-1.2,1.5-1.6c0.6-0.4,1.4-0.6,2.3-0.6c1,0,1.9,0.3,2.6,0.8c0.7,0.5,1.1,1.2,1.3,2.1l-2.2,0.6
				c-0.1-0.4-0.3-0.8-0.7-1c-0.3-0.2-0.7-0.4-1.1-0.4c-0.5,0-0.8,0.1-1.1,0.3c-0.3,0.2-0.5,0.5-0.6,0.9c-0.1,0.4-0.2,0.8-0.2,1.3
				c0,0.7,0.2,1.4,0.5,1.8c0.3,0.5,0.8,0.7,1.5,0.7c0.5,0,0.9-0.1,1.1-0.3c0.3-0.2,0.4-0.5,0.6-1l2.2,0.5c-0.2,0.9-0.7,1.6-1.4,2.1
				C73.9,24.7,73.1,24.9,72.1,24.9z"/>
			<path class="st0" d="M81.2,24.9c-0.9,0-1.6-0.2-2.3-0.6c-0.7-0.4-1.2-0.9-1.5-1.6c-0.4-0.7-0.5-1.5-0.5-2.4
				c0-0.9,0.2-1.7,0.6-2.4c0.4-0.7,0.9-1.2,1.5-1.6c0.7-0.4,1.4-0.6,2.3-0.6c0.9,0,1.6,0.2,2.3,0.6c0.7,0.4,1.2,0.9,1.5,1.6
				c0.4,0.7,0.5,1.5,0.5,2.4c0,0.9-0.2,1.7-0.6,2.4c-0.4,0.7-0.9,1.2-1.5,1.6C82.9,24.7,82.1,24.9,81.2,24.9z M81.2,22.9
				c0.7,0,1.2-0.2,1.6-0.7c0.3-0.5,0.5-1.1,0.5-1.8c0-0.8-0.2-1.4-0.5-1.8c-0.3-0.5-0.9-0.7-1.6-0.7c-0.5,0-0.9,0.1-1.2,0.3
				s-0.5,0.5-0.7,0.9c-0.1,0.4-0.2,0.8-0.2,1.3c0,0.8,0.2,1.4,0.5,1.8S80.6,22.9,81.2,22.9z"/>
			<path class="st0" d="M87.5,24.7V13h2.2v11.7H87.5z"/>
			<path class="st0" d="M94.5,24.9c-0.6,0-1.1-0.1-1.6-0.4c-0.4-0.2-0.8-0.6-1-0.9c-0.2-0.4-0.3-0.8-0.3-1.3c0-0.4,0.1-0.8,0.2-1.1
				c0.1-0.3,0.3-0.6,0.6-0.9c0.3-0.3,0.6-0.5,1.1-0.6c0.3-0.1,0.7-0.2,1.1-0.3c0.4-0.1,0.9-0.2,1.5-0.3s1.2-0.2,1.8-0.3l-0.8,0.4
				c0-0.5-0.1-0.9-0.4-1.1c-0.2-0.2-0.7-0.4-1.2-0.4c-0.3,0-0.7,0.1-1,0.2c-0.3,0.2-0.6,0.4-0.7,0.8l-2-0.6c0.2-0.7,0.6-1.3,1.2-1.7
				c0.6-0.4,1.4-0.7,2.5-0.7c0.8,0,1.4,0.1,2,0.4c0.6,0.2,1,0.6,1.3,1.2c0.2,0.3,0.3,0.6,0.3,1c0,0.3,0,0.7,0,1.1v5.3h-1.9v-1.8
				l0.3,0.4c-0.4,0.6-0.9,1-1.4,1.3C95.8,24.8,95.2,24.9,94.5,24.9z M94.9,23.2c0.4,0,0.7-0.1,1-0.2c0.3-0.1,0.5-0.3,0.7-0.5
				c0.2-0.2,0.3-0.3,0.3-0.5c0.1-0.2,0.2-0.5,0.2-0.8c0-0.3,0-0.6,0-0.8l0.6,0.2c-0.6,0.1-1.2,0.2-1.6,0.3c-0.4,0.1-0.7,0.1-1,0.2
				c-0.2,0.1-0.5,0.1-0.6,0.2c-0.2,0.1-0.4,0.2-0.5,0.3c-0.1,0.1-0.2,0.2-0.3,0.3c-0.1,0.1-0.1,0.2-0.1,0.4c0,0.2,0,0.4,0.1,0.5
				c0.1,0.1,0.2,0.2,0.4,0.3C94.5,23.2,94.7,23.2,94.9,23.2z"/>
			<path class="st1" d="M107.9,24.9c-0.6,0-1.1-0.1-1.6-0.3c-0.5-0.2-1-0.6-1.4-1c-0.4-0.4-0.7-0.9-0.8-1.5l2.1-0.6
				c0.1,0.4,0.3,0.7,0.7,1c0.3,0.2,0.7,0.3,1.1,0.3c0.3,0,0.6-0.1,0.9-0.2c0.3-0.2,0.5-0.4,0.7-0.6c0.2-0.3,0.2-0.6,0.2-0.9
				c0-0.5-0.2-0.9-0.5-1.3c-0.3-0.4-0.8-0.5-1.3-0.5c-0.2,0-0.3,0-0.5,0.1c-0.1,0-0.3,0.1-0.4,0.2l-1-1.7l3.6-3l0.2,0.5h-5.3v-2h7.2
				v2l-2.8,2.7l0-0.6c0.7,0.1,1.2,0.3,1.7,0.7c0.5,0.4,0.8,0.8,1,1.3c0.2,0.5,0.4,1.1,0.4,1.7c0,0.7-0.2,1.4-0.5,1.9
				c-0.4,0.6-0.9,1-1.5,1.4C109.3,24.7,108.6,24.9,107.9,24.9z"/>
			<path class="st1" d="M118,24.9c-0.8,0-1.4-0.2-2-0.5c-0.6-0.4-1.1-0.9-1.4-1.5c-0.4-0.6-0.5-1.4-0.5-2.2v-3.3
				c0-0.9,0.2-1.7,0.5-2.3c0.4-0.7,0.8-1.2,1.5-1.5c0.6-0.4,1.4-0.5,2.2-0.5c0.6,0,1.1,0.1,1.6,0.2c0.5,0.2,1,0.4,1.4,0.8l-1.5,1.5
				c-0.2-0.2-0.4-0.3-0.7-0.4c-0.2-0.1-0.5-0.2-0.8-0.2c-0.4,0-0.8,0.1-1.1,0.3c-0.3,0.2-0.5,0.4-0.7,0.8c-0.2,0.3-0.3,0.6-0.3,1
				v1.7l-0.4-0.4c0.3-0.3,0.7-0.6,1.1-0.8c0.4-0.2,0.9-0.3,1.3-0.3c0.7,0,1.4,0.2,1.9,0.5c0.5,0.3,1,0.8,1.3,1.3
				c0.3,0.6,0.5,1.2,0.5,1.9c0,0.7-0.2,1.4-0.5,2c-0.4,0.6-0.9,1-1.5,1.4C119.4,24.8,118.7,24.9,118,24.9z M118,22.9
				c0.3,0,0.6-0.1,0.9-0.2c0.3-0.2,0.5-0.4,0.7-0.6c0.2-0.3,0.2-0.6,0.2-0.9c0-0.3-0.1-0.6-0.2-0.9c-0.2-0.3-0.4-0.5-0.6-0.7
				c-0.3-0.2-0.6-0.2-0.9-0.2c-0.3,0-0.6,0.1-0.9,0.2c-0.3,0.2-0.5,0.4-0.7,0.7c-0.2,0.3-0.2,0.6-0.2,0.9c0,0.3,0.1,0.6,0.2,0.9
				c0.2,0.3,0.4,0.5,0.6,0.7C117.3,22.8,117.6,22.9,118,22.9z"/>
			<path class="st1" d="M128.1,24.9c-0.9,0-1.6-0.2-2.2-0.5s-1.1-0.9-1.5-1.5s-0.5-1.4-0.5-2.2v-3.4c0-0.9,0.2-1.6,0.5-2.2
				c0.4-0.6,0.9-1.1,1.5-1.5c0.6-0.4,1.4-0.5,2.2-0.5c0.8,0,1.6,0.2,2.2,0.5c0.6,0.4,1.1,0.9,1.5,1.5c0.4,0.6,0.5,1.4,0.5,2.2v3.4
				c0,0.9-0.2,1.6-0.5,2.2c-0.4,0.6-0.9,1.1-1.5,1.5C129.7,24.7,129,24.9,128.1,24.9z M128.1,22.9c0.4,0,0.7-0.1,1-0.3
				c0.3-0.2,0.6-0.4,0.7-0.7c0.2-0.3,0.3-0.7,0.3-1v-3.8c0-0.4-0.1-0.7-0.3-1c-0.2-0.3-0.4-0.6-0.7-0.7c-0.3-0.2-0.7-0.3-1-0.3
				c-0.4,0-0.7,0.1-1,0.3c-0.3,0.2-0.6,0.4-0.7,0.7c-0.2,0.3-0.3,0.7-0.3,1v3.8c0,0.4,0.1,0.7,0.3,1c0.2,0.3,0.4,0.6,0.7,0.7
				C127.4,22.8,127.8,22.9,128.1,22.9z"/>
		</g>
	</g>
	<path class="st1" d="M19,17c2.5,0,4.8,0.1,6.7,0.3c-0.1-1.3-0.2-2.6-0.4-3.7c-2-0.2-4.1-0.3-6.3-0.3c-2.2,0-4.3,0.1-6.3,0.3
		c-0.2,1.2-0.3,2.4-0.4,3.7C14.2,17.1,16.5,17,19,17z"/>
	<path class="st1" d="M31.5,14.5c-0.8-0.2-1.6-0.3-2.5-0.5c0.2,1.2,0.3,2.5,0.3,3.8c2,0.4,3.5,0.8,4.3,1.2c-0.8,0.4-2.3,0.8-4.3,1.2
		c-1.1,0.2-2.3,0.4-3.7,0.5C23.8,20.9,21.5,21,19,21c-2.5,0-4.8-0.1-6.7-0.3c-1.4-0.1-2.6-0.3-3.7-0.5c-2-0.4-3.5-0.8-4.3-1.2
		c0.8-0.4,2.3-0.8,4.3-1.2c0-1.3,0.2-2.6,0.3-3.8c0,0-0.9,0.1-2.5,0.5C3.7,15.1,0,16.2,0,19c0,2.8,3.7,3.9,6.5,4.5
		c1.6,0.3,3.3,0.6,5.3,0.8c0,0,0,0,0,0c2.3,0.2,4.7,0.4,7.3,0.4c2.2,0,4.3-0.1,6.3-0.3c0,0,0,0,0,0c0.3,0,0.7-0.1,1-0.1c0,0,0,0,0,0
		c1-0.1,1.9-0.2,2.8-0.4c0,0,0,0,0,0c0.9-0.1,1.7-0.3,2.5-0.5c2.8-0.6,6.5-1.8,6.5-4.5C38,16.2,34.3,15.1,31.5,14.5z"/>
	<g>
		<path class="st0" d="M26.3,24.3c-0.3,0-0.7,0.1-1,0.1C25.6,24.4,25.9,24.4,26.3,24.3z"/>
		<path class="st0" d="M29.1,24c-0.9,0.1-1.8,0.3-2.8,0.4C27.2,24.2,28.2,24.1,29.1,24z"/>
		<path class="st0" d="M12.7,13.6"/>
		<polygon class="st0" points="25.3,24.4 25.3,24.4 25.3,24.4 		"/>
		<polygon class="st0" points="25.3,13.6 25.3,13.6 25.3,13.6 		"/>
		<path class="st0" d="M26.3,24.3C26.3,24.3,26.3,24.3,26.3,24.3C26.3,24.3,26.3,24.3,26.3,24.3z"/>
		<polygon class="st0" points="29.1,24 29.1,24 29.1,24 		"/>
		<polygon class="st0" points="29.1,14 29.1,14 29.1,14 		"/>
		<polygon class="st0" points="12.7,13.6 12.7,13.6 12.7,13.6 		"/>
	</g>
	<path class="st0" d="M25.3,13.6C25.3,13.6,25.3,13.6,25.3,13.6c0.2,1.2,0.3,2.4,0.4,3.7c0,0.6,0,1.1,0,1.7c0,0.6,0,1.1,0,1.7
		c1.4-0.1,2.6-0.3,3.7-0.5c0-0.4,0-0.8,0-1.2c0-0.4,0-0.8,0-1.2c0-1.3-0.2-2.6-0.3-3.8l0,0c-0.2-1.3-0.5-2.6-0.8-3.8
		c-0.4-1.5-0.9-2.9-1.6-4.1C24.8,2.1,22,0,19,0c-3,0-5.8,2.1-7.7,6c-0.6,1.2-1.1,2.6-1.6,4.1c-0.3,1.2-0.6,2.5-0.8,3.8
		c-0.2,1.2-0.3,2.5-0.3,3.8c0,0.4,0,0.8,0,1.2c0,0.4,0,0.8,0,1.2c1.1,0.2,2.3,0.4,3.7,0.5c0-0.6,0-1.1,0-1.7c0-0.6,0-1.1,0-1.7
		c0.1-1.3,0.2-2.6,0.4-3.7c0.2-1.4,0.6-2.6,1-3.8C15,6,17.1,3.7,19,3.7s4,2.3,5.3,6.1C24.7,10.9,25,12.2,25.3,13.6 M11.7,13.7
		C11.7,13.7,11.7,13.7,11.7,13.7C11.7,13.7,11.7,13.7,11.7,13.7z"/>
</g>
</svg>
