<?xml version="1.0" encoding="utf-8"?>
<!-- Generator: Adobe Illustrator 25.3.1, SVG Export Plug-In . SVG Version: 6.00 Build 0)  -->
<svg version="1.1" id="Layer_1" xmlns="http://www.w3.org/2000/svg" xmlns:xlink="http://www.w3.org/1999/xlink" x="0px" y="0px"
	 width="24px" height="24px" viewBox="0 0 24 24" style="enable-background:new 0 0 24 24;" xml:space="preserve">
<style type="text/css">
	.st0{fill:#3C7685;}
	.st1{fill:#008D5B;}
	.st2{fill:none;}
	.st3{fill:#BA5655;}
	.st4{fill:#284652;}
</style>
<rect x="8" y="8" class="st0" width="2" height="11"/>
<rect x="3" y="8" class="st0" width="2" height="11"/>
<g>
	<path class="st1" d="M-1,8.3"/>
	<g>
		<path class="st2" d="M-1.3,9.8C-1.1,9.3-1,8.8-1,8.3"/>
	</g>
</g>
<g>
	<path class="st1" d="M18,2c-2.2,0-4,1.8-4,4s1.8,4,4,4s4-1.8,4-4S20.2,2,18,2z M18.8,5.4l-0.2,0.4h-1.1c0,0.1,0,0.1,0,0.2
		c0,0.1,0,0.1,0,0.2h0.9l-0.2,0.4h-0.6c0,0,0,0,0,0.1c0.1,0.2,0.1,0.3,0.3,0.4c0.1,0.1,0.3,0.1,0.4,0.1c0.1,0,0.2,0,0.3,0
		c0.1,0,0.2-0.1,0.2-0.1s0.1-0.1,0.1-0.1l0.3,0.7c-0.1,0.1-0.3,0.2-0.5,0.3C18.6,8,18.4,8,18.2,8c-0.3,0-0.6-0.1-0.9-0.2
		c-0.3-0.2-0.5-0.4-0.6-0.7c-0.1-0.1-0.1-0.3-0.2-0.5H16l0.2-0.4h0.3c0-0.1,0-0.1,0-0.2c0-0.1,0-0.1,0-0.2H16l0.2-0.4h0.4
		c0-0.2,0.1-0.3,0.2-0.5c0.1-0.3,0.3-0.5,0.6-0.7S17.9,4,18.2,4c0.2,0,0.4,0,0.6,0.1c0.2,0.1,0.3,0.1,0.5,0.3l-0.4,0.7
		c0,0-0.1-0.1-0.2-0.1c-0.1,0-0.1-0.1-0.2-0.1c-0.1,0-0.2,0-0.3,0c-0.2,0-0.3,0-0.4,0.1c-0.1,0.1-0.2,0.2-0.3,0.4c0,0,0,0,0,0.1
		C17.5,5.4,18.8,5.4,18.8,5.4z"/>
	<g>
		<path class="st2" d="M16,8v1.4c0.6,0.3,1.3,0.6,2,0.6c0.3,0,0.7-0.1,1-0.1V8H16z"/>
		<path class="st2" d="M21.9,6.7C22,6.4,22,6.2,22,6c0-2.2-1.8-4-4-4s-4,1.8-4,4h7C21.4,6,21.8,6.3,21.9,6.7z"/>
		<path class="st2" d="M21,8.6c0.2-0.2,0.4-0.5,0.5-0.8C21.4,7.9,21.2,8,21,8V8.6z"/>
		<path class="st0" d="M19,19h2v-9c-0.6,0.4-1.3,0.8-2,0.9V19z"/>
		<path class="st0" d="M14,9v10h2v-8.4C15.2,10.2,14.5,9.7,14,9z"/>
		<path class="st3" d="M3,6C2.4,6,2,6.4,2,7s0.4,1,1,1h10.4C13.2,7.4,13,6.7,13,6H3z"/>
	</g>
</g>
<path class="st4" d="M20,17H4c-0.6,0-1,0.4-1,1v1c0,0.6,0.4,1,1,1h16c0.6,0,1-0.4,1-1v-1C21,17.4,20.6,17,20,17z"/>
<path class="st4" d="M20,11H4c-0.6,0-1,0.4-1,1v1c0,0.6,0.4,1,1,1h16c0.6,0,1-0.4,1-1v-1C21,11.4,20.6,11,20,11z"/>
</svg>
