<?xml version="1.0" encoding="utf-8"?>
<!-- Generator: Adobe Illustrator 25.3.1, SVG Export Plug-In . SVG Version: 6.00 Build 0)  -->
<svg version="1.1" id="Layer_1" xmlns="http://www.w3.org/2000/svg" xmlns:xlink="http://www.w3.org/1999/xlink" x="0px" y="0px"
	 width="24px" height="24px" viewBox="0 0 24 24" style="enable-background:new 0 0 24 24;" xml:space="preserve">
<style type="text/css">
	.st0{fill:#3C7685;}
	.st1{fill:#284652;}
	.st2{fill:#BA5655;}
</style>
<path class="st0" d="M18,11.5V18c0,0.6-0.4,1-1,1H7c-0.6,0-1-0.4-1-1v-6.8H4V18c0,1.7,1.3,3,3,3h10c1.7,0,3-1.3,3-3v-6.5H18z"/>
<path class="st1" d="M10,21v-6c0-0.6,0.4-1,1-1h2c0.6,0,1,0.4,1,1v6h2v-6c0-1.7-1.3-3-3-3h-2c-1.7,0-3,1.3-3,3v6H10z"/>
<path class="st2" d="M21.2,13.6L21.2,13.6c-0.4,0.4-1,0.4-1.4,0l-9.2-9.2L12,3l9.2,9.2C21.6,12.6,21.6,13.2,21.2,13.6z"/>
<path class="st2" d="M2.8,13.6L2.8,13.6c-0.4-0.4-0.4-1,0-1.4L12,3l1.4,1.4l-9.2,9.2C3.8,14,3.2,14,2.8,13.6z"/>
</svg>
