<?xml version="1.0" encoding="utf-8"?>
<!-- Generator: Adobe Illustrator 25.3.1, SVG Export Plug-In . SVG Version: 6.00 Build 0)  -->
<svg version="1.1" id="Layer_1" xmlns="http://www.w3.org/2000/svg" xmlns:xlink="http://www.w3.org/1999/xlink" x="0px" y="0px"
	 width="24px" height="24px" viewBox="0 0 24 24" style="enable-background:new 0 0 24 24;" xml:space="preserve">
<style type="text/css">
	.st0{fill:#284652;}
	.st1{fill:#3C7685;}
	.st2{fill:#008D5B;}
	.st3{fill:#007236;}
</style>
<path class="st0" d="M8,2H7H5C3.3,2,2,3.3,2,5v3c0,1.7,1.3,3,3,3h2h1c1.7,0,3-1.3,3-3V5C11,3.3,9.7,2,8,2z M9,8c0,0.6-0.4,1-1,1H7H5
	C4.4,9,4,8.6,4,8V5c0-0.6,0.4-1,1-1h2h1c0.6,0,1,0.4,1,1V8z"/>
<path class="st1" d="M19,2h-1h-2c-1.7,0-3,1.3-3,3v3c0,1.7,1.3,3,3,3h2h1c1.7,0,3-1.3,3-3V5C22,3.3,20.7,2,19,2z M20,8
	c0,0.6-0.4,1-1,1h-1h-2c-0.6,0-1-0.4-1-1V5c0-0.6,0.4-1,1-1h2h1c0.6,0,1,0.4,1,1V8z"/>
<path class="st2" d="M8,13H7H5c-1.7,0-3,1.3-3,3v3c0,1.7,1.3,3,3,3h2h1c1.7,0,3-1.3,3-3v-3C11,14.3,9.7,13,8,13z M9,19
	c0,0.6-0.4,1-1,1H7H5c-0.6,0-1-0.4-1-1v-3c0-0.6,0.4-1,1-1h2h1c0.6,0,1,0.4,1,1V19z"/>
<path class="st3" d="M19,13h-1h-2c-1.7,0-3,1.3-3,3v3c0,1.7,1.3,3,3,3h2h1c1.7,0,3-1.3,3-3v-3C22,14.3,20.7,13,19,13z M20,19
	c0,0.6-0.4,1-1,1h-1h-2c-0.6,0-1-0.4-1-1v-3c0-0.6,0.4-1,1-1h2h1c0.6,0,1,0.4,1,1V19z"/>
</svg>
