<?xml version="1.0" encoding="utf-8"?>
<!-- Generator: Adobe Illustrator 25.3.1, SVG Export Plug-In . SVG Version: 6.00 Build 0)  -->
<svg version="1.1" id="Layer_1" xmlns="http://www.w3.org/2000/svg" xmlns:xlink="http://www.w3.org/1999/xlink" x="0px" y="0px"
	 width="24px" height="24px" viewBox="0 0 24 24" style="enable-background:new 0 0 24 24;" xml:space="preserve">
<style type="text/css">
	.st0{fill:#3C7685;}
</style>
<path class="st0" d="M22.5,11.1c-0.2-0.3-0.5-0.5-0.8-0.5c0-0.2,0-0.4-0.1-0.5c-0.2-0.3-0.6-0.4-0.9-0.2L19,10.5c-0.1,0-0.2,0-0.4,0
	c-1.1,0-1.8-0.1-2.1-0.2c-0.3-0.1-0.4-0.6-0.4-1.4c0-0.8,0.1-1.3,0.3-1.4c0.2-0.2,0.8-0.3,1.8-0.3s1.5,0,1.6-0.1
	C20,7,20.2,6.8,20.2,6.4c0-0.4-0.1-0.6-0.2-0.7s-0.6-0.1-1.6-0.1c-0.9,0-1.5,0-1.8-0.1s-0.4-0.3-0.4-0.6c0-1,0.1-1.6,0.4-1.8
	C16.8,3,17.2,2.9,18,2.9h0.7h0.5h0.5C20.6,2.9,21,2.6,21,2c0-0.3-0.1-0.5-0.3-0.6c-0.2-0.1-0.6-0.2-1.2-0.2h-1h-0.3h-1.6
	c-1,0-1.6,0.1-1.9,0.3c-0.2,0.2-0.3,0.7-0.3,1.6s0,1.8-0.1,2.8c-0.1,0.9-0.1,1.8-0.1,2.7V10c0,1,0.2,1.6,0.5,1.8l-1.4,0.5h-0.1
	c-0.1,0.1-0.1,0.1-0.2,0.2l0,0v-0.7V9V8.2V7.5V6.4v-2c0-1-0.1-1.7-0.1-2c-0.1-0.3-0.3-0.6-0.5-0.7S12,1.5,11.9,1.5
	c-0.7,0-1.1,0.2-1.4,0.7c-0.1,0.2-0.6,1.1-1.3,2.7C8.4,6.5,8,7.3,7.9,7.3L7.7,7.1l-1-2.3C6,3.5,5.6,2.7,5.3,2.3
	C4.9,1.7,4.7,1.4,4.1,1.4c-0.4,0-0.6,0.2-0.8,0.5C3.2,2.1,3.1,2.4,3.1,2.7v0.7v0.4l-0.2,6c-0.2,0-0.4,0.1-0.5,0.3
	c-0.1,0.1-0.2,0.3-0.1,0.5c-0.3,0-0.6,0.2-0.8,0.5c-0.1,0.2-0.1,0.5-0.1,0.7c0.1,0.2,0.2,0.4,0.5,0.6l0,0L4.1,13
	c-0.1,0.1-0.2,0.2-0.3,0.3c-0.8,0.9-1.2,2.2-1.2,3.8v0.3c0,0.8,0.1,1.6,0.3,2.3c0.2,0.7,0.5,1.3,0.9,1.8s0.9,0.8,1.5,1.1
	C6,22.9,6.6,23,7.2,23h0.3c1.2,0,2.1-0.2,2.7-0.5c0.5-0.3,0.8-1,0.8-2.1v-0.6c0-1.1-0.1-1.7-0.3-2s-0.7-0.4-1.4-0.4
	s-1.1,0.1-1.4,0.3c-0.1,0.1-0.1,0.2-0.1,0.2c0,0.3,0.2,0.7,0.7,0.9c0.5,0.3,0.7,0.6,0.7,0.8c0,0.4-0.1,0.7-0.4,1
	C8.6,20.9,8.2,21,7.7,21s-0.9-0.1-1.4-0.2c-0.4-0.2-0.8-0.4-1-0.7c-0.2-0.3-0.4-0.8-0.6-1.3c-0.1-0.6-0.2-1.2-0.2-1.9
	c0-1.1,0.3-1.9,0.8-2.5c0.4-0.4,0.8-0.6,1.3-0.8l3.1,0.8c0.5,0.6,1.4,1,2.2,1l0,0c0.8,0,1.7-0.4,2.2-1l0.3-0.1
	c-0.2,0.7-0.6,1.9-1.2,3.6c-0.9,2.8-1.4,4.3-1.4,4.5s0.2,0.3,0.7,0.3s0.8-0.1,1-0.4c0.1-0.1,0.3-0.5,0.5-1.1s0.4-1,0.6-1.1
	c0.3-0.2,1.2-0.3,2.5-0.3c0.6,0,1,0.1,1.2,0.3c0.1,0.1,0.2,0.4,0.4,1c0.2,0.6,0.3,0.9,0.5,1.1c0.2,0.3,0.6,0.5,1.1,0.5
	s0.8-0.1,0.8-0.4c0-0.1-0.1-0.5-0.3-1.2c-0.2-0.7-0.4-1.3-0.5-1.8s-0.5-1.8-1.2-3.8c-0.3-1-0.6-1.7-0.9-2.3l4-1.1l0,0
	c0.2-0.1,0.4-0.3,0.5-0.6C22.7,11.6,22.7,11.4,22.5,11.1z M17.8,18.4c0,0.1-0.2,0.2-0.7,0.2h-1.2c-0.5,0-0.8-0.1-0.8-0.2
	c0-0.5,0.4-1.7,1.2-3.5c0.2-0.4,0.2-0.5,0.3-0.5c0,0,0.1,0.2,0.3,0.5C17.5,16.6,17.8,17.8,17.8,18.4L17.8,18.4z M4.6,7.3
	C4.7,5.8,4.8,5,5,5c0.1,0,0.2,0.8,0.9,2.3C6.6,8.9,7,9.7,7.1,9.8c0.2,0.2,0.5,0.4,0.8,0.4c0.3,0,0.6-0.2,0.8-0.5
	c0.1-0.2,0.5-1,1.2-2.5C10.5,5.7,10.9,5,11,5s0.2,0.7,0.2,2.2c0,0.3,0,0.5,0,0.8v0.8c0,1.1,0,4.1,0.1,4.7c-0.1,0-0.1-0.1-0.1-0.2
	c0,0,0,0,0-0.1c0.1-0.1,0.1-0.3,0.1-0.4c0-0.2-0.1-0.4-0.3-0.5h-0.1l-6.3-2c0-0.3,0-0.7,0.1-1.1C4.5,8.5,4.6,7.9,4.6,7.3z"/>
</svg>
