<?xml version="1.0" encoding="utf-8"?>
<!-- Generator: Adobe Illustrator 25.3.1, SVG Export Plug-In . SVG Version: 6.00 Build 0)  -->
<svg version="1.1" id="Layer_1" xmlns="http://www.w3.org/2000/svg" xmlns:xlink="http://www.w3.org/1999/xlink" x="0px" y="0px"
	 width="24px" height="24px" viewBox="0 0 24 24" style="enable-background:new 0 0 24 24;" xml:space="preserve">
<style type="text/css">
	.st0{fill:#284652;}
	.st1{fill:#008D5B;}
	.st2{fill:#3C7685;}
</style>
<g>
	<path class="st0" d="M7,19V5c0-0.6,0.4-1,1-1h5.8c0.3,0,0.5,0.1,0.7,0.3l2.2,2.2C16.9,6.7,17,7,17,7.2V10h2V7.2
		c0-0.8-0.3-1.6-0.9-2.1l-2.2-2.2C15.3,2.3,14.6,2,13.8,2H8C6.3,2,5,3.3,5,5v14c0,1.7,1.3,3,3,3h8c1.7,0,3-1.3,3-3v0h-2v0
		c0,0.6-0.4,1-1,1H8C7.4,20,7,19.6,7,19z"/>
</g>
<g>
	<path class="st1" d="M19.6,13.4l-0.3,0.7h-4.4l0.3-0.7H19.6z M18.9,14.8l-0.4,0.7h-3.8l0.3-0.7H18.9z M20.4,11.6l-0.5,1.1
		c-0.1-0.1-0.2-0.1-0.3-0.2c-0.1-0.1-0.3-0.1-0.4-0.2s-0.3-0.1-0.5-0.1c-0.3,0-0.6,0.1-0.8,0.2c-0.2,0.2-0.4,0.4-0.5,0.7
		c-0.1,0.3-0.2,0.7-0.2,1.3c0,0.5,0.1,0.9,0.2,1.3c0.1,0.3,0.3,0.6,0.5,0.7c0.2,0.2,0.5,0.2,0.8,0.2c0.2,0,0.4,0,0.5-0.1
		c0.2-0.1,0.3-0.1,0.4-0.2c0.1-0.1,0.2-0.1,0.3-0.2l0.5,1.1c-0.2,0.2-0.5,0.3-0.8,0.5c-0.3,0.1-0.6,0.2-1,0.2
		c-0.6,0-1.1-0.1-1.5-0.4c-0.4-0.3-0.8-0.7-1-1.2c-0.3-0.5-0.4-1.1-0.4-1.9c0-0.7,0.1-1.4,0.4-1.9c0.3-0.5,0.6-0.9,1-1.2
		c0.4-0.3,1-0.4,1.5-0.4c0.4,0,0.7,0.1,1,0.2C19.9,11.3,20.2,11.4,20.4,11.6z"/>
</g>
<rect x="8" y="10" class="st2" width="7" height="1"/>
<rect x="8" y="12" class="st2" width="5" height="1"/>
<rect x="8" y="8" class="st2" width="7" height="1"/>
<rect x="8" y="14" class="st2" width="5" height="1"/>
</svg>
