<?xml version="1.0" encoding="utf-8"?>
<!-- Generator: Adobe Illustrator 25.3.1, SVG Export Plug-In . SVG Version: 6.00 Build 0)  -->
<svg version="1.1" id="Layer_1" xmlns="http://www.w3.org/2000/svg" xmlns:xlink="http://www.w3.org/1999/xlink" x="0px" y="0px"
	 width="24px" height="24px" viewBox="0 0 24 24" style="enable-background:new 0 0 24 24;" xml:space="preserve">
<style type="text/css">
	.st0{fill:#008D5B;}
	.st1{fill:#3C7685;}
	.st2{fill:#007236;}
	.st3{fill:#284652;}
</style>
<g>
	<path class="st0" d="M16,12c2.2,0,4,1.8,4,4h2c0-3.3-2.7-6-6-6c-2.3,0-4.3,1.3-5.3,3.2C10.2,14.1,12,16,12,16
		C12,13.8,13.8,12,16,12"/>
</g>
<g>
	<path class="st1" d="M8,15c2.2,0,4,1.8,4,4h2c0-3.3-2.7-6-6-6l0,0c-3.3,0-6,2.7-6,6h2C4,16.8,5.8,15,8,15"/>
</g>
<path class="st2" d="M16,6c1.1,0,2,0.9,2,2s-0.9,2-2,2s-2-0.9-2-2S14.9,6,16,6 M16,4c-2.2,0-4,1.8-4,4s1.8,4,4,4s4-1.8,4-4
	S18.2,4,16,4L16,4z"/>
<path class="st3" d="M8,9c1.1,0,2,0.9,2,2s-0.9,2-2,2s-2-0.9-2-2S6.9,9,8,9 M8,7c-2.2,0-4,1.8-4,4s1.8,4,4,4s4-1.8,4-4S10.2,7,8,7
	L8,7z"/>
</svg>
