<?xml version="1.0" encoding="utf-8"?>
<!-- Generator: Adobe Illustrator 25.3.1, SVG Export Plug-In . SVG Version: 6.00 Build 0)  -->
<svg version="1.1" id="Layer_1" xmlns="http://www.w3.org/2000/svg" xmlns:xlink="http://www.w3.org/1999/xlink" x="0px" y="0px"
	 width="24px" height="24px" viewBox="0 0 24 24" style="enable-background:new 0 0 24 24;" xml:space="preserve">
<style type="text/css">
	.st0{fill:#21CE6B;}
	.st1{fill:#12295F;}
</style>
<g>
	<path class="st0" d="M7.8,5.4L7.4,6.2H3l0.3-0.7L7.8,5.4L7.8,5.4z M7.1,6.8L6.8,7.6H3l0.3-0.7L7.1,6.8L7.1,6.8z M8.6,3.6L8.1,4.8
		C8,4.7,7.9,4.6,7.8,4.6C7.7,4.5,7.5,4.4,7.4,4.4S7,4.3,6.8,4.3C6.5,4.3,6.2,4.4,6,4.5C5.8,4.7,5.6,4.9,5.5,5.2
		C5.4,5.6,5.3,6,5.3,6.5s0.1,0.9,0.2,1.3C5.6,8.1,5.8,8.3,6,8.5s0.5,0.2,0.8,0.2c0.2,0,0.4,0,0.5-0.1c0.2-0.1,0.3-0.1,0.4-0.2
		c0.2,0,0.3-0.1,0.4-0.1l0.5,1.1C8.4,9.6,8.1,9.7,7.8,9.8C7.5,9.9,7.2,10,6.8,10c-0.6,0-1.1-0.1-1.5-0.4c-0.4-0.3-0.8-0.7-1-1.2
		C4,7.9,3.9,7.2,3.9,6.5S4,5.1,4.3,4.6s0.6-0.9,1-1.2C5.7,3.1,6.2,3,6.8,3c0.4,0,0.7,0.1,1,0.2C8.1,3.3,8.4,3.4,8.6,3.6z"/>
</g>
<path class="st1" d="M7,15.1H6c-0.6,0-1,0.4-1,1v3c0,0.6,0.4,1,1,1h1c0.6,0,1-0.4,1-1v-3C8,15.6,7.6,15.1,7,15.1z"/>
<path class="st1" d="M11,11.1h-1c-0.6,0-1,0.4-1,1v7c0,0.6,0.4,1,1,1h1c0.6,0,1-0.4,1-1v-7C12,11.6,11.6,11.1,11,11.1z"/>
<path class="st1" d="M15,9.1h-1c-0.6,0-1,0.4-1,1v9c0,0.6,0.4,1,1,1h1c0.6,0,1-0.4,1-1v-9C16,9.6,15.6,9.1,15,9.1z"/>
<path class="st0" d="M19,4.1h-1c-0.6,0-1,0.4-1,1v14c0,0.6,0.4,1,1,1h1c0.6,0,1-0.4,1-1v-14C20,4.6,19.6,4.1,19,4.1z"/>
<path class="st0" d="M19.2,4.7l-2.1,2.1c-0.4,0.4-1,0.4-1.4,0l0,0c-0.4-0.4-0.4-1,0-1.4l2.1-2.1c0.4-0.4,1-0.4,1.4,0l0,0
	C19.6,3.7,19.6,4.3,19.2,4.7z"/>
<path class="st0" d="M19.9,6.8l-2.1-2.1c-0.4-0.4-0.4-1,0-1.4l0,0c0.4-0.4,1-0.4,1.4,0l2.1,2.1c0.4,0.4,0.4,1,0,1.4l0,0
	C20.9,7.2,20.3,7.2,19.9,6.8z"/>
<rect x="3" y="21" class="st1" width="18" height="1"/>
</svg>
