<?xml version="1.0" encoding="utf-8"?>
<!-- Generator: Adobe Illustrator 25.3.1, SVG Export Plug-In . SVG Version: 6.00 Build 0)  -->
<svg version="1.1" id="Layer_1" xmlns="http://www.w3.org/2000/svg" xmlns:xlink="http://www.w3.org/1999/xlink" x="0px" y="0px"
	 width="24px" height="24px" viewBox="0 0 24 24" style="enable-background:new 0 0 24 24;" xml:space="preserve">
<style type="text/css">
	.st0{fill:#F89721;}
	.st1{fill:#3E7785;}
</style>
<circle class="st0" cx="12" cy="4" r="1"/>
<circle class="st0" cx="12" cy="20" r="1"/>
<circle class="st0" cx="4" cy="12" r="1"/>
<circle class="st0" cx="20" cy="12" r="1"/>
<circle class="st0" cx="17.7" cy="6.3" r="1"/>
<circle class="st0" cx="6.3" cy="17.7" r="1"/>
<circle class="st0" cx="6.3" cy="6.3" r="1"/>
<circle class="st0" cx="17.7" cy="17.7" r="1"/>
<g>
	<path class="st1" d="M9,16V8h3.2c0.6,0,1.1,0.1,1.5,0.3c0.4,0.2,0.8,0.5,1,0.9c0.2,0.4,0.3,0.9,0.3,1.4c0,0.5-0.1,1-0.3,1.4
		s-0.6,0.7-1,0.9c-0.4,0.2-1,0.3-1.6,0.3H10v-1.4h1.8c0.3,0,0.6,0,0.8-0.1c0.2-0.1,0.4-0.2,0.5-0.4c0.1-0.2,0.2-0.4,0.2-0.7
		c0-0.3-0.1-0.5-0.2-0.7c-0.1-0.2-0.3-0.3-0.5-0.4c-0.2-0.1-0.5-0.1-0.8-0.1h-1.1V16H9z M13.3,12.4l2,3.6h-1.9l-1.9-3.6H13.3z"/>
</g>
</svg>
