<?xml version="1.0" encoding="utf-8"?>
<!-- Generator: Adobe Illustrator 25.3.1, SVG Export Plug-In . SVG Version: 6.00 Build 0)  -->
<svg version="1.1" id="Layer_1" xmlns="http://www.w3.org/2000/svg" xmlns:xlink="http://www.w3.org/1999/xlink" x="0px" y="0px"
	 width="24px" height="24px" viewBox="0 0 24 24" style="enable-background:new 0 0 24 24;" xml:space="preserve">
<style type="text/css">
	.st0{fill:#3C7685;}
	.st1{fill:#284652;}
</style>
<g>
	<path class="st0" d="M19,5v11c0,0.6-0.4,1-1,1h-3c-0.7,0-1.4,0.2-2,0.5V9c0-2.2,1.8-4,4-4H19 M20,3h-3c-3.3,0-6,2.7-6,6v12h2
		c0-1.1,0.9-2,2-2h3c1.7,0,3-1.3,3-3V4C21,3.4,20.6,3,20,3L20,3z"/>
	<path class="st1" d="M7,5c2.2,0,4,1.8,4,4v8.5C10.4,17.2,9.7,17,9,17H6c-0.6,0-1-0.4-1-1V5H7 M7,3H4C3.4,3,3,3.4,3,4v12
		c0,1.7,1.3,3,3,3h3c1.1,0,2,0.9,2,2h2V9C13,5.7,10.3,3,7,3L7,3z"/>
</g>
</svg>
