<?xml version="1.0" encoding="utf-8"?>
<!-- Generator: Adobe Illustrator 25.3.1, SVG Export Plug-In . SVG Version: 6.00 Build 0)  -->
<svg version="1.1" id="Layer_1" xmlns="http://www.w3.org/2000/svg" xmlns:xlink="http://www.w3.org/1999/xlink" x="0px" y="0px"
	 width="143.8px" height="40px" viewBox="0 0 143.8 40" style="enable-background:new 0 0 143.8 40;" xml:space="preserve">
<style type="text/css">
	.st0{fill-rule:evenodd;clip-rule:evenodd;fill:#F00F00;}
	.st1{fill-rule:evenodd;clip-rule:evenodd;fill:#046A48;}
	.st2{fill-rule:evenodd;clip-rule:evenodd;fill:#FFD100;}
</style>
<g>
	<g>
		<polygon class="st0" points="41.3,2.9 60.5,2.9 60.5,24.3 41.3,24.3 		"/>
		<polygon class="st1" points="1.5,2.9 14.3,2.9 14.3,24.3 1.5,24.3 		"/>
		<circle class="st2" cx="27.8" cy="13.6" r="10.9"/>
	</g>
	<g>
		<path d="M67.9,11.5V12h-3.5v-0.6l0.8-0.1V3.7l-0.8-0.1V3h3.4c1.9,0,3,1,3,2.2C70.8,6.3,70,7,69,7.5v0l2.9,4.6H70l-2.9-4.5
			C68.2,7.4,69,6.7,69,5.2c0-1.2-0.7-1.6-1.6-1.6h-0.1c-0.3,0-0.4,0-0.6,0.1v7.7L67.9,11.5z"/>
		<path d="M72.5,11.5l0.8-0.1V3.7l-0.8-0.1V3h6.4v2.6h-0.6l-0.4-1.4c-0.1-0.4-0.3-0.5-1.1-0.5h-1.9v3.5L77.5,7v0.9l-2.5-0.1v3.6
			c0.6,0.1,0.8,0.1,1.2,0.1h1c0.5,0,0.7-0.3,0.8-0.5l0.6-1.4h0.6l-0.3,2.6h-6.3V11.5z"/>
		<path d="M83.6,11.5V12h-3.5v-0.6l0.8-0.1V3.7l-0.8-0.1V3h3.3c2.3,0,3.2,1.1,3.2,2.4c0,1.2-0.8,2.7-3.4,2.9l-0.7,0.1v3L83.6,11.5z
			 M83.1,7.6c1.1-0.2,1.8-0.8,1.8-2.3c0-1.1-0.5-1.7-1.6-1.7h-0.1c-0.3,0-0.5,0-0.7,0.1v4L83.1,7.6z"/>
		<path d="M88.4,9.4V3.7l-0.8-0.1V2.9h3.2v0.6l-0.8,0.1v5.8c0,1.4,0.7,1.7,1.4,1.7c1.8,0,1.9-2.4,1.9-4.3V3.7l-0.8-0.1V2.9h3.2v0.6
			L95,3.7v7.7l0.8,0.1V12h-2.3l-0.1-1.4h0c-0.4,0.9-1,1.6-2.3,1.6C90.1,12.2,88.4,11.8,88.4,9.4z M90.1,1.7L93.3,1v1.2l-3.2,0.1V1.7
			z"/>
		<path d="M96.8,11.5l0.8-0.1V3.7l-0.8-0.1V3h3.6c1.8,0,2.9,0.8,2.9,2.2c0,1.4-0.8,2-2.1,2.3v0c1.6,0.1,2.5,1,2.5,2.2
			c0,2-1.8,2.5-3.2,2.5h-3.6L96.8,11.5L96.8,11.5z M100,7.1c1,0,1.6-0.5,1.6-2c0-1.1-0.6-1.5-1.4-1.5h-0.8v3.5H100z M100.2,11.4
			c1.1,0,1.7-0.5,1.7-1.7s-0.6-1.9-1.7-1.9h-0.8v3.6C99.6,11.4,100,11.4,100.2,11.4z"/>
		<path d="M108.3,11.4h0.8c0.5,0,0.7-0.3,0.8-0.5l0.6-1.4h0.6l-0.3,2.6h-6.2v-0.6l0.8-0.1V3.7l-0.8-0.1V3h3.4v0.6l-0.9,0.1v7.7
			C107.7,11.4,107.9,11.4,108.3,11.4z"/>
		<path d="M115.1,11.5V12h-3.2v-0.6l0.8-0.1V3.7l-0.8-0.1V3h3.2v0.6l-0.8,0.1v7.7L115.1,11.5z"/>
		<path d="M116.3,7.5c0-2.6,1.5-4.7,4.1-4.7c0.7,0,1.6,0.1,2.3,0.4v2.3h-0.6l-0.4-1.3c-0.1-0.4-0.5-0.8-1.4-0.8
			c-1.6,0-2.3,1.6-2.3,4s0.8,4,2.2,4c0.7,0,1.2-0.3,1.4-0.7l0.6-1.4h0.6l-0.3,2.3c-0.6,0.3-1.6,0.4-2.4,0.4
			C117.6,12.2,116.3,10.1,116.3,7.5z"/>
		<path d="M128.1,11.5l0.8-0.1l-0.6-1.9h-2.7l-0.5,1.9l0.8,0.2v0.6h-2.5v-0.6l0.8-0.2l2.1-7.5L126,3h1.7l2.7,8.4l0.8,0.1v0.6h-3.2
			L128.1,11.5L128.1,11.5z M128,8.7l-1.2-3.9h0l-1.1,3.9H128z"/>
		<path d="M67.9,23.8v0.6h-3.5v-0.6l0.8-0.1V16l-0.8-0.1v-0.6h3.3c2.3,0,3.2,1.1,3.2,2.4c0,1.2-0.8,2.7-3.4,2.9l-0.7,0.1v3
			L67.9,23.8z M67.3,19.9c1.1-0.2,1.8-0.8,1.8-2.3c0-1.1-0.5-1.7-1.6-1.7h-0.1c-0.3,0-0.5,0-0.7,0.1v4L67.3,19.9z"/>
		<path d="M71.9,19.8c0-2.6,1.4-4.7,3.6-4.7s3.6,2.1,3.6,4.7s-1.4,4.7-3.6,4.7S71.9,22.4,71.9,19.8z M75.7,23.8
			c1.2,0,1.7-1.5,1.7-3.4c0-2.2-0.5-4.7-2-4.7c-1.2,0-1.7,1.5-1.7,3.4C73.7,21.3,74.1,23.8,75.7,23.8z"/>
		<path d="M83.5,23.8v0.6H80v-0.6l0.8-0.1V16L80,15.9v-0.6h3.4c1.9,0,3,1,3,2.2c0,1.1-0.8,1.9-1.7,2.3v0l2.9,4.6h-1.9l-2.9-4.5
			c1.1-0.2,1.9-0.8,1.9-2.3c0-1.2-0.7-1.6-1.6-1.6H83c-0.3,0-0.4,0-0.6,0.1v7.7L83.5,23.8z"/>
		<path d="M89,23.8l1.2-0.1v-7.7h-0.5c-0.6,0-0.9,0-1.1,0.5l-0.4,1.4h-0.6v-2.6h6.8v2.6h-0.6l-0.4-1.4c-0.1-0.5-0.5-0.5-1.1-0.5
			h-0.5v7.7l1.2,0.1v0.6h-4L89,23.8L89,23.8z"/>
		<path d="M95.9,21.8V16l-0.8-0.1v-0.6h3.2v0.6L97.6,16v5.8c0,1.4,0.7,1.7,1.4,1.7c1.8,0,1.9-2.4,1.9-4.3V16l-0.8-0.1v-0.6h3.2v0.6
			l-0.8,0.1v7.7l0.8,0.1v0.6H101l-0.1-1.4h0c-0.4,0.9-1,1.6-2.3,1.6C97.6,24.5,95.9,24.1,95.9,21.8z"/>
		<path d="M104.3,19.8c0-2.6,1.5-4.7,4.2-4.7c0.7,0,1.6,0.1,2.3,0.4v2.3h-0.6l-0.4-1.3c-0.1-0.4-0.5-0.8-1.4-0.8
			c-1.7,0-2.4,1.6-2.4,4s0.7,4,2.4,4c0.3,0,0.6,0,0.8-0.1v-2.9l-0.9-0.1v-0.6h3.2v0.6l-0.6,0.1V24c-0.7,0.4-1.7,0.5-2.7,0.5
			C105.4,24.5,104.3,22.4,104.3,19.8z"/>
		<path d="M113.1,21.8V16l-0.8-0.1v-0.6h3.2v0.6l-0.8,0.1v5.8c0,1.4,0.7,1.7,1.4,1.7c1.8,0,1.9-2.4,1.9-4.3V16l-0.8-0.1v-0.6h3.2
			v0.6l-0.8,0.1v7.7l0.8,0.1v0.6h-2.3l-0.1-1.4h0c-0.4,0.9-1,1.6-2.3,1.6C114.7,24.5,113.1,24.1,113.1,21.8z"/>
		<path d="M121.5,23.8l0.8-0.1V16l-0.8-0.1v-0.6h6.4v2.6h-0.6l-0.4-1.4c-0.1-0.4-0.3-0.5-1.1-0.5H124v3.5l2.5-0.1v0.9l-2.5-0.1v3.6
			c0.6,0.1,0.8,0.1,1.2,0.1h1c0.5,0,0.7-0.3,0.8-0.5l0.6-1.4h0.6l-0.3,2.6h-6.3L121.5,23.8L121.5,23.8z"/>
		<path d="M129.4,24.1l-0.3-2.3h0.6l0.6,1.3c0.3,0.6,0.8,0.8,1.5,0.8c1.1,0,1.7-0.7,1.7-1.5c0-2.4-4.2-1.6-4.2-4.7
			c0-1.3,1-2.5,3-2.5c0.8,0,1.6,0.1,2.2,0.4v2.3h-0.6l-0.4-1.3c-0.1-0.4-0.5-0.8-1.2-0.8c-1,0-1.5,0.5-1.5,1.2
			c0,2.2,4.2,1.4,4.2,4.7c0,1.6-1.2,2.7-3.3,2.7C130.9,24.5,130,24.4,129.4,24.1z"/>
		<path d="M139.7,23.8l0.8-0.1l-0.6-1.9h-2.7l-0.5,1.9l0.8,0.2v0.6H135v-0.6l0.8-0.2l2.1-7.5l-0.3-0.8h1.7l2.7,8.4l0.8,0.1v0.6h-3.2
			L139.7,23.8L139.7,23.8z M139.6,21l-1.2-3.9h0l-1.1,3.9H139.6z"/>
		<path d="M64.5,36.2l1-0.1v-7.8l-1-0.1v-0.5h6.2V30h-0.5l-0.3-1.3c-0.1-0.4-0.3-0.5-1.1-0.5h-2.3v3.6l2.8-0.1v0.7l-2.8-0.1v3.8
			c0.6,0.1,0.8,0.1,1.2,0.1h1.4c0.5,0,0.7-0.2,0.8-0.4l0.5-1.4h0.5l-0.3,2.4h-6.1L64.5,36.2L64.5,36.2z"/>
		<path d="M71.9,36.2l1-0.1v-7.8l-1-0.1v-0.5h3.3c2.6,0,4,2,4,4.5s-1.4,4.5-4.1,4.5h-3.3V36.2z M75.1,36.1h0.3
			c1.9,0,2.8-1.4,2.8-3.6c0-2.3-0.8-4.4-3-4.4H74v7.9C74.5,36.1,74.8,36.1,75.1,36.1z"/>
		<path d="M81,34.1v-5.9l-1-0.1v-0.5h3.1v0.5l-1,0.1v5.9c0,1.4,0.6,2.1,1.7,2.1c1.5,0,2.2-1.5,2.2-3.6v-4.3l-1-0.1v-0.5H88v0.5
			l-1,0.1V36l1,0.1v0.5h-2L86,35.2h0c-0.4,0.9-1.1,1.6-2.3,1.6C82.5,36.8,81,36.2,81,34.1z"/>
		<path d="M88.9,32.1c0-2.6,1.4-4.7,4-4.7c0.9,0,1.7,0.2,2.2,0.3V30h-0.5l-0.3-1.2c-0.1-0.5-0.5-0.8-1.5-0.8c-1.6,0-2.9,1.2-2.9,4.1
			c0,2.9,1.3,4.1,2.9,4.1c0.9,0,1.3-0.3,1.5-0.7l0.4-1.3h0.5l-0.3,2.2c-0.5,0.2-1.4,0.3-2.1,0.3C90.2,36.8,88.9,34.7,88.9,32.1z"/>
		<path d="M100.3,36.2l1-0.1l-0.8-2.2h-2.8L97.2,36l0.9,0.2v0.5h-2.5v-0.5l0.9-0.2l2.2-7.5l-0.3-0.9h1.1l3,8.5l1,0.1v0.5h-3.1
			L100.3,36.2L100.3,36.2z M100.4,33.2l-1.3-3.8h0L98,33.2H100.4z"/>
		<path d="M103.5,32.1c0-2.6,1.4-4.7,4-4.7c0.9,0,1.7,0.2,2.2,0.3V30h-0.5l-0.3-1.2c-0.1-0.5-0.5-0.8-1.5-0.8
			c-1.6,0-2.9,1.2-2.9,4.1c0,2.9,1.3,4.1,2.9,4.1c0.9,0,1.3-0.3,1.5-0.7l0.4-1.3h0.5l-0.3,2.2c-0.5,0.2-1.4,0.3-2.1,0.3
			C104.9,36.8,103.5,34.7,103.5,32.1z M107.3,38c0-0.3-0.3-0.4-0.9-0.6l0.2-0.5c1.1,0.2,1.5,0.5,1.5,1c0,0.7-0.6,1-1.8,1l-0.1-0.5
			C106.9,38.5,107.3,38.3,107.3,38z"/>
		<path d="M115,36.2l1-0.1l-0.8-2.2h-2.8l-0.6,2.2l0.9,0.2v0.5h-2.5v-0.5l0.9-0.2l2.2-7.5l-0.3-0.9h1.1l3,8.5l1,0.1v0.5H115V36.2z
			 M113.1,25.7c0.6,0,1.3,0.5,1.7,0.5c0.3,0,0.3-0.1,0.4-0.5h0.5c0,1-0.4,1.2-1,1.2s-1.3-0.5-1.7-0.5c-0.3,0-0.4,0.2-0.4,0.5H112
			C112.1,26.1,112.4,25.7,113.1,25.7z M115.1,33.2l-1.3-3.8h0l-1.1,3.8H115.1z"/>
		<path d="M118.2,32.1c0-2.6,1.4-4.7,3.5-4.7c2.2,0,3.5,2.1,3.5,4.7s-1.4,4.7-3.5,4.7C119.5,36.8,118.2,34.7,118.2,32.1z
			 M121.9,36.2c1.6,0,2.3-1.6,2.3-3.6c0-2.3-0.7-4.7-2.6-4.7c-1.6,0-2.3,1.6-2.3,3.6C119.3,33.8,119.9,36.2,121.9,36.2z"/>
	</g>
</g>
</svg>
