<?xml version="1.0" encoding="utf-8"?>
<!-- Generator: Adobe Illustrator 25.3.1, SVG Export Plug-In . SVG Version: 6.00 Build 0)  -->
<svg version="1.1" id="Layer_1" xmlns="http://www.w3.org/2000/svg" xmlns:xlink="http://www.w3.org/1999/xlink" x="0px" y="0px"
	 width="267px" height="40px" viewBox="0 0 267 40" style="enable-background:new 0 0 267 40;" xml:space="preserve">
<style type="text/css">
	.st0{fill:#3C3D3D;}
	.st1{fill:#006432;}
	.st2{fill:#E61E1E;}
	.st3{fill:#82B446;}
	.st4{fill:#FFAA00;}
	.st5{fill:#FFF500;}
	.st6{fill-rule:evenodd;clip-rule:evenodd;fill:#FFF500;}
	.st7{fill:#FFFFFF;}
	.st8{fill-rule:evenodd;clip-rule:evenodd;fill:#FFFFFF;}
	.st9{fill:#004682;}
</style>
<g>
	<rect x="140.3" y="0.5" class="st0" width="1.1" height="39"/>
	<polygon class="st0" points="154.2,22.7 154.2,17.5 157,17.5 157,18.4 155.2,18.4 155.2,19.6 156.9,19.6 156.9,20.5 155.2,20.5 
		155.2,21.9 157,21.9 157,22.7 	"/>
	<path class="st0" d="M159.4,22.7c-0.6,0-1,0-1.5,0v-5.2c0.4,0,1,0,1.7,0c1.6,0,2.6,0.7,2.6,2.5C162.3,21.8,161.1,22.7,159.4,22.7
		 M159.6,18.3c-0.2,0-0.4,0-0.6,0v3.5c0.1,0,0.4,0,0.6,0c1,0,1.7-0.6,1.7-1.8C161.2,19,160.8,18.3,159.6,18.3"/>
	<path class="st0" d="M165.1,22.8c-1.7,0-2-0.9-2-1.9v-3.4h1v3.3c0,0.7,0.2,1.1,1.1,1.1c0.8,0,1.1-0.3,1.1-1.2v-3.2h1v3.2
		C167.3,22.1,166.5,22.8,165.1,22.8"/>
	<path class="st0" d="M170.5,22.8c-1.8,0-2.4-1.2-2.4-2.5c0-1.7,0.9-2.8,2.6-2.8c0.4,0,0.8,0.1,1.1,0.2l-0.1,0.9
		c-0.3-0.1-0.7-0.2-1-0.2c-1,0-1.5,0.7-1.5,1.8c0,1.1,0.5,1.8,1.5,1.8c0.3,0,0.7-0.1,1-0.2l0.2,0.9C171.5,22.7,171,22.8,170.5,22.8"
		/>
	<path class="st0" d="M175.8,22.7l-0.4-1.1h-2l-0.4,1.1h-1l1.8-5.2h1.1l1.8,5.2H175.8z M174.7,19.4c-0.1-0.2-0.2-0.5-0.2-0.7
		c-0.1,0.2-0.1,0.5-0.2,0.7l-0.5,1.5h1.5L174.7,19.4z"/>
	<path class="st0" d="M179.5,22.8c-1.8,0-2.4-1.2-2.4-2.5c0-1.7,0.9-2.8,2.6-2.8c0.4,0,0.8,0.1,1.1,0.2l-0.1,0.9
		c-0.3-0.1-0.7-0.2-1-0.2c-1,0-1.5,0.7-1.5,1.8c0,1.1,0.5,1.8,1.5,1.8c0.3,0,0.7-0.1,1-0.2l0.2,0.9C180.5,22.7,180,22.8,179.5,22.8
		 M179.5,24.5h-0.7c0.4-0.4,0.4-0.8,0.1-1.2l0.8-0.2C180,23.6,179.9,24.1,179.5,24.5"/>
	<path class="st0" d="M184.9,22.7l-0.4-1.1h-2l-0.4,1.1h-1l1.8-5.2h1.1l1.8,5.2H184.9z M184,17.1c-0.5,0-0.7-0.4-1-0.4
		c-0.2,0-0.3,0.1-0.4,0.3l-0.5-0.3c0.2-0.4,0.6-0.6,1-0.6c0.5,0,0.7,0.4,1,0.4c0.2,0,0.3-0.1,0.4-0.3l0.5,0.3
		C184.7,16.9,184.4,17.1,184,17.1 M183.7,19.4c-0.1-0.2-0.2-0.5-0.2-0.7c-0.1,0.2-0.1,0.5-0.2,0.7l-0.5,1.5h1.5L183.7,19.4z"/>
	<path class="st0" d="M188.5,22.8c-1.6,0-2.4-1-2.4-2.6c0-1.7,1.2-2.8,2.5-2.8s2.4,0.8,2.4,2.6C191,21.7,189.9,22.8,188.5,22.8
		 M188.5,18.3c-0.7,0-1.4,0.6-1.4,1.7c0,1.1,0.4,1.8,1.4,1.8c0.7,0,1.4-0.5,1.4-1.8C189.9,18.9,189.4,18.3,188.5,18.3"/>
	<path class="st0" d="M191.6,24l-0.4-0.4c0.5-0.5,0.6-0.9,0.3-1.2c-0.3-0.4-0.1-0.9,0.5-0.9C192.7,21.6,193,22.8,191.6,24"/>
	<path class="st0" d="M197.4,22.8c-1.8,0-2.4-1.2-2.4-2.5c0-1.7,0.9-2.8,2.6-2.8c0.4,0,0.8,0.1,1.1,0.2l-0.1,0.9
		c-0.3-0.1-0.7-0.2-1-0.2c-1,0-1.5,0.7-1.5,1.8c0,1.1,0.5,1.8,1.5,1.8c0.3,0,0.7-0.1,1-0.2l0.2,0.9
		C198.3,22.7,197.8,22.8,197.4,22.8"/>
	<rect x="199.6" y="17.5" class="st0" width="1" height="5.2"/>
	<path class="st0" d="M201.7,22.7v-5.2h2.8v0.9h-1.8v1.3h1.7v0.8h-1.7v1.4h1.8v0.9H201.7z M204.1,17.2l-1-0.5l-1,0.5l-0.2-0.5
		l1.3-0.7l1.3,0.7L204.1,17.2z"/>
	<path class="st0" d="M208.5,22.7l-1.5-2.6c-0.2-0.4-0.4-0.8-0.6-1.1c0,0.4,0.1,1.3,0.1,1.9v1.8h-1v-5.2h1.3l1.5,2.5
		c0.2,0.4,0.4,0.8,0.6,1.2c0-0.5-0.1-1.5-0.1-2.1v-1.6h1v5.2H208.5z"/>
	<path class="st0" d="M213,22.8c-1.8,0-2.4-1.2-2.4-2.5c0-1.7,0.9-2.8,2.6-2.8c0.4,0,0.8,0.1,1.1,0.2l-0.1,0.9
		c-0.3-0.1-0.7-0.2-1-0.2c-1,0-1.5,0.7-1.5,1.8c0,1.1,0.5,1.8,1.5,1.8c0.3,0,0.7-0.1,1-0.2l0.2,0.9C214,22.7,213.5,22.8,213,22.8"/>
	<rect x="215.3" y="17.5" class="st0" width="1" height="5.2"/>
	<path class="st0" d="M220.5,22.7l-0.4-1.1h-2l-0.4,1.1h-1l1.8-5.2h1.1l1.8,5.2H220.5z M219.4,19.4c-0.1-0.2-0.2-0.5-0.2-0.7
		c-0.1,0.2-0.1,0.5-0.2,0.7l-0.5,1.5h1.5L219.4,19.4z"/>
	<polygon class="st0" points="223.9,22.7 223.9,17.5 226.7,17.5 226.7,18.4 224.9,18.4 224.9,19.6 226.6,19.6 226.6,20.5 
		224.9,20.5 224.9,21.9 226.7,21.9 226.7,22.7 	"/>
	<rect x="229.3" y="17.5" class="st0" width="1" height="5.2"/>
	<path class="st0" d="M234.6,22.7l-1.5-2.6c-0.2-0.4-0.4-0.8-0.6-1.1c0,0.4,0.1,1.3,0.1,1.9v1.8h-1v-5.2h1.3l1.5,2.5
		c0.2,0.4,0.4,0.8,0.6,1.2c0-0.5-0.1-1.5-0.1-2.1v-1.6h1v5.2H234.6z"/>
	<path class="st0" d="M239,22.8c-1.6,0-2.4-1-2.4-2.6c0-1.7,1.2-2.8,2.5-2.8s2.4,0.8,2.4,2.6C241.6,21.7,240.5,22.8,239,22.8
		 M239.1,18.3c-0.7,0-1.4,0.6-1.4,1.7c0,1.1,0.4,1.8,1.4,1.8c0.7,0,1.4-0.5,1.4-1.8C240.5,18.9,240,18.3,239.1,18.3"/>
	<path class="st0" d="M244.6,22.7h-1.2l-1.8-5.2h1.1l1,3.1c0.1,0.3,0.2,0.7,0.3,1h0c0.1-0.3,0.2-0.7,0.3-1.1l1-3h1L244.6,22.7z"/>
	<path class="st0" d="M249.8,22.7l-0.4-1.1h-2l-0.4,1.1h-1l1.8-5.2h1.1l1.8,5.2H249.8z M248.6,19.4c-0.1-0.2-0.2-0.5-0.2-0.7
		c-0.1,0.2-0.1,0.5-0.2,0.7l-0.5,1.5h1.5L248.6,19.4z"/>
	<path class="st0" d="M253.5,22.8c-1.8,0-2.4-1.2-2.4-2.5c0-1.7,0.9-2.8,2.6-2.8c0.4,0,0.8,0.1,1.1,0.2l-0.1,0.9
		c-0.3-0.1-0.7-0.2-1-0.2c-1,0-1.5,0.7-1.5,1.8c0,1.1,0.5,1.8,1.5,1.8c0.3,0,0.7-0.1,1-0.2l0.2,0.9C254.4,22.7,254,22.8,253.5,22.8
		 M253.4,24.5h-0.7c0.4-0.4,0.4-0.8,0.1-1.2l0.8-0.2C254,23.6,253.9,24.1,253.4,24.5"/>
	<path class="st0" d="M258.8,22.7l-0.4-1.1h-2l-0.4,1.1h-1l1.8-5.2h1.1l1.8,5.2H258.8z M257.9,17.1c-0.5,0-0.7-0.4-1-0.4
		c-0.2,0-0.3,0.1-0.4,0.3l-0.5-0.3c0.2-0.4,0.6-0.6,1-0.6c0.5,0,0.7,0.4,1,0.4c0.2,0,0.3-0.1,0.4-0.3l0.5,0.3
		C258.6,16.9,258.3,17.1,257.9,17.1 M257.7,19.4c-0.1-0.2-0.2-0.5-0.2-0.7c-0.1,0.2-0.1,0.5-0.2,0.7l-0.5,1.5h1.5L257.7,19.4z"/>
	<path class="st0" d="M262.4,22.8c-1.6,0-2.4-1-2.4-2.6c0-1.7,1.2-2.8,2.5-2.8c1.4,0,2.4,0.8,2.4,2.6
		C264.9,21.7,263.8,22.8,262.4,22.8 M262.5,18.3c-0.7,0-1.4,0.6-1.4,1.7c0,1.1,0.4,1.8,1.4,1.8c0.7,0,1.4-0.5,1.4-1.8
		C263.9,18.9,263.4,18.3,262.5,18.3"/>
	<path class="st0" d="M43.9,19.7l-2.6-4.2H41v3.1c0.4,0,0.7,0.1,1,0.2v1h-3.8v-0.9c0.2-0.1,0.4-0.1,0.6-0.1c0.2,0,0.4-0.1,0.6-0.1
		v-7.4c-0.2,0-0.4-0.1-0.6-0.1c-0.2,0-0.4-0.1-0.6-0.1V10h1.5c0.2,0,0.4,0,0.6,0c0.2,0,0.5,0,0.8,0H42c0.5,0,1,0.1,1.4,0.1
		c0.4,0.1,0.8,0.2,1.1,0.4c0.3,0.2,0.5,0.5,0.7,0.8c0.2,0.3,0.2,0.7,0.2,1.2c0,0.4-0.1,0.7-0.2,1c-0.1,0.3-0.3,0.6-0.5,0.8
		c-0.2,0.2-0.5,0.4-0.8,0.6c-0.3,0.1-0.7,0.2-1,0.3c0.1,0.1,0.2,0.2,0.3,0.4c0.1,0.1,0.2,0.3,0.3,0.4l1.7,2.5c0.2,0,0.3,0.1,0.5,0.1
		c0.2,0,0.4,0.1,0.6,0.1v1L43.9,19.7z M43.3,11.6c-0.3-0.2-0.8-0.4-1.5-0.4h-0.4c-0.1,0-0.3,0-0.4,0v3.1c0.1,0,0.2,0,0.3,0h0.4
		c0.6,0,1.1-0.1,1.5-0.4c0.4-0.3,0.5-0.7,0.5-1.2C43.8,12.2,43.6,11.8,43.3,11.6"/>
	<path class="st0" d="M46.8,19.7v-0.9c0.2-0.1,0.4-0.1,0.6-0.1c0.2,0,0.4-0.1,0.6-0.1v-7.4c-0.2,0-0.4-0.1-0.6-0.1
		c-0.2,0-0.4-0.1-0.6-0.1V10h6.4v2.3H52c0-0.2-0.1-0.4-0.1-0.6c0-0.2-0.1-0.4-0.1-0.5h-2.3v2.9h1.8c0-0.2,0.1-0.3,0.1-0.5
		c0-0.1,0.1-0.3,0.1-0.4h1v2.9h-1c-0.1-0.1-0.1-0.3-0.1-0.4c0-0.2-0.1-0.3-0.1-0.4h-1.8v3.1h2.3c0-0.2,0.1-0.4,0.1-0.6
		c0-0.2,0.1-0.4,0.1-0.6h1.1v2.4L46.8,19.7L46.8,19.7z"/>
	<path class="st0" d="M61.4,14.1c-0.2,0.4-0.4,0.7-0.8,1c-0.3,0.3-0.7,0.5-1.2,0.7c-0.5,0.2-1,0.2-1.5,0.2h-0.3c-0.1,0-0.2,0-0.4,0
		v2.4c0.2,0,0.4,0.1,0.6,0.1c0.2,0,0.4,0.1,0.6,0.1v0.9h-4v-0.9c0.2-0.1,0.4-0.1,0.6-0.1c0.2,0,0.4-0.1,0.6-0.1v-7.4
		c-0.2,0-0.4-0.1-0.6-0.1c-0.2,0-0.4-0.1-0.6-0.1V10H56c0.2,0,0.4,0,0.7,0c0.2,0,0.5,0,0.7,0h0.8c1.2,0,2,0.2,2.6,0.8
		c0.6,0.5,0.9,1.2,0.9,2.1C61.7,13.3,61.6,13.8,61.4,14.1 M59.6,11.7c-0.3-0.3-0.9-0.5-1.5-0.5h-0.4c-0.1,0-0.2,0-0.4,0v3.5
		c0.1,0,0.2,0,0.3,0.1c0.1,0,0.2,0,0.3,0c0.7,0,1.2-0.2,1.6-0.5C59.8,14,60,13.6,60,13S59.9,12,59.6,11.7"/>
	<path class="st0" d="M70.8,11.1V16c0,1.3-0.3,2.3-1,2.9c-0.7,0.6-1.6,0.9-2.9,0.9c-0.8,0-1.4-0.1-1.9-0.3c-0.5-0.2-0.9-0.4-1.1-0.8
		c-0.3-0.3-0.4-0.7-0.6-1.1c-0.1-0.4-0.1-0.8-0.1-1.3v-5.2L62.7,11c-0.2,0-0.3-0.1-0.5-0.1v-1h3.6v1C65.7,11,65.5,11,65.3,11
		c-0.2,0-0.4,0.1-0.6,0.1v5.1c0,0.3,0,0.6,0.1,0.9c0.1,0.3,0.2,0.5,0.3,0.7c0.2,0.2,0.4,0.4,0.7,0.5c0.3,0.1,0.7,0.2,1.1,0.2
		c0.4,0,0.7-0.1,1-0.1c0.3-0.1,0.5-0.2,0.7-0.4c0.2-0.2,0.3-0.4,0.4-0.8c0.1-0.3,0.1-0.7,0.1-1.2v-4.9c-0.2,0-0.4,0-0.6-0.1
		c-0.2,0-0.4-0.1-0.5-0.1v-1h3.6v1C71.5,11,71.1,11.1,70.8,11.1 M66.8,9.3l-0.6-0.9l2.3-1.6l0.7,1L66.8,9.3z"/>
	<path class="st0" d="M80.2,17.7c-0.1,0.4-0.3,0.7-0.6,1c-0.3,0.3-0.7,0.5-1.2,0.7c-0.5,0.2-1.1,0.3-1.8,0.3c-0.3,0-0.7,0-1.1,0
		c-0.5,0-1,0-1.5,0h-1.2v-0.9c0.2-0.1,0.4-0.1,0.6-0.1c0.2,0,0.4-0.1,0.6-0.1v-7.4c-0.2,0-0.4-0.1-0.6-0.1c-0.2,0-0.4-0.1-0.6-0.1
		V10H74c0.4,0,0.8,0,1.4,0c0.6,0,1.1,0,1.7,0c1,0,1.8,0.2,2.4,0.6c0.5,0.4,0.8,1,0.8,1.7c0,0.5-0.1,0.9-0.4,1.3
		c-0.3,0.4-0.7,0.7-1.2,0.9v0c0.3,0.1,0.6,0.2,0.8,0.3c0.2,0.1,0.4,0.3,0.6,0.5c0.1,0.2,0.2,0.4,0.3,0.7c0.1,0.2,0.1,0.5,0.1,0.7
		C80.4,17.1,80.3,17.4,80.2,17.7 M78.5,12c-0.1-0.2-0.2-0.3-0.3-0.4c-0.1-0.1-0.3-0.2-0.6-0.3c-0.2-0.1-0.5-0.1-0.9-0.1h-0.6
		c-0.2,0-0.4,0-0.6,0v2.9c0.1,0,0.2,0,0.4,0h0.4c0.7,0,1.3-0.1,1.7-0.4c0.4-0.3,0.6-0.7,0.6-1.2C78.6,12.4,78.5,12.2,78.5,12
		 M78.6,16.1c-0.1-0.2-0.3-0.4-0.5-0.5c-0.2-0.1-0.4-0.2-0.7-0.2c-0.3-0.1-0.6-0.1-0.9-0.1h-0.9v3.1c0.3,0.1,0.6,0.1,1.1,0.1
		c0.7,0,1.2-0.2,1.6-0.5c0.3-0.3,0.5-0.7,0.5-1.2C78.8,16.5,78.7,16.3,78.6,16.1"/>
	<path class="st0" d="M81.5,19.7v-0.9c0.2-0.1,0.4-0.1,0.6-0.1c0.2,0,0.4-0.1,0.6-0.1v-7.4c-0.2,0-0.4-0.1-0.6-0.1
		c-0.2,0-0.4-0.1-0.6-0.1V10h4v0.9C85.4,11,85.2,11,85,11c-0.2,0-0.4,0.1-0.6,0.1v7.2h2.2c0.1-0.4,0.1-0.8,0.2-1.2h1.1v2.5H81.5z"/>
	<path class="st0" d="M88.4,19.7v-0.9c0.2-0.1,0.4-0.1,0.6-0.1c0.2,0,0.4-0.1,0.6-0.1v-7.4c-0.2,0-0.4-0.1-0.6-0.1
		c-0.2,0-0.4-0.1-0.6-0.1V10h4v0.9C92.2,11,92,11,91.8,11c-0.2,0-0.4,0.1-0.6,0.1v7.4c0.2,0,0.4,0.1,0.6,0.1c0.2,0,0.4,0.1,0.6,0.1
		v0.9H88.4z"/>
	<path class="st0" d="M99.3,12.7c-0.1-0.2-0.1-0.5-0.1-0.7c0-0.2-0.1-0.4-0.1-0.6c-0.2-0.1-0.4-0.1-0.6-0.1c-0.2,0-0.4,0-0.6,0
		c-0.5,0-0.9,0.1-1.2,0.3c-0.3,0.2-0.6,0.4-0.9,0.7c-0.2,0.3-0.4,0.7-0.5,1.1c-0.1,0.4-0.2,0.9-0.2,1.4c0,0.5,0.1,1,0.2,1.5
		c0.1,0.4,0.3,0.8,0.6,1.1c0.2,0.3,0.6,0.5,1,0.7c0.4,0.2,0.9,0.2,1.5,0.2c0.4,0,0.7,0,1.1-0.1c0.4-0.1,0.7-0.2,1-0.3l0.1,1.4
		c-0.4,0.1-0.8,0.2-1.3,0.3c-0.4,0.1-0.9,0.1-1.3,0.1c-1.5,0-2.6-0.4-3.4-1.2c-0.8-0.8-1.1-2-1.1-3.4c0-0.8,0.1-1.5,0.3-2.1
		c0.2-0.6,0.5-1.2,0.9-1.7c0.4-0.5,0.9-0.8,1.5-1.1c0.6-0.2,1.3-0.4,2.1-0.4c0.4,0,0.7,0,1.1,0.1c0.4,0.1,0.8,0.1,1.1,0.2v2.6
		L99.3,12.7L99.3,12.7z"/>
	<path class="st0" d="M107.4,19.7v-0.9c0.2,0,0.3-0.1,0.5-0.1c0.2,0,0.4-0.1,0.6-0.1l-0.5-1.3h-3.8l-0.5,1.3c0.2,0,0.4,0.1,0.6,0.1
		c0.2,0,0.4,0.1,0.5,0.1v0.9h-3.5v-0.9c0.1,0,0.2-0.1,0.4-0.1c0.2,0,0.3-0.1,0.4-0.1l3.1-8.6h1.9l3.1,8.6c0.1,0,0.3,0,0.4,0.1
		l0.4,0.1v0.9H107.4z M106.5,13l-0.2-0.7c-0.1-0.2-0.1-0.5-0.2-0.8h0c-0.1,0.2-0.1,0.5-0.2,0.8c-0.1,0.2-0.2,0.5-0.2,0.8l-1,2.9h3
		L106.5,13z"/>
	<path class="st0" d="M45.2,26.3c-0.2,0.4-0.4,0.7-0.8,1c-0.3,0.3-0.7,0.5-1.2,0.7c-0.5,0.2-1,0.2-1.5,0.2h-0.3c-0.1,0-0.2,0-0.4,0
		v2.4c0.2,0,0.4,0.1,0.6,0.1c0.2,0,0.4,0.1,0.6,0.1v0.9h-4v-0.9c0.2-0.1,0.4-0.1,0.6-0.1c0.2,0,0.4-0.1,0.6-0.1v-7.4
		c-0.2,0-0.4-0.1-0.6-0.1c-0.2,0-0.4-0.1-0.6-0.1v-0.9h1.6c0.2,0,0.4,0,0.7,0c0.2,0,0.5,0,0.7,0h0.8c1.2,0,2,0.2,2.6,0.8
		c0.6,0.5,0.9,1.2,0.9,2.1C45.5,25.4,45.4,25.9,45.2,26.3 M43.4,23.8c-0.3-0.3-0.9-0.5-1.5-0.5h-0.4c-0.1,0-0.2,0-0.4,0v3.5
		c0.1,0,0.2,0,0.3,0.1c0.1,0,0.2,0,0.3,0c0.7,0,1.2-0.2,1.6-0.5c0.4-0.3,0.6-0.8,0.6-1.3C43.9,24.5,43.7,24.1,43.4,23.8"/>
	<path class="st0" d="M54.9,29c-0.2,0.6-0.6,1.2-1,1.6c-0.4,0.4-0.9,0.8-1.5,1c-0.6,0.2-1.2,0.3-1.8,0.3c-0.7,0-1.4-0.1-1.9-0.3
		c-0.6-0.2-1-0.6-1.3-1c-0.4-0.4-0.6-0.9-0.8-1.5c-0.2-0.6-0.3-1.3-0.3-2c0-0.8,0.1-1.5,0.4-2.1c0.2-0.6,0.6-1.2,1-1.6
		c0.4-0.4,0.9-0.8,1.5-1c0.6-0.2,1.2-0.3,1.8-0.3c0.7,0,1.2,0.1,1.8,0.3c0.5,0.2,1,0.5,1.4,0.9c0.4,0.4,0.7,0.9,0.9,1.5
		c0.2,0.6,0.3,1.3,0.3,2.1C55.3,27.6,55.1,28.3,54.9,29 M52.9,24.3c-0.5-0.6-1.2-0.9-2.1-0.9c-0.4,0-0.7,0.1-1.1,0.2
		c-0.3,0.1-0.7,0.4-0.9,0.7c-0.2,0.3-0.5,0.7-0.6,1.1c-0.2,0.4-0.2,1-0.2,1.5c0,0.6,0.1,1,0.2,1.5c0.1,0.4,0.3,0.9,0.5,1.2
		c0.2,0.3,0.5,0.6,0.9,0.7c0.4,0.2,0.8,0.3,1.2,0.3c0.4,0,0.7-0.1,1-0.2c0.4-0.1,0.7-0.4,0.9-0.7c0.3-0.3,0.5-0.7,0.7-1.1
		c0.2-0.4,0.2-1,0.2-1.6C53.6,25.8,53.4,24.9,52.9,24.3"/>
	<path class="st0" d="M61.8,31.8l-2.6-4.2h-0.2v3.1c0.4,0,0.7,0.1,1,0.2v1h-3.8v-0.9c0.2-0.1,0.4-0.1,0.6-0.1c0.2,0,0.4-0.1,0.6-0.1
		v-7.4c-0.2,0-0.4-0.1-0.6-0.1c-0.2,0-0.4-0.1-0.6-0.1v-0.9h1.5c0.2,0,0.4,0,0.6,0c0.2,0,0.5,0,0.8,0H60c0.5,0,1,0.1,1.4,0.1
		c0.4,0.1,0.8,0.2,1.1,0.4c0.3,0.2,0.5,0.5,0.7,0.8c0.2,0.3,0.2,0.7,0.2,1.2c0,0.4-0.1,0.7-0.2,1c-0.1,0.3-0.3,0.6-0.5,0.8
		c-0.2,0.2-0.5,0.4-0.8,0.6c-0.3,0.1-0.7,0.2-1,0.3c0.1,0.1,0.2,0.2,0.3,0.4c0.1,0.1,0.2,0.3,0.3,0.4l1.7,2.5c0.2,0,0.3,0.1,0.5,0.1
		c0.2,0,0.4,0.1,0.6,0.1v1L61.8,31.8z M61.2,23.7c-0.3-0.2-0.8-0.4-1.5-0.4h-0.4c-0.1,0-0.3,0-0.4,0v3.1c0.1,0,0.2,0,0.3,0h0.4
		c0.6,0,1.1-0.1,1.5-0.4c0.4-0.3,0.5-0.7,0.5-1.2C61.7,24.3,61.6,23.9,61.2,23.7"/>
	<path class="st0" d="M71.2,24.7c-0.1-0.2-0.1-0.5-0.1-0.7c0-0.2-0.1-0.4-0.1-0.6h-1.7v7.2c0.2,0,0.4,0.1,0.6,0.1
		c0.2,0,0.4,0.1,0.6,0.1v0.9h-4v-0.9c0.2-0.1,0.4-0.1,0.6-0.1c0.2,0,0.4-0.1,0.6-0.1v-7.2h-1.8L65.8,24c0,0.2-0.1,0.4-0.1,0.7h-1.1
		v-2.6h7.7v2.6H71.2z"/>
	<path class="st0" d="M81.5,23.2v4.8c0,1.3-0.3,2.3-1,2.9c-0.7,0.6-1.6,0.9-2.9,0.9c-0.8,0-1.4-0.1-1.9-0.3
		c-0.5-0.2-0.9-0.4-1.1-0.8c-0.3-0.3-0.4-0.7-0.6-1.1c-0.1-0.4-0.1-0.8-0.1-1.3v-5.2l-0.5-0.1c-0.2,0-0.3-0.1-0.5-0.1v-1h3.6v1
		c-0.2,0.1-0.4,0.1-0.5,0.1c-0.2,0-0.4,0.1-0.6,0.1v5.1c0,0.3,0,0.6,0.1,0.9c0.1,0.3,0.2,0.5,0.3,0.7c0.2,0.2,0.4,0.4,0.7,0.5
		c0.3,0.1,0.7,0.2,1.1,0.2c0.4,0,0.7-0.1,1-0.1c0.3-0.1,0.5-0.2,0.7-0.4c0.2-0.2,0.3-0.4,0.4-0.8c0.1-0.3,0.1-0.7,0.1-1.2v-4.9
		c-0.2,0-0.4,0-0.5-0.1c-0.2,0-0.4-0.1-0.5-0.1v-1h3.6v1C82.1,23.2,81.8,23.2,81.5,23.2"/>
	<path class="st0" d="M91.9,27.9c-0.1,0-0.3,0.1-0.4,0.1v3.4c-0.5,0.2-1,0.3-1.6,0.4c-0.6,0.1-1.1,0.1-1.7,0.1c-0.7,0-1.4-0.1-2-0.3
		c-0.6-0.2-1.1-0.5-1.5-0.9c-0.4-0.4-0.7-0.9-1-1.5c-0.2-0.6-0.3-1.3-0.3-2c0-0.7,0.1-1.5,0.4-2.1c0.2-0.6,0.6-1.2,1-1.7
		c0.4-0.5,1-0.8,1.7-1.1c0.7-0.2,1.4-0.4,2.2-0.4c0.4,0,0.9,0,1.3,0.1c0.4,0.1,0.9,0.1,1.3,0.2v2.4h-1.2c-0.1-0.2-0.1-0.4-0.1-0.6
		c0-0.2-0.1-0.4-0.1-0.6c-0.2-0.1-0.5-0.1-0.7-0.1c-0.2,0-0.5-0.1-0.7-0.1c-0.5,0-0.9,0.1-1.4,0.2c-0.4,0.2-0.8,0.4-1.1,0.7
		c-0.3,0.3-0.6,0.7-0.7,1.2c-0.2,0.5-0.3,1-0.3,1.6c0,1.1,0.3,2,0.9,2.6c0.6,0.6,1.4,0.9,2.5,0.9c0.3,0,0.6,0,0.8-0.1
		c0.2,0,0.5-0.1,0.7-0.2v-2.4c-0.2,0-0.4-0.1-0.6-0.1c-0.2,0-0.4-0.1-0.6-0.1v-0.9h3.6v1C92.2,27.8,92,27.8,91.9,27.9"/>
	<path class="st0" d="M101.6,23.2v4.8c0,1.3-0.3,2.3-1,2.9c-0.7,0.6-1.6,0.9-2.9,0.9c-0.8,0-1.4-0.1-1.9-0.3
		c-0.5-0.2-0.9-0.4-1.1-0.8c-0.3-0.3-0.4-0.7-0.6-1.1C94,29.3,94,28.9,94,28.5v-5.2l-0.5-0.1c-0.2,0-0.3-0.1-0.5-0.1v-1h3.6v1
		c-0.2,0.1-0.4,0.1-0.5,0.1c-0.2,0-0.4,0.1-0.6,0.1v5.1c0,0.3,0,0.6,0.1,0.9c0.1,0.3,0.2,0.5,0.3,0.7c0.2,0.2,0.4,0.4,0.7,0.5
		c0.3,0.1,0.7,0.2,1.1,0.2c0.4,0,0.7-0.1,1-0.1c0.3-0.1,0.5-0.2,0.7-0.4c0.2-0.2,0.3-0.4,0.4-0.8c0.1-0.3,0.1-0.7,0.1-1.2v-4.9
		c-0.2,0-0.4,0-0.5-0.1c-0.2,0-0.4-0.1-0.5-0.1v-1h3.6v1C102.2,23.2,101.9,23.2,101.6,23.2"/>
	<path class="st0" d="M103.5,31.8v-0.9c0.2-0.1,0.4-0.1,0.6-0.1c0.2,0,0.4-0.1,0.6-0.1v-7.4c-0.2,0-0.4-0.1-0.6-0.1
		c-0.2,0-0.4-0.1-0.6-0.1v-0.9h6.4v2.3h-1.1c0-0.2-0.1-0.4-0.1-0.6c0-0.2-0.1-0.4-0.1-0.5h-2.3v2.9h1.8c0-0.2,0.1-0.3,0.1-0.5
		c0-0.1,0.1-0.3,0.1-0.4h1v2.9h-1c-0.1-0.1-0.1-0.3-0.1-0.4c0-0.2-0.1-0.3-0.1-0.4h-1.8v3.1h2.3c0-0.2,0.1-0.4,0.1-0.6
		c0-0.2,0.1-0.4,0.1-0.6h1.1v2.4L103.5,31.8L103.5,31.8z"/>
	<path class="st0" d="M117.1,30.1c-0.2,0.4-0.4,0.7-0.7,1c-0.3,0.3-0.7,0.5-1.2,0.6c-0.4,0.2-1,0.2-1.5,0.2c-0.8,0-1.5-0.1-2.1-0.2
		v-2.4h1.2c0,0.2,0.1,0.4,0.1,0.6l0.1,0.6c0.1,0,0.3,0.1,0.4,0.1c0.2,0,0.3,0,0.4,0c0.3,0,0.5,0,0.8-0.1c0.2-0.1,0.4-0.1,0.6-0.3
		c0.2-0.1,0.3-0.3,0.4-0.5c0.1-0.2,0.1-0.4,0.1-0.7c0-0.3-0.1-0.6-0.3-0.8c-0.2-0.2-0.5-0.4-0.8-0.5c-0.3-0.1-0.7-0.3-1-0.4
		c-0.4-0.1-0.7-0.3-1-0.5c-0.3-0.2-0.6-0.5-0.8-0.8c-0.2-0.3-0.3-0.7-0.3-1.3c0-0.4,0.1-0.8,0.2-1.1c0.2-0.3,0.4-0.6,0.7-0.9
		c0.3-0.2,0.7-0.4,1.1-0.6c0.4-0.1,0.9-0.2,1.5-0.2c0.3,0,0.7,0,1,0.1c0.3,0,0.6,0.1,1,0.1v2.3h-1.2c-0.1-0.2-0.1-0.4-0.1-0.6
		c0-0.2-0.1-0.4-0.1-0.6c-0.1,0-0.2,0-0.3-0.1c-0.1,0-0.2,0-0.4,0c-0.6,0-1.1,0.1-1.3,0.4c-0.3,0.2-0.4,0.6-0.4,1
		c0,0.3,0.1,0.6,0.3,0.8c0.2,0.2,0.5,0.4,0.8,0.5c0.3,0.1,0.7,0.3,1,0.4c0.4,0.1,0.7,0.3,1,0.5c0.3,0.2,0.6,0.5,0.8,0.8
		c0.2,0.3,0.3,0.7,0.3,1.2C117.4,29.3,117.3,29.7,117.1,30.1"/>
	<path class="st0" d="M124,31.8v-0.9c0.2,0,0.3-0.1,0.5-0.1c0.2,0,0.4-0.1,0.6-0.1l-0.5-1.3h-3.8l-0.5,1.3c0.2,0,0.4,0.1,0.6,0.1
		c0.2,0,0.4,0.1,0.5,0.1v0.9h-3.5v-0.9c0.1,0,0.2-0.1,0.4-0.1c0.2,0,0.3-0.1,0.4-0.1l3.1-8.6h1.9l3.1,8.6c0.1,0,0.3,0,0.4,0.1
		l0.4,0.1v0.9H124z M123.1,25.2l-0.2-0.7c-0.1-0.2-0.1-0.5-0.2-0.8h0c-0.1,0.2-0.1,0.5-0.2,0.8c-0.1,0.2-0.2,0.5-0.2,0.8l-1,2.9h3
		L123.1,25.2z"/>
	<path class="st1" d="M13.3,0.5C5.4,3,1.3,9.8,1.3,20.2V36c0,0,1.3-10.1,12-13.1V0.5z"/>
	<path class="st2" d="M14.2,3.5c0,0,6-2.3,14.6-2.8c0,0,0,7.2-0.3,13c-0.7,18.4-17.2,9-25.3,18.8c1.6-4.2,7.1-7.3,10.9-8V3.5z"/>
	<path class="st1" d="M12,29.8c0,0-8.8,0.7-9.5,5.7c-0.6,3.9,9.5,4,9.5,4V29.8z"/>
	<path class="st3" d="M1.7,15.1c1.8-4.2,4.9-8.6,11.6-11.3V0.5C6.7,2.6,2.9,7.6,1.7,15.1"/>
	<path class="st4" d="M7.1,10.5L7.1,10.5C7.1,10.5,7.1,10.5,7.1,10.5L7.1,10.5C7.1,10.5,7.1,10.5,7.1,10.5L7.1,10.5
		C7.1,10.5,7.1,10.5,7.1,10.5C7.1,10.5,7.1,10.5,7.1,10.5L7.1,10.5C7.1,10.5,7.1,10.5,7.1,10.5c0.1,0,0.2,0,0.2,0h0c0,0,0.1,0,0.1,0
		c0,0,0,0,0,0l0,0c0,0,0.1,0,0.1,0c0,0,0,0,0,0c0,0,0.1,0,0.1,0c0,0,0,0,0,0h0c0,0,0.1,0,0.1,0c0.1,0,0.2,0.1,0.3,0.1c0,0,0,0,0,0
		c0,0,0,0,0,0c0,0,0,0,0,0c0,0,0,0,0,0c0,0,0.1,0,0.1,0c0,0,0,0,0,0c0,0,0,0,0,0c0,0,0,0,0,0c0,0,0,0,0,0c0,0,0,0,0,0c0,0,0,0,0,0
		c0,0,0,0,0,0c0,0,0,0,0,0c0,0,0,0,0,0c0,0,0,0,0,0c0,0,0,0,0.1,0c0,0,0,0,0,0c0,0,0,0,0,0c0,0,0,0,0,0c0,0,0,0,0,0c0,0,0,0,0,0
		c0,0,0,0,0.1,0v-0.4c-0.1,0-0.1,0-0.2,0c-0.1,0-0.1,0-0.2,0c0,0,0,0-0.1,0c0,0,0,0,0,0c0,0,0,0,0,0c0,0,0,0,0,0c0,0,0,0,0,0
		c0,0,0,0,0,0c0,0,0,0,0,0c-0.1,0-0.3-0.1-0.4-0.1h0c0,0,0,0,0,0c0,0,0,0,0,0c0,0,0,0,0,0c0,0,0,0,0,0c0,0,0,0,0,0c0,0,0,0,0,0
		c0,0,0,0,0,0c0,0,0,0,0,0c0,0,0,0,0,0c0,0,0,0,0,0c0,0,0,0,0,0c0,0,0,0,0,0c0,0,0.1,0,0.1,0v0c0,0,0,0,0.1,0h0
		c0.2-0.1,0.5-0.1,0.7-0.2V9.8c0,0,0,0,0,0c0,0,0,0,0,0V9.6C8.7,9.7,8.5,9.8,8.4,9.9c-0.3,0.1-0.6,0.2-0.8,0.3
		c1.3-1.7,3.3-2.8,5.6-3l0-0.2c-2.5,0.2-4.6,1.4-5.9,3.3c-0.1,0-0.2,0-0.3,0.1c0,0,0,0,0,0l-0.1,0.2c0,0,0,0.1,0,0.1
		C6.9,10.6,7,10.5,7.1,10.5 M7.5,10.3C7.5,10.3,7.5,10.3,7.5,10.3C7.5,10.3,7.5,10.3,7.5,10.3 M13.1,7.8C11.8,8,10.5,8.5,9.5,9.2
		H9.2c1.1-0.9,2.5-1.5,3.9-1.6L13.1,7.8z M6.3,11.8c0-0.1,0-0.1,0-0.1l0.1-0.2c0,0,0,0,0,0c0,0,0.1,0,0.1,0h0c0,0,0,0,0,0
		c0.1,0,0.1,0,0.2,0c0.1,0,0.3,0.1,0.5,0.1c0.1,0,0.1,0,0.2,0.1c0,0,0,0,0.1,0c0,0,0,0,0,0c0,0,0,0,0,0c0,0,0,0,0,0l0,0c0,0,0,0,0,0
		h0c0,0,0,0,0,0h0c0,0,0,0,0,0c0,0,0,0,0,0c0,0,0,0,0,0h0c0,0,0,0,0,0h0c0,0,0,0,0,0c0,0,0,0,0,0c0,0,0,0,0,0h0c0,0,0,0,0,0
		c0,0,0,0,0,0c0,0,0,0,0,0c0,0,0,0,0,0c0,0,0,0,0,0c0,0,0,0,0,0c0,0,0,0,0,0c0,0,0,0,0,0c0,0,0,0,0,0c0,0,0,0,0,0c0,0,0,0,0,0
		c0,0,0,0,0,0c0,0,0,0,0,0c0,0,0,0,0,0c0,0,0,0,0,0c0,0,0,0,0,0c0,0,0,0,0,0c0,0,0,0,0,0c0,0,0,0,0,0c0,0,0,0,0,0c0,0,0,0,0,0
		c0,0,0,0,0,0c0,0,0,0,0,0c0,0,0,0,0,0c0,0,0,0,0,0c0,0,0,0,0,0c0,0,0,0,0,0c0,0,0,0,0,0c0,0,0,0,0,0c0,0,0,0,0,0c0,0,0,0,0,0
		c0,0,0,0,0,0c0,0,0,0,0,0c0,0,0,0,0,0c0,0,0,0,0,0c0,0,0,0,0,0c0,0,0,0,0,0c0,0,0,0,0,0c0,0,0,0,0.1,0v0.2c-0.6-0.2-1-0.4-1.4-0.6
		c-0.1,0-0.1,0-0.2-0.1h0c-0.2-0.1-0.3-0.1-0.5-0.1c0,0,0,0,0,0h0c0,0,0,0,0,0h0c0,0,0,0,0,0h0c0,0,0,0,0,0H6.6c0,0,0,0-0.1,0
		C6.4,11.7,6.4,11.7,6.3,11.8 M8.7,19.8c1.1,1.1,2.7,1.9,4.4,2.1l0,0.2c-2.2-0.2-4.1-1.3-5.3-3c0.1,0,0.2,0,0.3,0
		C8.3,19.4,8.5,19.6,8.7,19.8C8.7,19.8,8.7,19.8,8.7,19.8 M14,7V6.8c0,0,0,0,0,0c0,0,0,0,0,0h0.2c0,0,0,0,0,0V7
		c2.5,0.1,4.7,1.4,6,3.4c0.1,0,0.2,0.1,0.2,0.1c0,0,0,0,0,0c0,0,0.1,0.2,0.2,0.2c0,0,0,0.1,0,0.1c0,0,0,0,0-0.1c0,0-0.1,0-0.1-0.1
		c0,0,0,0,0,0c0,0,0,0,0,0c-0.1-0.1-0.2-0.1-0.4-0.2c0,0,0,0,0,0c0,0,0,0,0,0c0,0,0,0,0,0c0,0,0,0,0,0c0,0,0,0,0,0c0,0,0,0,0,0
		c0,0,0,0,0,0c0,0,0,0,0,0c0,0,0,0,0,0c0,0,0,0,0,0c0,0,0,0,0,0c0,0,0,0,0,0c0,0-0.1,0-0.1,0c0,0,0,0,0,0c0,0,0,0,0,0h0c0,0,0,0,0,0
		h0c0,0,0,0,0,0c0,0,0,0,0,0c0,0,0,0,0,0c0,0,0,0,0,0h0c0,0,0,0,0,0c0,0,0,0,0,0c-0.1,0-0.3-0.1-0.4-0.1c0,0,0,0-0.1,0
		c0,0,0,0-0.1,0c0,0,0,0-0.1,0h0c0,0,0,0-0.1,0h0V9.8V9.6c0.1,0.1,0.3,0.2,0.4,0.4c0.3,0.1,0.6,0.2,0.8,0.2c-1.3-1.7-3.4-2.9-5.7-3
		v0.4c1.6,0.1,3,0.7,4.1,1.6H18c-1.1-0.8-2.4-1.3-3.8-1.4v1.4H14V7z M20.7,11.1c0.1,0,0.1,0.1,0.2,0.1c0,0,0.1,0.2,0.1,0.2
		c0,0,0,0.1-0.1,0.1c0,0,0.1,0,0-0.1c0,0,0,0-0.1,0c0,0,0,0,0,0c-0.2-0.1-0.5-0.2-0.9-0.3v0c-0.1,0-0.2-0.1-0.3-0.1v0
		c-0.3-0.1-0.6-0.1-0.9-0.2v-0.2c0,0,0.1,0,0.1,0h0c0,0,0,0,0,0c0,0,0,0,0,0c0,0,0,0,0,0c0,0,0,0,0,0c0,0,0,0,0,0c0,0,0,0,0,0
		c0,0,0,0,0,0c0,0,0,0,0,0c0,0,0,0,0,0c0,0,0,0,0,0c0,0,0,0,0,0c0,0,0,0,0,0c0,0,0,0,0,0c0,0,0,0,0,0c0,0,0,0,0,0c0,0,0,0,0,0
		c0,0,0,0,0,0c0,0,0,0,0,0c0,0,0,0,0,0c0,0,0,0,0,0c0,0,0,0,0,0c0,0,0,0,0,0c0,0,0,0,0,0c0,0,0,0,0,0h0c0,0,0,0,0,0
		c0.1,0,0.2,0.1,0.3,0.1c0,0,0,0,0,0c0,0,0.1,0,0.1,0c0,0,0.1,0,0.1,0c0.1,0,0.3,0.1,0.4,0.1C20.5,11,20.6,11,20.7,11.1
		C20.7,11.1,20.7,11.1,20.7,11.1L20.7,11.1z M13.3,7C13.3,7,13.3,7,13.3,7C13.3,7,13.3,7,13.3,7 M5.7,14.7v-0.2c0,0,0,0,0,0
		c0,0,0.1-0.1,0.1-0.2c0.1-0.8,0.2-1.6,0.5-2.4c0,0,0,0,0,0c0,0,0,0,0,0c0,0,0,0,0,0v0c0,0,0-0.1,0-0.1c0,0,0,0,0,0
		c0,0,0.1,0,0.2,0.1c-0.3,0.7-0.5,1.5-0.6,2.4C6.2,14.1,6.3,14,6.5,14c0.1-0.7,0.3-1.3,0.5-1.9c0.1,0,0.1,0.1,0.2,0.2
		c0,0.1-0.1,0.2-0.1,0.3c0,0,0,0,0,0c-0.1,0.4-0.3,0.9-0.3,1.3c0.5-0.2,1.1-0.3,1.8-0.5c0.1,0,0.2,0,0.3,0v0.2c-0.1,0-0.1,0-0.2,0
		c0,0,0,0-0.1,0h0c0,0,0,0-0.1,0c0,0,0,0,0,0c0,0,0,0-0.1,0h0c0,0,0,0-0.1,0h0c0,0,0,0-0.1,0c0,0,0,0,0,0c0,0,0,0-0.1,0c0,0,0,0,0,0
		c0,0,0,0-0.1,0h0c0,0,0,0-0.1,0h0c0,0,0,0-0.1,0h0c0,0,0,0-0.1,0h0c0,0,0,0-0.1,0c0,0,0,0-0.1,0h0c0,0,0,0-0.1,0c0,0,0,0,0,0
		c0,0,0,0-0.1,0c0,0,0,0-0.1,0h0c0,0,0,0-0.1,0h0c0,0,0,0-0.1,0h0c0,0-0.1,0-0.1,0c0,0,0,0-0.1,0h0c0,0,0,0-0.1,0h0c0,0,0,0-0.1,0
		c0,0,0,0-0.1,0h0c0,0,0,0-0.1,0h0c0,0-0.1,0-0.1,0h0c0,0,0,0-0.1,0h0c0,0,0,0,0,0h0c0,0-0.1,0-0.1,0c0,0,0,0,0,0c0,0,0,0,0,0l0,0
		c0,0,0,0,0,0c-0.1,0-0.1,0.1-0.2,0.1c0,0,0,0,0,0c0,0,0,0,0,0c0,0,0,0,0,0c0,0,0,0,0,0c0,0,0,0-0.1,0h0c0,0,0,0,0,0h0c0,0,0,0,0,0
		c0,0,0,0,0,0c0,0,0,0,0,0l0,0c0,0,0,0,0,0h0c0,0,0,0-0.1,0h0c0,0,0,0,0,0h0c0,0,0,0,0,0c0,0,0,0,0,0h0c0,0,0,0,0,0
		c-0.1,0.1-0.1,0.1-0.2,0.2c0,0,0,0,0,0C5.8,14.6,5.7,14.7,5.7,14.7C5.7,14.7,5.7,14.7,5.7,14.7 M13.3,7.6V6.8c0,0,0,0,0,0h0.2
		c0,0,0,0,0,0v2.4l-0.2,0V7.6z M20.2,19.6c0,0,0,0.1,0,0.1c0,0-0.1,0.1-0.1,0.1c0,0-0.1,0.1-0.1,0.1c0,0,0.1,0,0.1-0.2
		c0,0,0,0,0-0.1c0,0,0-0.1-0.1-0.1h0c-0.1-0.1-0.2-0.2-0.3-0.3c0,0-0.1-0.1-0.1-0.1c-0.3-0.3-0.7-0.6-1.3-1c0-0.1,0.1-0.1,0.1-0.2
		c0.6,0.5,1.1,0.9,1.5,1.2c0,0,0.1,0.1,0.1,0.1c0,0,0,0,0,0c0,0,0,0,0,0c0,0,0,0,0,0c0,0,0,0,0,0c0,0,0,0,0,0c0,0,0,0,0,0
		c0,0,0,0,0,0c0,0,0,0,0,0c0,0,0,0,0,0c0,0,0,0,0,0c0,0,0,0,0,0c0,0,0,0,0,0v0c0,0,0,0,0,0l0,0c0,0,0,0,0,0c0,0,0,0,0,0c0,0,0,0,0,0
		c0,0,0,0,0,0C20.1,19.4,20.1,19.5,20.2,19.6C20.2,19.5,20.2,19.5,20.2,19.6C20.2,19.5,20.2,19.5,20.2,19.6
		C20.2,19.5,20.2,19.5,20.2,19.6C20.2,19.5,20.2,19.5,20.2,19.6C20.2,19.6,20.2,19.6,20.2,19.6 M19.9,19.8
		C19.9,19.8,19.9,19.8,19.9,19.8L19.9,19.8c-0.1,0.1-0.1,0.1-0.1,0.1c-1.4,1.6-3.4,2.7-5.7,2.9v0.1c0,0,0,0,0,0c0,0,0,0,0,0H14
		c0,0,0,0,0,0v-2.1c0.1,0,0.1,0,0.2,0v1.2c1.8-0.1,3.3-0.9,4.5-2c0,0,0,0,0,0c0,0,0,0,0-0.1c0,0,0,0,0,0c0.1-0.1,0.3-0.3,0.4-0.5
		c0.1,0,0.1,0,0.2,0.1c-1.2,1.5-3.1,2.6-5.2,2.7v0.5c2.3-0.1,4.3-1.2,5.6-2.9C19.9,19.7,19.9,19.8,19.9,19.8 M21.6,15.4
		c0,0,0,0.1,0,0.1c-0.1,1-0.4,2-0.8,2.9c0.1,0.1,0.1,0.2,0,0.3c0,0-0.1,0.1-0.1,0.1c0,0,0,0.1-0.1,0.1c0,0,0.1-0.1,0.1-0.2
		c0,0,0,0,0-0.1h0c0,0,0-0.1-0.1-0.1c-0.1-0.1-0.1-0.2-0.2-0.3h0c0,0,0,0,0,0h0c0,0,0,0,0,0v0c-0.1-0.1-0.2-0.2-0.3-0.3c0,0,0,0,0,0
		c0,0,0,0,0,0h0c0,0-0.1-0.1-0.1-0.1c0,0,0,0,0,0c0,0,0,0,0,0c0,0,0,0,0,0c0,0-0.1-0.1-0.1-0.1c0,0,0,0,0,0c0,0,0,0,0,0c0,0,0,0,0,0
		c0,0-0.1-0.1-0.1-0.1l0,0c0,0,0,0,0,0c0,0,0,0,0,0c0,0,0,0,0,0v0c0,0-0.1-0.1-0.1-0.1c0,0,0,0,0,0c0,0,0,0,0,0c0,0,0,0,0,0
		c0,0,0,0,0,0c0,0,0,0,0,0c0,0,0,0,0,0c0,0,0,0,0,0c0,0,0,0,0,0c0,0,0,0,0,0c0,0,0,0,0,0c0,0,0,0,0,0c0,0,0,0,0,0c0,0,0,0,0,0
		c0,0,0,0,0,0c0,0,0,0,0,0c0,0,0,0,0,0c0,0,0,0,0,0c0,0,0,0,0,0c0,0,0,0,0,0c0,0,0,0,0,0c0,0,0,0,0,0c0,0,0,0,0,0c0,0,0,0,0,0
		c0,0,0,0,0,0c0,0,0,0,0,0c0,0,0,0,0,0c0,0,0,0,0,0c0,0,0,0,0,0c0,0,0,0,0,0c0-0.1,0-0.2,0-0.3c0.6,0.5,1.2,0.9,1.6,1.3
		c0.2-0.6,0.4-1.2,0.5-1.8c0,0,0,0,0,0v0c0,0,0-0.1,0-0.1v0c0,0,0,0,0-0.1c0,0,0,0,0,0c0,0,0,0,0-0.1c0,0,0,0,0,0v0c0,0,0,0,0,0
		c0,0,0,0,0,0c0,0,0,0,0,0c0,0,0-0.1,0-0.1c0,0,0.1,0,0.2,0c0,0.9-0.3,1.8-0.6,2.6c0.1,0.1,0.2,0.3,0.3,0.4c0.4-0.9,0.7-1.8,0.7-2.9
		C21.5,15.3,21.6,15.4,21.6,15.4 M21.8,14.5v0.2c0,0,0,0,0,0.1c0,0,0-0.1,0-0.1c0,0,0,0,0,0c0,0,0,0,0,0c-0.1-0.1-0.1-0.1-0.2-0.2h0
		c0,0,0,0,0,0c0,0,0,0,0,0c0,0,0,0,0,0c0,0,0,0,0,0c0,0,0,0,0,0l0,0c0,0,0,0,0,0l0,0c0,0,0,0,0,0h0c0,0,0,0,0,0l0,0c0,0,0,0,0,0
		c0,0,0,0,0,0c0,0,0,0,0,0c0,0,0,0,0,0c0,0,0,0,0,0l0,0c0,0,0,0,0,0h0c0,0,0,0,0,0h0c0,0,0,0,0,0h0c0,0,0,0,0,0h0c0,0,0,0,0,0
		c0,0,0,0,0,0c0,0,0,0,0,0c0,0,0,0,0,0c-0.1,0-0.2-0.1-0.2-0.1c0,0,0,0,0,0c0,0,0,0,0,0c0,0,0,0,0,0c0,0,0,0,0,0c0,0,0,0-0.1,0h0
		c0,0,0,0-0.1,0h0c0,0,0,0-0.1,0c0,0,0,0-0.1,0h0c0,0-0.1,0-0.1,0h0c0,0,0,0-0.1,0c0,0,0,0,0,0c0,0,0,0-0.1,0h0c0,0,0,0-0.1,0h0
		c0,0,0,0-0.1,0h0c0,0,0,0-0.1,0h0c0,0-0.1,0-0.1,0h0c0,0,0,0-0.1,0h0c0,0,0,0-0.1,0h0c0,0,0,0-0.1,0c0,0,0,0-0.1,0c0,0,0,0,0,0
		c0,0,0,0-0.1,0h0c0,0,0,0-0.1,0l0,0c0,0,0,0-0.1,0l0,0c0,0,0,0-0.1,0h0c0,0,0,0-0.1,0h0c0,0,0,0-0.1,0h0c0,0,0,0-0.1,0c0,0,0,0,0,0
		c0,0,0,0-0.1,0c0,0,0,0,0,0c0,0,0,0-0.1,0h0c0,0,0,0-0.1,0h0c0,0,0,0-0.1,0c0,0,0,0,0,0c0,0,0,0-0.1,0h0c0,0,0,0-0.1,0
		c-0.1,0-0.1,0-0.2,0v-0.2c0.1,0,0.2,0,0.3,0c0.7,0.1,1.3,0.3,1.8,0.5c-0.1-0.8-0.3-1.5-0.7-2.1c-0.1-0.1-0.1-0.3-0.2-0.4
		c0,0,0,0,0,0c0,0,0,0,0,0c0,0,0.1,0,0.2,0c0.5,0.8,0.8,1.7,0.9,2.7c0.2,0.1,0.3,0.1,0.5,0.2c-0.1-1-0.4-2-0.8-2.8
		c0.1,0,0.2,0,0.3,0.1v0c0,0,0,0,0,0.1c0.4,0.9,0.7,1.8,0.7,2.9C21.7,14.4,21.7,14.4,21.8,14.5 M21.8,15.2v0.2c0,0,0,0.1-0.1,0.1
		c0,0,0-0.1,0-0.1c0,0,0,0,0,0c0,0,0,0,0,0c0,0,0,0,0,0c0,0,0,0,0,0c0,0-0.1-0.1-0.1-0.1C21.3,15,21.2,15,21,14.9c0,0,0,0,0,0
		c0,0-0.1,0-0.1-0.1c0,0,0,0,0,0c-0.5-0.2-1.2-0.4-1.9-0.5c-0.1,0-0.2,0-0.2,0V14c0.1,0,0.2,0,0.3,0.1c0,0,0,0,0.1,0c0,0,0,0,0,0
		c0,0,0,0,0,0c0,0,0,0,0,0c0,0,0,0,0,0c0,0,0,0,0,0c0,0,0,0,0,0c0,0,0,0,0,0c0,0,0,0,0,0c0,0,0,0,0,0c0,0,0,0,0,0c0,0,0,0,0,0
		c0,0,0,0,0,0c0,0,0,0,0,0c0,0,0,0,0,0c0,0,0,0,0,0c0,0,0,0,0,0c0,0,0,0,0,0c0,0,0,0,0,0c0,0,0,0,0,0c0,0,0,0,0,0c0,0,0,0,0,0
		c0,0,0,0,0,0c0,0,0,0,0,0c0,0,0,0,0,0c0,0,0,0,0,0c0,0,0,0,0.1,0h0c0,0,0,0,0,0c0,0,0,0,0,0c0,0,0,0,0,0c0,0,0,0,0,0c0,0,0,0,0,0
		c0,0,0,0,0,0c0,0,0,0,0,0c0,0,0,0,0,0c0,0,0,0,0,0c0,0,0,0,0,0c0,0,0,0,0,0c0,0,0,0,0,0c0,0,0,0,0,0c0,0,0,0,0,0c0,0,0,0,0,0
		c0,0,0,0,0,0c0,0,0,0,0,0c0,0,0,0,0,0c0,0,0,0,0,0c0,0,0,0,0,0c0,0,0,0,0,0c0,0,0,0,0,0c0,0,0,0,0,0c0,0,0,0,0,0c0,0,0.1,0,0.1,0
		c0,0,0,0,0,0c0,0,0,0,0,0c0,0,0,0,0,0c0,0,0,0,0,0c0,0,0,0,0,0c0,0,0,0,0,0c0,0,0,0,0,0c0,0,0,0,0,0c0.1,0,0.2,0.1,0.2,0.1
		c0,0,0,0,0,0c0,0,0,0,0,0c0,0,0,0,0,0c0,0,0,0,0,0c0,0,0,0,0,0c0,0,0,0,0,0c0,0,0,0,0,0c0,0,0,0,0,0c0,0,0,0,0,0c0,0,0,0,0,0
		c0,0,0,0,0,0c0,0,0,0,0,0c0,0,0,0,0,0c0,0,0,0,0,0c0,0,0,0,0,0c0,0,0,0,0,0c0,0,0,0,0,0c0,0,0,0,0,0c0,0,0,0,0,0c0,0,0,0,0,0
		c0,0,0,0,0,0c0,0,0,0,0,0c0,0,0,0,0,0c0,0,0,0,0,0c0,0,0,0,0,0c0,0,0,0,0,0c0,0,0,0,0,0c0.1,0,0.2,0.1,0.2,0.1c0,0,0,0,0,0
		C21.7,15.1,21.7,15.1,21.8,15.2 M5.8,15.3L5.8,15.3C5.8,15.3,5.8,15.3,5.8,15.3c-0.1,0.1-0.1,0.1-0.1,0.2c0,0-0.1,0-0.1-0.1v-0.2
		c0,0,0,0,0,0c0,0,0-0.1,0.1-0.1c0,0,0,0,0,0c0.1,0,0.1-0.1,0.2-0.1c0,0,0,0,0,0c0,0,0,0,0,0c0,0,0,0,0,0c0,0,0,0,0,0c0,0,0,0,0,0
		c0,0,0,0,0,0l0,0c0,0,0,0,0,0c0,0,0,0,0,0c0,0,0,0,0,0h0c0,0,0,0,0.1,0c0,0,0,0,0,0c0,0,0,0,0,0c0,0,0,0,0,0c0,0,0,0,0,0
		c0,0,0,0,0,0c0,0,0,0,0,0c0,0,0,0,0,0c0,0,0,0,0,0c0,0,0,0,0,0c0,0,0,0,0.1,0c0,0,0,0,0,0c0.1,0,0.2-0.1,0.2-0.1c0,0,0,0,0,0
		c0,0,0,0,0,0c0,0,0,0,0,0c0,0,0,0,0,0c0,0,0,0,0,0c0,0,0,0,0,0c0,0,0,0,0,0c0,0,0,0,0,0c0,0,0,0,0,0c0,0,0,0,0,0c0,0,0,0,0,0
		c0,0,0,0,0,0c0,0,0,0,0,0c0,0,0,0,0,0c0,0,0,0,0,0c0,0,0,0,0,0c0,0,0,0,0,0c0,0,0,0,0,0c0,0,0,0,0,0c0,0,0,0,0,0c0,0,0,0,0,0
		c0,0,0,0,0,0c0,0,0,0,0,0c0,0,0,0,0,0c0,0,0,0,0,0c0,0,0,0,0,0c0,0,0,0,0,0c0,0,0,0,0,0c0,0,0,0,0,0c0,0,0,0,0,0c0,0,0,0,0,0
		c0,0,0,0,0,0c0,0,0,0,0,0c0,0,0,0,0.1,0h0c0,0,0,0,0.1,0c0,0,0,0,0,0c0,0,0,0,0,0c0,0,0,0,0,0c0,0,0,0,0,0c0,0,0,0,0,0c0,0,0,0,0,0
		c0,0,0,0,0,0c0,0,0,0,0,0c0,0,0,0,0,0c0,0,0,0,0,0c0,0,0,0,0,0c0,0,0,0,0,0c0,0,0,0,0,0c0,0,0,0,0,0c0,0,0,0,0,0c0,0,0,0,0,0
		c0,0,0,0,0,0c0,0,0,0,0,0c0,0,0,0,0,0c0,0,0,0,0,0c0,0,0,0,0,0c0,0,0,0,0,0c0,0,0,0,0,0c0,0,0,0,0,0c0,0,0,0,0,0c0,0,0,0,0.1,0
		c0.1,0,0.2,0,0.3-0.1v0.2c-0.1,0-0.2,0-0.2,0c-0.6,0.1-1.3,0.3-1.9,0.5c-0.1,0-0.1,0.1-0.2,0.1C6.3,15,6.1,15,6,15.1
		C6,15.2,5.9,15.2,5.8,15.3C5.8,15.3,5.8,15.3,5.8,15.3 M7.1,19.2c0,0,0,0.1,0,0.1C7.1,19.3,7.1,19.3,7.1,19.2
		c-0.1,0-0.2-0.1-0.2-0.1v0c0,0,0-0.1,0-0.1c0,0,0,0,0,0c0,0,0,0,0,0c0,0,0.1-0.1,0.2-0.1c0,0,0,0,0,0h0c0,0,0,0,0,0c0,0,0,0,0,0
		c0,0,0,0,0,0h0c0,0,0,0,0,0l0,0c0,0,0,0,0,0l0,0c0,0,0,0,0,0l0,0c0,0,0,0,0,0l0,0c0,0,0.1,0,0.1-0.1c0,0,0.1,0,0.1,0
		c0.1,0,0.1-0.1,0.2-0.1c0,0,0,0,0.1,0c0,0,0,0,0,0c0,0,0,0,0,0c0,0,0.1,0,0.1,0h0c0,0,0,0,0,0c0,0,0,0,0,0c0,0,0.1,0,0.1,0h0
		c0,0,0,0,0,0c0,0,0,0,0,0c0,0,0.1,0,0.1,0c0,0,0,0,0,0c0,0,0,0,0,0c0,0,0,0,0,0c0,0,0.1,0,0.1,0c0,0,0,0,0,0c0,0,0,0,0,0h0
		c0,0,0,0,0,0c0.3-0.1,0.6-0.2,0.9-0.2c0,0.1,0.1,0.1,0.1,0.2c-0.3,0.1-0.7,0.2-1,0.2C8,18.7,7.3,19,7.1,19.2 M6.8,18.7
		C6.7,18.7,6.7,18.7,6.8,18.7c-0.1-0.1-0.2-0.2-0.2-0.2c0,0,0,0,0,0c0,0,0-0.1,0.1-0.1c-0.5-0.9-0.8-2-0.8-3c0.1,0,0.1-0.1,0.2-0.1
		c0.1,1.1,0.3,2.1,0.8,3c0.1-0.1,0.2-0.1,0.4-0.2c-0.4-0.9-0.7-1.8-0.7-2.9c0.1,0,0.2,0,0.2,0c0,1,0.3,1.9,0.7,2.8
		c0.3-0.1,0.6-0.2,0.8-0.3c0.3-0.1,0.5-0.2,0.8-0.2c0,0.1,0.1,0.1,0.1,0.2c-0.3,0.1-0.6,0.1-0.9,0.2c0,0,0,0,0,0c0,0,0,0,0,0
		c0,0,0,0,0,0c0,0,0,0,0,0c0,0,0,0,0,0c0,0,0,0,0,0c0,0,0,0,0,0c0,0,0,0,0,0c0,0-0.1,0-0.1,0h0c0,0,0,0,0,0h0c0,0,0,0,0,0h0
		c0,0,0,0,0,0c0,0-0.1,0-0.1,0h0c-0.1,0-0.2,0.1-0.2,0.1c-0.1,0-0.1,0.1-0.2,0.1c0,0,0,0,0,0h0c0,0,0,0,0,0c0,0,0,0,0,0
		c0,0-0.1,0-0.1,0.1c0,0,0,0,0,0h0c0,0,0,0,0,0h0c0,0,0,0,0,0c0,0-0.1,0-0.1,0.1c-0.1,0.1-0.1,0.1-0.2,0.1c0,0,0,0,0,0
		C6.8,18.6,6.8,18.6,6.8,18.7L6.8,18.7C6.7,18.7,6.7,18.7,6.8,18.7C6.7,18.7,6.7,18.7,6.8,18.7 M13.2,22.8L13.2,22.8
		c-2.5-0.2-4.7-1.5-6-3.4c0,0,0,0,0-0.1v0c0.1,0,0.1-0.1,0.2-0.1c1.3,1.9,3.4,3.2,5.8,3.4L13.2,22.8z M13.5,22.8v0.1c0,0,0,0,0,0
		h-0.2c0,0,0,0,0,0v-2.1c0.1,0,0.1,0,0.2,0V22.8z"/>
	<path class="st5" d="M7.6,10.2c1.3-1.7,3.3-2.8,5.6-3l-0.1,0.5c-1.5,0.1-2.8,0.7-3.9,1.6H8.8v0.3C8.7,9.7,8.5,9.8,8.4,9.9
		C8.1,10,7.8,10.1,7.6,10.2 M20.6,11.4c-0.2,0-0.4,0-0.5,0c0.5,0.8,0.8,1.7,0.9,2.7c0.2,0.1,0.3,0.1,0.5,0.2
		C21.3,13.2,21,12.2,20.6,11.4 M14.2,7.6c1.6,0.1,3,0.7,4.1,1.6h0.4v0.3c0.1,0.1,0.3,0.2,0.4,0.4c0.3,0.1,0.6,0.2,0.8,0.2
		c-1.3-1.7-3.4-2.9-5.7-3V7.6z M7.8,19.1c-0.1,0-0.3,0-0.5,0.1c1.3,1.9,3.4,3.2,5.8,3.4l-0.1-0.5C11,21.9,9.1,20.8,7.8,19.1
		 M14.2,22.1v0.5c2.3-0.1,4.3-1.2,5.6-2.9c-0.1-0.1-0.2-0.1-0.4-0.2C18.1,21,16.3,22,14.2,22.1 M7.2,18.1c-0.4-0.9-0.7-1.8-0.7-2.9
		c-0.1,0-0.3,0-0.4,0.1c0.1,1.1,0.3,2.1,0.8,3C6.9,18.2,7.1,18.1,7.2,18.1 M20.4,17.8c0.1,0.1,0.2,0.3,0.3,0.4
		c0.4-0.9,0.7-1.8,0.7-2.9c-0.2-0.1-0.3-0.1-0.4-0.1C21,16.1,20.7,17,20.4,17.8 M6.5,14c0.1-0.7,0.3-1.3,0.5-1.9
		c-0.1-0.1-0.3-0.2-0.4-0.2c-0.3,0.7-0.5,1.5-0.6,2.4C6.2,14.1,6.3,14,6.5,14"/>
	<path class="st5" d="M20.5,10.7c-0.4-0.2-1.1-0.5-1.8-0.6v0.4c0.9,0.2,1.7,0.4,2,0.6L20.5,10.7z"/>
	<path class="st5" d="M8.4,10.5c0.1,0,0.2-0.1,0.4-0.1v-0.4c-0.4,0.1-0.7,0.2-1,0.3C7.9,10.4,8.2,10.5,8.4,10.5"/>
	<path class="st6" d="M8.8,13.6c-0.1,0-0.1,0-0.2,0c-1.1,0.2-2.4,0.6-2.7,1c0,0,0,0,0,0V15c0.3-0.3,1.4-0.7,2.7-1
		c0.1,0,0.2,0,0.3-0.1V13.6z"/>
	<path class="st6" d="M21.6,14.6c-0.4-0.4-1.6-0.8-2.7-1c-0.1,0-0.1,0-0.2,0V14c0.1,0,0.2,0,0.3,0.1c1.3,0.3,2.4,0.6,2.7,1
		L21.6,14.6C21.7,14.6,21.6,14.6,21.6,14.6"/>
	<path class="st6" d="M9.2,17.7c-0.3,0.1-0.6,0.1-0.9,0.2c-0.7,0.2-1.4,0.5-1.5,0.7c0,0,0,0,0,0L7,19c0.1-0.2,0.6-0.5,1.4-0.7
		c0.3-0.1,0.6-0.2,0.9-0.2C9.3,18,9.2,17.8,9.2,17.7"/>
	<rect x="13.5" y="6.9" class="st5" width="0.5" height="2.3"/>
	<path class="st6" d="M13.7,20.8c-0.1,0-0.1,0-0.2,0v2.1H14v-2.1C13.9,20.8,13.8,20.8,13.7,20.8"/>
	<path class="st6" d="M20.7,18.5c-0.3-0.5-1.1-1.2-2-1.9c-0.1,0.4-0.2,0.8-0.4,1.2c1.1,0.8,1.8,1.4,1.9,1.7l0.6-0.9
		C20.7,18.6,20.7,18.5,20.7,18.5"/>
	<path class="st6" d="M8.8,10.9c-0.7-0.3-1.2-0.4-1.5-0.4h0c-0.1,0-0.1,0-0.2,0l-0.5,1c0,0,0,0,0.1,0c0.4,0,1.2,0.3,2.2,0.7
		L8.8,10.9z"/>
	<path d="M18.7,11.2v0.9c0.5-0.1,1-0.2,1.4-0.3c-0.1-0.2-0.2-0.3-0.2-0.4c0.1,0,0.5,0,1,0.1v0c0,0,0,0,0,0.1c0,0,0,0,0,0
		c0,0,0,0,0,0c0,0,0.1,0,0-0.1c0,0,0,0-0.1,0c-0.3-0.1-0.7-0.3-1.2-0.4c0,0,0,0,0,0C19.4,11,19,11.1,18.7,11.2 M21.7,14.7
		c0,0,0-0.1,0-0.1L21.7,14.7C21.7,14.8,21.7,14.8,21.7,14.7L21.7,14.7z M20.6,10.8c0,0,0,0,0-0.1c0,0-0.1,0-0.1-0.1L20.6,10.8
		C20.6,10.8,20.6,10.8,20.6,10.8 M20.6,18.9L20.6,18.9C20.7,18.9,20.7,18.9,20.6,18.9c0.1,0,0.2-0.1,0.1-0.2L20.6,18.9z M21.7,15.4
		L21.7,15.4L21.7,15.4C21.7,15.4,21.7,15.4,21.7,15.4C21.7,15.4,21.7,15.4,21.7,15.4L21.7,15.4L21.7,15.4L21.7,15.4L21.7,15.4
		L21.7,15.4L21.7,15.4L21.7,15.4L21.7,15.4L21.7,15.4C21.7,15.3,21.7,15.3,21.7,15.4C21.7,15.3,21.7,15.3,21.7,15.4
		C21.7,15.3,21.7,15.3,21.7,15.4c-0.1-0.1-0.1-0.1-0.1-0.1c-0.1-0.1-0.4-0.2-0.6-0.4c0,0-0.1,0-0.2-0.1v0.1
		c-0.7,0.2-1.6,0.4-2.1,0.5v0.5c0,0.1,0,0.3,0,0.4c0.8-0.1,1.5-0.3,2.1-0.4c0-0.2,0-0.4,0.1-0.6C20.9,15.2,21.3,15.2,21.7,15.4
		c-0.1,0.1-0.1,0.1-0.1,0.1C21.7,15.5,21.7,15.5,21.7,15.4C21.7,15.4,21.7,15.4,21.7,15.4C21.7,15.4,21.7,15.4,21.7,15.4 M20,19.7
		L20,19.7C20,19.7,20,19.7,20,19.7C20,19.7,20,19.7,20,19.7C20,19.7,20,19.7,20,19.7c-0.1-0.2-0.3-0.4-0.6-0.7c0,0,0,0,0,0
		c0,0,0,0,0,0v0c-0.3-0.3-0.7-0.6-1.2-1c-0.2,0.5-0.6,0.9-0.9,1.3c-0.4,0.4-1,0.8-1.6,1.1c0.8-0.1,1.5-0.2,2.1-0.3
		c0.2,0,0.6-0.1,1-0.2c0.2-0.2,0.3-0.3,0.5-0.5C19.6,19.5,19.9,19.7,20,19.7c-0.1,0.1-0.1,0.1-0.2,0.2h0.1c0,0,0,0,0,0
		C20,19.9,20.1,19.9,20,19.7C20,19.7,20,19.7,20,19.7"/>
	<path d="M6.9,10.8C6.9,10.7,6.9,10.7,6.9,10.8c0-0.2,0-0.2,0.1-0.3L6.9,10.8z M5.8,14.8v-0.1C5.8,14.7,5.7,14.7,5.8,14.8
		C5.8,14.8,5.8,14.8,5.8,14.8 M13.3,7C13.3,7,13.2,7,13.3,7l-0.2,0.9c0.1,0,0.1,0,0.2,0V7z M6.4,12c0-0.1,0.1-0.1,0.1-0.2
		c0.1,0,0.5,0.1,0.7,0.5c-0.1,0.1-0.1,0.3-0.2,0.4c0.3,0.2,0.6,0.5,1.1,0.8c0.1,0,0.3-0.1,0.4-0.1c0.1,0,0.2,0,0.3,0v-1
		c-0.5-0.2-1-0.4-1.4-0.6h0c0,0,0,0,0,0c0,0,0,0,0,0h0c-0.3-0.1-0.6-0.2-0.8-0.2c0,0,0,0-0.1,0c0,0,0,0,0,0h0c0,0,0,0,0,0v0
		c-0.1,0-0.1,0.1-0.1,0.2c0,0,0,0,0,0c0,0,0,0,0,0C6.3,11.9,6.4,11.9,6.4,12 M8.8,15.8v-0.4c-0.5-0.1-1.4-0.3-2.1-0.5v-0.1
		c-0.1,0-0.2,0.1-0.2,0.1c-0.1,0-0.1,0.1-0.2,0.1c0,0,0,0,0,0c0,0,0,0,0,0c-0.2,0.1-0.3,0.2-0.4,0.2c0,0,0,0,0,0c0,0,0,0,0,0
		c0,0,0,0,0,0l0,0h0v0h0c0,0,0,0,0,0v0h0v0l0,0h0v0l0,0v0h0v0h0v0c0,0,0,0,0,0l0,0v0l0,0v0c0,0,0,0,0,0v0h0v0v0v0v0l0,0v0h0l0,0v0h0
		c0,0,0,0,0,0v0c0,0,0.1,0,0.1,0c0,0,0-0.1,0-0.1c0.4-0.2,0.7-0.2,0.8-0.2c0,0.2,0,0.4,0.1,0.6C7.3,16,8,16.1,8.8,16.2
		C8.8,16.1,8.8,16,8.8,15.8 M13.2,22.8C13.2,22.8,13.3,22.8,13.2,22.8l0.1-0.8c-0.1,0-0.1,0-0.2,0L13.2,22.8z M10.2,19.3
		C10.2,19.3,10.2,19.3,10.2,19.3c-0.8-0.2-1.6-0.3-2.4-0.5c0,0,0,0,0,0c-0.4,0.1-0.6,0.3-0.8,0.4c0,0,0,0.1,0,0.1h0c0,0,0.1,0,0.1,0
		c0,0,0-0.1-0.1-0.1c0.4-0.2,0.9-0.2,0.9-0.1c0.2,0.3,0.4,0.5,0.6,0.7c0.9,0.2,1.9,0.4,3,0.5C11.2,20.1,10.7,19.7,10.2,19.3
		 M6.7,18.6C6.7,18.7,6.7,18.7,6.7,18.6C6.7,18.7,6.7,18.7,6.7,18.6C6.8,18.7,6.8,18.7,6.7,18.6c0,0.1,0,0.1,0.1,0.1L6.7,18.6z"/>
	<path class="st7" d="M13.7,20.8c-3,0-5-2.5-5-4.9V9.2h10v6.8C18.7,18.3,16.7,20.8,13.7,20.8"/>
	<path class="st2" d="M9,9.5v6.4c0,2.2,1.9,4.6,4.7,4.6c2.8,0,4.7-2.4,4.7-4.6V9.5H9z M16.5,15.9c0,1.1-1.1,2.7-2.8,2.7
		c-1.7,0-2.8-1.5-2.8-2.7v-4.5h5.6V15.9z"/>
	<path class="st6" d="M10.6,11L10.6,11l-0.1-0.4c0.1,0,0.1-0.1,0.1-0.1c0-0.1,0-0.1-0.1-0.1h0l0-0.2h0c0,0,0,0,0,0V10h-0.1v0.1h-0.1
		V10h-0.1v0.1h-0.1V10h-0.1v0.1c0,0,0,0,0,0h0l0,0.2h-0.1l0-0.4h0c0,0,0,0,0,0V9.8h-0.1v0.1H10V9.8H10v0.1H9.9V9.8H9.8v0.1
		c0,0,0,0,0,0h0l0,0.4H9.7l0-0.2h0c0,0,0,0,0,0V10H9.7v0.1H9.6V10H9.6v0.1H9.5V10H9.4v0.1c0,0,0,0,0,0h0l0,0.2h0
		c-0.1,0-0.1,0-0.1,0.1c0,0.1,0,0.1,0.1,0.1l0,0.4h0c-0.1,0-0.1,0-0.1,0.1c0,0.1,0,0.1,0.1,0.1h1.2c0.1,0,0.1,0,0.1-0.1
		C10.7,11,10.7,11,10.6,11 M9.7,11c0-0.4,0.3-0.4,0.3-0.4c0,0,0.3,0.1,0.3,0.4H9.7z"/>
	<path class="st6" d="M14.3,11L14.3,11l-0.1-0.4c0.1,0,0.1-0.1,0.1-0.1c0-0.1,0-0.1-0.1-0.1h0l0-0.2h0c0,0,0,0,0,0V10h-0.1v0.1h-0.1
		V10h-0.1v0.1H14V10h-0.1v0.1c0,0,0,0,0,0h0l0,0.2h-0.1l0-0.4h0c0,0,0,0,0,0V9.8h-0.1v0.1h-0.1V9.8h-0.1v0.1h-0.1V9.8h-0.1v0.1
		c0,0,0,0,0,0h0l0,0.4h-0.1l0-0.2h0c0,0,0,0,0,0V10h-0.1v0.1h-0.1V10h-0.1v0.1h-0.1V10h-0.1v0.1c0,0,0,0,0,0h0l0,0.2h0
		c-0.1,0-0.1,0-0.1,0.1c0,0.1,0,0.1,0.1,0.1l0,0.4h0c-0.1,0-0.1,0-0.1,0.1c0,0.1,0,0.1,0.1,0.1h1.2c0.1,0,0.1,0,0.1-0.1
		C14.4,11,14.4,11,14.3,11 M13.4,11c0-0.4,0.3-0.4,0.3-0.4c0,0,0.3,0.1,0.3,0.4H13.4z"/>
	<path class="st6" d="M18,11L18,11L18,10.6c0.1,0,0.1-0.1,0.1-0.1c0-0.1-0.1-0.1-0.1-0.1h0l0-0.2h0c0,0,0,0,0,0V10h-0.1v0.1h-0.1V10
		h-0.1v0.1h-0.1V10h-0.1v0.1c0,0,0,0,0,0h0l0,0.2h-0.1l0-0.4h0c0,0,0,0,0,0V9.8h-0.1v0.1h-0.1V9.8h-0.1v0.1h-0.1V9.8h-0.1v0.1
		c0,0,0,0,0,0h0l0,0.4h-0.1l0-0.2h0c0,0,0,0,0,0V10h-0.1v0.1H17V10H17v0.1h-0.1V10h-0.1v0.1c0,0,0,0,0,0h0l0,0.2h0
		c-0.1,0-0.1,0-0.1,0.1c0,0.1,0,0.1,0.1,0.1l0,0.4h0c-0.1,0-0.1,0-0.1,0.1c0,0.1,0,0.1,0.1,0.1H18c0.1,0,0.1,0,0.1-0.1
		C18.1,11,18.1,11,18,11 M17.1,11c0-0.4,0.3-0.4,0.3-0.4h0c0,0,0.3,0.1,0.3,0.4H17.1z"/>
	<path class="st6" d="M10.6,14.8L10.6,14.8l-0.1-0.4c0.1,0,0.1,0,0.1-0.1c0-0.1,0-0.1-0.1-0.1h0l0-0.2h0c0,0,0,0,0,0v-0.1h-0.1v0.1
		h-0.1v-0.1h-0.1v0.1h-0.1v-0.1h-0.1V14c0,0,0,0,0,0h0l0,0.2h-0.1l0-0.4h0c0,0,0,0,0,0v-0.1h-0.1v0.1H10v-0.1H10v0.1H9.9v-0.1H9.8
		v0.1c0,0,0,0,0,0h0l0,0.4H9.7l0-0.2h0c0,0,0,0,0,0v-0.1H9.7v0.1H9.6v-0.1H9.6v0.1H9.5v-0.1H9.4V14c0,0,0,0,0,0h0l0,0.2h0
		c-0.1,0-0.1,0-0.1,0.1c0,0.1,0,0.1,0.1,0.1l0,0.4h0c-0.1,0-0.1,0-0.1,0.1c0,0.1,0,0.1,0.1,0.1h1.2c0.1,0,0.1,0,0.1-0.1
		C10.7,14.9,10.7,14.8,10.6,14.8 M9.7,14.8c0-0.4,0.3-0.4,0.3-0.4c0,0,0.3,0.1,0.3,0.4H9.7z"/>
	<path class="st6" d="M18,14.8L18,14.8L18,14.4c0.1,0,0.1,0,0.1-0.1c0-0.1-0.1-0.1-0.1-0.1h0l0-0.2h0c0,0,0,0,0,0v-0.1h-0.1v0.1
		h-0.1v-0.1h-0.1v0.1h-0.1v-0.1h-0.1V14c0,0,0,0,0,0h0l0,0.2h-0.1l0-0.4h0c0,0,0,0,0,0v-0.1h-0.1v0.1h-0.1v-0.1h-0.1v0.1h-0.1v-0.1
		h-0.1v0.1c0,0,0,0,0,0h0l0,0.4h-0.1l0-0.2h0c0,0,0,0,0,0v-0.1h-0.1v0.1H17v-0.1H17v0.1h-0.1v-0.1h-0.1V14c0,0,0,0,0,0h0l0,0.2h0
		c-0.1,0-0.1,0-0.1,0.1c0,0.1,0,0.1,0.1,0.1l0,0.4h0c-0.1,0-0.1,0-0.1,0.1c0,0.1,0,0.1,0.1,0.1H18c0.1,0,0.1,0,0.1-0.1
		C18.1,14.9,18.1,14.8,18,14.8 M17.1,14.8c0-0.4,0.3-0.4,0.3-0.4h0c0,0,0.3,0.1,0.3,0.4H17.1z"/>
	<path class="st6" d="M11.7,18.2L11.7,18.2l-0.3-0.3c0,0,0-0.1,0-0.1c0,0-0.1,0-0.2,0l0,0l-0.1-0.1l0,0l0,0c0,0,0,0,0,0L11,17.5l0,0
		l0,0.1l-0.1,0.1l0-0.1l0,0l0,0l-0.1,0.1l0,0l0,0l0.1,0.1c0,0,0,0,0,0l0,0l0,0L11,18L10.9,18l-0.3-0.3l0,0c0,0,0,0,0,0l-0.1-0.1l0,0
		l0,0l-0.1,0.1l0,0l0,0l0,0l-0.1,0.1l0,0l0,0l0.1,0.1c0,0,0,0,0,0l0,0l0.3,0.3l-0.1,0.1l-0.1-0.1l0,0l0,0c0,0,0,0,0,0l-0.1-0.1l0,0
		l0,0l-0.1,0.1l0-0.1l0,0l0,0l-0.1,0.1l0,0l0,0l0.1,0.1c0,0,0,0,0,0l0,0l0,0l0.1,0.1l0,0c0,0,0,0.1,0,0.1c0,0,0.1,0,0.1,0l0.3,0.3
		l0,0c0,0,0,0.1,0,0.1c0,0,0.1,0,0.2,0l0.9-0.9c0,0,0-0.1,0-0.1C11.8,18.1,11.7,18.1,11.7,18.2 M11.1,18.8c-0.2-0.3-0.1-0.5-0.1-0.5
		c0,0,0.3-0.1,0.5,0.1L11.1,18.8z"/>
	<path class="st6" d="M15.6,18.2c0,0,0,0.1,0,0.1l0.9,0.9c0,0,0.1,0,0.2,0c0,0,0-0.1,0-0.1l0,0l0.3-0.3c0,0,0.1,0,0.1,0
		c0,0,0-0.1,0-0.1l0,0l0.1-0.1l0,0l0,0c0,0,0,0,0,0l0.1-0.1l0,0l0,0l-0.1-0.1l0,0l0,0l0,0.1l-0.1-0.1l0,0l0,0L17,18.2c0,0,0,0,0,0
		l0,0l0,0l-0.1,0.1l-0.1-0.1l0.3-0.3l0,0c0,0,0,0,0,0l0.1-0.1l0,0l0,0L17,17.8l0,0l0,0l0,0l-0.1-0.1l0,0l0,0l-0.1,0.1c0,0,0,0,0,0
		l0,0L16.6,18L16.5,18l0.1-0.1l0,0l0,0c0,0,0,0,0,0l0.1-0.1l0,0l0,0l-0.1-0.1l0,0l0,0l0,0.1l-0.1-0.1l0-0.1l0,0l-0.1,0.1
		c0,0,0,0,0,0l0,0l0,0l-0.1,0.1l0,0c0,0-0.1,0-0.2,0c0,0,0,0.1,0,0.1l-0.3,0.3l0,0C15.7,18.1,15.7,18.1,15.6,18.2 M16,18.4
		c0.3-0.2,0.5-0.1,0.5-0.1c0,0,0.1,0.3-0.1,0.5L16,18.4z"/>
	<path class="st8" d="M14.1,17.2c-0.1,0-0.1,0.1-0.1,0.1c0,0.1,0.1,0.1,0.1,0.1c0.1,0,0.1-0.1,0.1-0.1
		C14.2,17.3,14.1,17.2,14.1,17.2"/>
	<path class="st8" d="M13.4,17.2c-0.1,0-0.1,0.1-0.1,0.1c0,0.1,0.1,0.1,0.1,0.1c0.1,0,0.1-0.1,0.1-0.1
		C13.5,17.3,13.5,17.2,13.4,17.2"/>
	<path class="st9" d="M13.7,13.6c0.3,0,0.6-0.2,0.6-0.7v-0.9h-1.2V13C13.1,13.4,13.4,13.6,13.7,13.6"/>
	<path class="st8" d="M13.5,12.4c0-0.1-0.1-0.1-0.1-0.1c-0.1,0-0.1,0.1-0.1,0.1c0,0.1,0.1,0.1,0.1,0.1
		C13.5,12.6,13.5,12.5,13.5,12.4"/>
	<path class="st8" d="M13.9,12.8c0-0.1-0.1-0.1-0.1-0.1c-0.1,0-0.1,0.1-0.1,0.1c0,0.1,0.1,0.1,0.1,0.1
		C13.8,12.9,13.9,12.8,13.9,12.8"/>
	<path class="st8" d="M14.2,13.1c0-0.1-0.1-0.1-0.1-0.1c-0.1,0-0.1,0.1-0.1,0.1c0,0.1,0.1,0.1,0.1,0.1
		C14.1,13.2,14.2,13.2,14.2,13.1"/>
	<path class="st8" d="M14,12.6c0.1,0,0.1-0.1,0.1-0.1c0-0.1-0.1-0.1-0.1-0.1c-0.1,0-0.1,0.1-0.1,0.1C13.9,12.5,14,12.6,14,12.6"/>
	<path class="st8" d="M13.4,13.2c0.1,0,0.1-0.1,0.1-0.1c0-0.1-0.1-0.1-0.1-0.1c-0.1,0-0.1,0.1-0.1,0.1
		C13.3,13.2,13.3,13.2,13.4,13.2"/>
	<path class="st9" d="M13.7,15.8c0.3,0,0.6-0.2,0.6-0.7v-0.9h-1.2v0.9C13.1,15.5,13.4,15.8,13.7,15.8"/>
	<path class="st8" d="M13.5,14.6c0-0.1-0.1-0.1-0.1-0.1c-0.1,0-0.1,0.1-0.1,0.1c0,0.1,0.1,0.1,0.1,0.1
		C13.5,14.7,13.5,14.6,13.5,14.6"/>
	<path class="st8" d="M13.9,14.9c0-0.1-0.1-0.1-0.1-0.1c-0.1,0-0.1,0.1-0.1,0.1c0,0.1,0.1,0.1,0.1,0.1C13.8,15,13.9,15,13.9,14.9"/>
	<path class="st8" d="M14.2,15.2c0-0.1-0.1-0.1-0.1-0.1c-0.1,0-0.1,0.1-0.1,0.1c0,0.1,0.1,0.1,0.1,0.1
		C14.1,15.3,14.2,15.3,14.2,15.2"/>
	<path class="st8" d="M14,14.7c0.1,0,0.1-0.1,0.1-0.1c0-0.1-0.1-0.1-0.1-0.1c-0.1,0-0.1,0.1-0.1,0.1C13.9,14.6,14,14.7,14,14.7"/>
	<path class="st8" d="M13.4,15.3c0.1,0,0.1-0.1,0.1-0.1c0-0.1-0.1-0.1-0.1-0.1c-0.1,0-0.1,0.1-0.1,0.1
		C13.3,15.3,13.3,15.3,13.4,15.3"/>
	<path class="st9" d="M12,15.8c0.3,0,0.6-0.2,0.6-0.7v-0.9h-1.2v0.9C11.4,15.5,11.7,15.8,12,15.8"/>
	<path class="st8" d="M11.8,14.6c0-0.1-0.1-0.1-0.1-0.1c-0.1,0-0.1,0.1-0.1,0.1c0,0.1,0.1,0.1,0.1,0.1
		C11.8,14.7,11.8,14.6,11.8,14.6"/>
	<path class="st8" d="M12.2,14.9c0-0.1-0.1-0.1-0.1-0.1c-0.1,0-0.1,0.1-0.1,0.1c0,0.1,0.1,0.1,0.1,0.1C12.1,15,12.2,15,12.2,14.9"/>
	<path class="st8" d="M12.5,15.2c0-0.1-0.1-0.1-0.1-0.1c-0.1,0-0.1,0.1-0.1,0.1c0,0.1,0.1,0.1,0.1,0.1
		C12.4,15.3,12.5,15.3,12.5,15.2"/>
	<path class="st8" d="M12.3,14.7c0.1,0,0.1-0.1,0.1-0.1c0-0.1-0.1-0.1-0.1-0.1c-0.1,0-0.1,0.1-0.1,0.1
		C12.2,14.6,12.3,14.7,12.3,14.7"/>
	<path class="st8" d="M11.7,15.3c0.1,0,0.1-0.1,0.1-0.1c0-0.1-0.1-0.1-0.1-0.1c-0.1,0-0.1,0.1-0.1,0.1
		C11.6,15.3,11.6,15.3,11.7,15.3"/>
	<path class="st9" d="M15.4,15.8c0.3,0,0.6-0.2,0.6-0.7v-0.9h-1.2v0.9C14.8,15.5,15.1,15.8,15.4,15.8"/>
	<path class="st8" d="M15.2,14.6c0-0.1-0.1-0.1-0.1-0.1c-0.1,0-0.1,0.1-0.1,0.1c0,0.1,0.1,0.1,0.1,0.1
		C15.2,14.7,15.2,14.6,15.2,14.6"/>
	<path class="st8" d="M15.6,14.9c0-0.1-0.1-0.1-0.1-0.1c-0.1,0-0.1,0.1-0.1,0.1c0,0.1,0.1,0.1,0.1,0.1C15.5,15,15.6,15,15.6,14.9"/>
	<path class="st8" d="M15.9,15.2c0-0.1-0.1-0.1-0.1-0.1c-0.1,0-0.1,0.1-0.1,0.1c0,0.1,0.1,0.1,0.1,0.1
		C15.8,15.3,15.9,15.3,15.9,15.2"/>
	<path class="st8" d="M15.7,14.7c0.1,0,0.1-0.1,0.1-0.1c0-0.1-0.1-0.1-0.1-0.1c-0.1,0-0.1,0.1-0.1,0.1
		C15.6,14.6,15.7,14.7,15.7,14.7"/>
	<path class="st8" d="M15.1,15.3c0.1,0,0.1-0.1,0.1-0.1c0-0.1-0.1-0.1-0.1-0.1c-0.1,0-0.1,0.1-0.1,0.1C15,15.3,15,15.3,15.1,15.3"/>
	<path class="st9" d="M13.7,17.9c0.3,0,0.6-0.2,0.6-0.7v-0.9h-1.2v0.9C13.1,17.7,13.4,17.9,13.7,17.9"/>
	<path class="st8" d="M13.5,16.7c0-0.1-0.1-0.1-0.1-0.1c-0.1,0-0.1,0.1-0.1,0.1c0,0.1,0.1,0.1,0.1,0.1
		C13.5,16.8,13.5,16.8,13.5,16.7"/>
	<path class="st8" d="M13.9,17c0-0.1-0.1-0.1-0.1-0.1c-0.1,0-0.1,0.1-0.1,0.1c0,0.1,0.1,0.1,0.1,0.1C13.8,17.2,13.9,17.1,13.9,17"/>
	<path class="st8" d="M14.2,17.3c0-0.1-0.1-0.1-0.1-0.1c-0.1,0-0.1,0.1-0.1,0.1c0,0.1,0.1,0.1,0.1,0.1
		C14.1,17.5,14.2,17.4,14.2,17.3"/>
	<path class="st8" d="M14,16.8c0.1,0,0.1-0.1,0.1-0.1c0-0.1-0.1-0.1-0.1-0.1c-0.1,0-0.1,0.1-0.1,0.1C13.9,16.8,14,16.8,14,16.8"/>
	<path class="st8" d="M13.4,17.5c0.1,0,0.1-0.1,0.1-0.1c0-0.1-0.1-0.1-0.1-0.1c-0.1,0-0.1,0.1-0.1,0.1
		C13.3,17.4,13.3,17.5,13.4,17.5"/>
</g>
</svg>
