<?xml version="1.0" encoding="utf-8"?>
<!-- Generator: Adobe Illustrator 25.3.1, SVG Export Plug-In . SVG Version: 6.00 Build 0)  -->
<svg version="1.1" id="Layer_1" xmlns="http://www.w3.org/2000/svg" xmlns:xlink="http://www.w3.org/1999/xlink" x="0px" y="0px"
	 width="66.7px" height="40px" viewBox="0 0 66.7 40" style="enable-background:new 0 0 66.7 40;" xml:space="preserve">
<style type="text/css">
	.st0{fill:#4C4C4D;}
	.st1{fill:#D72128;}
	.st2{fill:#07A64C;}
</style>
<g>
	<g>
		<path class="st0" d="M4.8,8.7h1.1l5,11.1H9.3l-1.4-3.2H3.1l-1.4,3.2H0.1L4.8,8.7z M7.1,15l-1.8-4l-1.7,4H7.1z"/>
		<path class="st0" d="M20.8,8.7h1.5v11.1H21l-7.3-8.5v8.5h-1.5V8.7h1.3l7.5,8.5L20.8,8.7L20.8,8.7z"/>
		<path class="st0" d="M51.7,8.7h6.2v1.4h-4.7v3.4h4.5V15h-4.5v3.4h4.8v1.4h-6.4C51.7,19.7,51.7,8.7,51.7,8.7z"/>
	</g>
	<g>
		<path class="st0" d="M59.7,19.7V8.7h3.5c1.1,0,1.9,0.3,2.5,0.9s0.9,1.4,0.9,2.3c0,0.6-0.1,1.2-0.5,1.7c-0.3,0.5-0.7,0.9-1.3,1.1
			c-0.6,0.2-1.4,0.4-2.4,0.4h-1.1v4.8L59.7,19.7L59.7,19.7z M63,10.1h-1.7v3.4H63c0.6,0,1.1-0.1,1.5-0.4s0.5-0.7,0.5-1.3
			C65,10.7,64.3,10.1,63,10.1z"/>
	</g>
	<path class="st1" d="M24.3,13.5c0-4.3,5.7-7.8,12.7-7.8s12.6,3.5,12.6,7.8c0,2.2-1.1,3.8-3.4,5.2l-3.4-2.4c1.1-1.1,1.5-2.1,1.5-3.6
		c0-3.4-3.7-6.1-8.3-6.1c-4.5,0-8.3,2.7-8.3,6.1s3.7,6.1,8.3,6.1c1.2,0,2.2-0.1,3.2-0.4l1.3,2.7c-1.1,0.2-2.2,0.1-3.5,0.1
		C30,21.3,24.3,17.8,24.3,13.5"/>
	<polygon class="st2" points="49,21.9 37.7,13.5 43.7,25.7 	"/>
	<g>
		<path class="st0" d="M1.3,23h0.3l1.2,2.7H2.5L2.1,25H0.9l-0.4,0.9H0.1L1.3,23z M1.8,24.6l-0.4-1l-0.4,1H1.8z"/>
	</g>
	<g>
		<path class="st0" d="M4.4,24.4h0.9v1.1c-0.4,0.1-0.7,0.2-1,0.2c-0.4,0-0.8-0.1-1.1-0.4c-0.2-0.2-0.4-0.6-0.4-1
			c0-0.4,0.1-0.7,0.4-1.1c0.2-0.3,0.6-0.4,1.1-0.4c0.1,0,0.3,0,0.4,0.1C4.9,23,5.1,23,5.3,23.2v0.4c-0.4-0.2-0.6-0.3-1-0.3
			c-0.3,0-0.6,0.1-0.7,0.3c-0.2,0.2-0.3,0.4-0.3,0.7c0,0.3,0.1,0.6,0.3,0.7c0.2,0.2,0.4,0.3,0.8,0.3c0.1,0,0.4-0.1,0.6-0.1h0.1v-0.5
			H4.4V24.4L4.4,24.4z"/>
		<path class="st0" d="M5.9,23h1.6v0.4H6.3v0.9h1.1v0.4H6.3v0.9h1.2v0.4H5.9V23z M6.9,22.2l0.4,0.6H7.1l-0.4-0.4l-0.4,0.4H6.2
			l0.4-0.6H6.9z"/>
		<path class="st0" d="M10.1,23h0.4v2.7h-0.4l-1.9-2.1v2.1H7.9V23h0.3l1.9,2.2L10.1,23L10.1,23z"/>
		<path class="st0" d="M13.5,25.2v0.4c-0.3,0.1-0.6,0.2-1,0.2c-0.3,0-0.6-0.1-0.8-0.2c-0.2-0.1-0.4-0.3-0.5-0.5
			c-0.1-0.2-0.2-0.4-0.2-0.7c0-0.4,0.1-0.7,0.4-1c0.3-0.2,0.6-0.4,1.1-0.4c0.3,0,0.6,0.1,0.9,0.2v0.4c-0.3-0.2-0.6-0.3-0.9-0.3
			c-0.3,0-0.6,0.1-0.8,0.3s-0.3,0.4-0.3,0.7c0,0.3,0.1,0.6,0.3,0.7c0.2,0.2,0.4,0.3,0.8,0.3C12.9,25.5,13.2,25.3,13.5,25.2z"/>
		<path class="st0" d="M14,23h0.4v2.7H14V23z"/>
		<path class="st0" d="M15.9,23h0.3l1.2,2.7H17L16.6,25h-1.2l-0.3,0.8h-0.4L15.9,23z M16.5,24.6l-0.4-1l-0.4,1H16.5z"/>
		<path class="st0" d="M21,23h0.4v2.7H21l-1.9-2.1v2.1h-0.4V23H19l1.9,2.2L21,23L21,23z"/>
		<path class="st0" d="M22.9,23h0.3l1.2,2.7h-0.4L23.6,25h-1.2l-0.3,0.8h-0.4L22.9,23z M23.4,24.6l-0.4-1l-0.4,1H23.4z"/>
	</g>
	<g>
		<path class="st0" d="M26.9,25.2v0.4c-0.3,0.1-0.6,0.2-1,0.2c-0.3,0-0.6-0.1-0.8-0.2c-0.2-0.1-0.4-0.3-0.5-0.5
			c-0.1-0.2-0.2-0.4-0.2-0.7c0-0.4,0.1-0.7,0.4-1c0.3-0.2,0.6-0.4,1.1-0.4c0.3,0,0.6,0.1,0.9,0.2v0.4c-0.3-0.2-0.6-0.3-0.9-0.3
			c-0.3,0-0.6,0.1-0.8,0.3s-0.3,0.4-0.3,0.7c0,0.3,0.1,0.6,0.3,0.7c0.2,0.2,0.4,0.3,0.8,0.3C26.2,25.5,26.6,25.3,26.9,25.2z"/>
		<path class="st0" d="M27.4,23h0.4v2.7h-0.4V23z"/>
		<path class="st0" d="M29.7,23c0.4,0,0.8,0.1,1.1,0.4c0.3,0.2,0.4,0.6,0.4,1s-0.1,0.7-0.4,1c-0.3,0.2-0.6,0.4-1.1,0.4
			c-0.4,0-0.7-0.1-1.1-0.4c-0.4-0.3-0.4-0.6-0.4-1s0.1-0.7,0.4-1S29.2,23,29.7,23z M29.7,23.4c-0.3,0-0.6,0.1-0.8,0.3
			c-0.2,0.2-0.3,0.4-0.3,0.7s0.1,0.6,0.3,0.7c0.2,0.2,0.4,0.3,0.7,0.3c0.3,0,0.6-0.1,0.7-0.3c0.1-0.2,0.3-0.4,0.3-0.7
			s-0.1-0.6-0.3-0.7C30.2,23.4,30,23.4,29.7,23.4z"/>
		<path class="st0" d="M33.9,23h0.4v2.7h-0.4L32,23.7v2.1h-0.4V23H32l1.9,2.2L33.9,23L33.9,23z"/>
		<path class="st0" d="M35.7,23H36l1.2,2.7h-0.4L36.4,25h-1.2L35,25.7h-0.4L35.7,23z M36.3,24.6l-0.4-1l-0.4,1H36.3z"/>
		<path class="st0" d="M37.6,23H38v2.4h1.2v0.4h-1.7V23z"/>
	</g>
	<g>
		<path class="st0" d="M0.4,29.8v-2.7h0.9c0.2,0,0.4,0.1,0.6,0.2c0.1,0.1,0.3,0.4,0.3,0.5s-0.1,0.3-0.1,0.4
			c-0.1,0.1-0.2,0.2-0.4,0.2c-0.1,0.1-0.4,0.1-0.6,0.1H0.8v1.2L0.4,29.8L0.4,29.8z M1.2,27.4H0.8v0.9h0.4c0.1,0,0.3-0.1,0.4-0.1
			C1.7,28.2,1.8,28,1.8,28C1.7,27.5,1.5,27.4,1.2,27.4z"/>
	</g>
	<g>
		<path class="st0" d="M3,27h0.3l1.2,2.7H4.1L3.8,29H2.6l-0.4,0.8H1.8L3,27z M3.6,28.7l-0.4-1l-0.4,1H3.6z"/>
		<path class="st0" d="M4.8,29.8v-2.7h0.7c0.3,0,0.5,0.1,0.6,0.2c0.1,0.1,0.3,0.3,0.3,0.5c0,0.1-0.1,0.3-0.1,0.4
			c-0.1,0.1-0.2,0.2-0.4,0.2c0.1,0.1,0.1,0.1,0.2,0.2c0.1,0.1,0.2,0.2,0.4,0.5c0.1,0.1,0.1,0.2,0.2,0.4L7,29.8H6.5l-0.1-0.2
			c0,0,0,0,0-0.1l-0.1-0.1l-0.1-0.2L6.1,29c-0.1-0.1-0.1-0.2-0.2-0.2c-0.1-0.1-0.1-0.1-0.2-0.1c-0.1,0-0.2,0-0.4,0H5.3v1.2H4.8
			L4.8,29.8z M5.3,27.4L5.3,27.4l-0.1,0.9h0.1c0.2,0,0.4,0,0.4-0.1C5.9,28.2,6,28.2,6,28.1C6.1,28,6.1,28,6.1,27.9s0-0.1-0.1-0.2
			c-0.1-0.1-0.1-0.1-0.2-0.1C5.7,27.4,5.6,27.4,5.3,27.4z"/>
		<path class="st0" d="M8.1,27h0.3l1.2,2.7H9.2L8.9,29H7.6l-0.4,0.8H7L8.1,27z M8.8,28.7l-0.4-1l-0.4,1H8.8z"/>
	</g>
	<g>
		<path class="st0" d="M11.6,27h0.3l1.2,2.7h-0.4L12.3,29h-1.2l-0.3,0.9h-0.4L11.6,27z M12.2,28.7l-0.4-1l-0.4,1H12.2z"/>
		<path class="st0" d="M17.3,30l-0.4,0.4c-0.1,0-0.2-0.1-0.4-0.1c-0.1-0.1-0.2-0.1-0.4-0.1c-0.2-0.1-0.3-0.2-0.6-0.4
			c-0.4-0.1-0.6-0.2-0.9-0.5c-0.3-0.3-0.2-0.5-0.2-0.9c0-0.4,0.1-0.7,0.4-1c0.3-0.2,0.6-0.4,1.1-0.4c0.4,0,0.8,0.1,1.1,0.4
			c0.3,0.2,0.4,0.6,0.4,1c0,0.4-0.1,0.6-0.3,0.9c-0.2,0.2-0.5,0.4-0.9,0.5l0.1,0.1c0.3,0.1,0.6,0.2,0.7,0.2C17.1,30,17.2,30,17.3,30
			z M15.9,27.4c-0.3,0-0.6,0.1-0.7,0.3c-0.2,0.2-0.3,0.4-0.3,0.7s0.1,0.6,0.3,0.7c0.2,0.2,0.4,0.3,0.7,0.3c0.3,0,0.6-0.1,0.7-0.3
			c0.2-0.2,0.3-0.4,0.3-0.7c0-0.3-0.1-0.6-0.3-0.7C16.5,27.5,16.2,27.4,15.9,27.4z"/>
		<path class="st0" d="M19.8,27h0.4v1.6c0,0.2,0,0.4-0.1,0.5c-0.1,0.1-0.1,0.2-0.1,0.2c-0.1,0.1-0.1,0.1-0.1,0.2
			c-0.2,0.2-0.5,0.3-0.9,0.3c-0.4,0-0.6-0.1-0.9-0.3c-0.1-0.1-0.1-0.1-0.1-0.2C18,29.3,18,29.2,18,29.1s-0.1-0.2-0.1-0.5V27h0.4v1.6
			c0,0.2,0.1,0.4,0.1,0.6c0.1,0.1,0.1,0.2,0.2,0.2c0.1,0.1,0.2,0.1,0.4,0.1c0.2,0,0.4-0.1,0.6-0.2c0.1-0.1,0.1-0.1,0.1-0.2
			c0.1-0.1,0.1-0.2,0.1-0.4L19.8,27L19.8,27z"/>
	</g>
	<g>
		<path class="st0" d="M21.5,27h0.3l1.2,2.7h-0.4L22.3,29h-1.2l-0.4,0.8h-0.4L21.5,27z M22.1,28.7l-0.4-1l-0.4,1H22.1z"/>
		<path class="st0" d="M23.4,27h0.4v2.4h1.2v0.4h-1.7L23.4,27L23.4,27z"/>
		<path class="st0" d="M25.3,27h0.4v2.7h-0.4V27z"/>
		<path class="st0" d="M26.3,27h1.4v0.4h-1.1v0.7h1.1v0.4h-1.1v1.3h-0.4L26.3,27L26.3,27z"/>
		<path class="st0" d="M28.2,27h0.4v2.7h-0.4V27z"/>
		<path class="st0" d="M31.6,29.2v0.4c-0.3,0.1-0.6,0.2-1,0.2c-0.3,0-0.6-0.1-0.8-0.2c-0.2-0.1-0.4-0.3-0.5-0.5
			c-0.1-0.2-0.2-0.4-0.2-0.7c0-0.4,0.1-0.7,0.4-1c0.3-0.2,0.6-0.4,1.1-0.4c0.3,0,0.6,0.1,0.9,0.2v0.4c-0.3-0.2-0.6-0.3-0.9-0.3
			c-0.3,0-0.6,0.1-0.8,0.3c-0.2,0.2-0.3,0.4-0.3,0.7c0,0.3,0.1,0.6,0.3,0.7c0.2,0.2,0.4,0.3,0.8,0.3C30.9,29.5,31.2,29.4,31.6,29.2z
			"/>
	</g>
	<g>
		<path class="st0" d="M33,27h0.3l1.2,2.7h-0.4L33.8,29h-1.2l-0.4,0.8h-0.4L33,27z M33.6,28.7l-0.4-1l-0.4,1H33.6z"/>
		<path class="st0" d="M36.2,29.8L36.2,29.8c0.1,0.1,0.1,0.1,0.1,0.1c0.1,0.1,0.1,0.1,0.1,0.1c0,0.1-0.1,0.2-0.1,0.2
			c-0.1,0.1-0.2,0.1-0.4,0.1c-0.1,0-0.1,0-0.1,0v-0.2c0.1,0,0.1,0,0.1,0c0.1,0,0.1,0,0.2-0.1c0.1,0,0.1-0.1,0.1-0.1
			c0-0.1,0-0.1-0.1-0.1s-0.1-0.1-0.1-0.1h-0.1l0.1-0.2c-0.2,0-0.4-0.1-0.6-0.1c-0.2-0.1-0.4-0.3-0.5-0.5s-0.2-0.4-0.2-0.7
			c0-0.4,0.1-0.7,0.4-1c0.3-0.2,0.6-0.4,1.1-0.4c0.3,0,0.6,0.1,0.9,0.2v0.4c-0.3-0.2-0.6-0.3-0.9-0.3s-0.6,0.1-0.8,0.3
			s-0.3,0.4-0.3,0.7c0,0.3,0.1,0.6,0.3,0.7c0.2,0.2,0.4,0.3,0.8,0.3c0.4,0,0.6-0.1,1-0.3v0.4C36.9,29.8,36.6,29.8,36.2,29.8
			L36.2,29.8z"/>
		<path class="st0" d="M38.6,27h0.3l1.2,2.7h-0.4L39.4,29h-1.2l-0.4,0.8h-0.4L38.6,27z M39.4,26.3c0,0.1-0.1,0.3-0.1,0.4
			c-0.1,0.1-0.1,0.1-0.2,0.1c-0.1,0-0.1-0.1-0.3-0.1c-0.1-0.1-0.2-0.1-0.3-0.1c-0.1,0-0.1,0-0.1,0.1s-0.1,0.1-0.1,0.1h-0.1
			c0-0.2,0.1-0.3,0.1-0.4c0.1-0.1,0.1-0.1,0.2-0.1c0.1,0,0.2,0.1,0.4,0.1c0.1,0.1,0.1,0.1,0.2,0.1c0.1,0,0.1,0,0.1-0.1
			c0.1-0.1,0.1-0.1,0.1-0.1L39.4,26.3L39.4,26.3L39.4,26.3z M39.2,28.7l-0.4-1l-0.4,1H39.2z"/>
		<path class="st0" d="M41.8,27c0.4,0,0.8,0.1,1.1,0.4c0.3,0.2,0.4,0.6,0.4,1s-0.1,0.7-0.4,1c-0.3,0.2-0.6,0.4-1.1,0.4
			c-0.4,0-0.7-0.1-1.1-0.4s-0.5-0.6-0.5-1c0-0.4,0.1-0.7,0.4-1C41,27.2,41.4,27,41.8,27z M41.8,27.4c-0.3,0-0.6,0.1-0.8,0.3
			s-0.3,0.4-0.3,0.7s0.1,0.6,0.3,0.7c0.2,0.2,0.4,0.3,0.7,0.3c0.3,0,0.6-0.1,0.7-0.3c0.2-0.2,0.3-0.4,0.3-0.7c0-0.3-0.1-0.6-0.3-0.7
			C42.3,27.5,42.1,27.4,41.8,27.4z"/>
		<path class="st0" d="M44.9,27h1.6v0.4h-1.1v0.9h1.1v0.4h-1.1v0.9h1.2v0.4H45L44.9,27L44.9,27z"/>
		<path class="st0" d="M49.4,27c0.4,0,0.8,0.1,1.1,0.4c0.3,0.2,0.4,0.6,0.4,1s-0.1,0.7-0.4,1c-0.3,0.2-0.6,0.4-1.1,0.4
			s-0.7-0.1-1.1-0.4s-0.4-0.6-0.4-1c0-0.4,0.1-0.7,0.4-1C48.6,27.2,48.9,27,49.4,27z M49.4,27.4c-0.3,0-0.6,0.1-0.8,0.3
			c-0.2,0.2-0.3,0.4-0.3,0.7s0.1,0.6,0.3,0.7c0.2,0.2,0.4,0.3,0.7,0.3c0.3,0,0.6-0.1,0.7-0.3c0.2-0.2,0.3-0.4,0.3-0.7
			c0-0.3-0.1-0.6-0.3-0.7C49.9,27.5,49.7,27.4,49.4,27.4z"/>
	</g>
	<g>
		<path class="st0" d="M2.5,33.3v0.5H0.4v-2.7h2v0.5H1.1v0.6h1.2v0.5H1.1v0.6C1.1,33.3,2.5,33.3,2.5,33.3z"/>
		<path class="st0" d="M5.8,31.1v2.7H5.1l-1.5-1.7v1.7H2.9v-2.7h0.7l1.4,1.7v-1.7C5.1,31.1,5.8,31.1,5.8,31.1z"/>
		<path class="st0" d="M8.3,31.3v0.6c-0.4-0.1-0.6-0.2-0.9-0.2c-0.1,0-0.2,0-0.3,0.1c-0.1,0.1-0.1,0.1-0.1,0.1s0.1,0.1,0.1,0.1
			c0.1,0.1,0.2,0.1,0.4,0.2c0.2,0.1,0.4,0.1,0.5,0.2c0.1,0.1,0.2,0.1,0.3,0.2c0.1,0.1,0.1,0.2,0.1,0.4s-0.1,0.4-0.3,0.6
			s-0.4,0.2-0.7,0.2c-0.4,0-0.6-0.1-1-0.2v-0.6c0.2,0.1,0.4,0.2,0.5,0.2c0.1,0.1,0.3,0.1,0.4,0.1c0.2,0,0.4-0.1,0.4-0.2
			c0-0.1-0.1-0.1-0.1-0.1c-0.1-0.1-0.2-0.1-0.4-0.2c-0.2-0.1-0.4-0.1-0.5-0.2c-0.1-0.1-0.2-0.1-0.3-0.2c-0.1-0.1-0.1-0.2-0.1-0.4
			c0-0.2,0.1-0.4,0.3-0.6c0.2-0.1,0.4-0.2,0.7-0.2C7.6,31.1,7.9,31.1,8.3,31.3z"/>
		<path class="st0" d="M9.6,31.1v2.7H8.9v-2.7H9.6z"/>
		<path class="st0" d="M12.9,31.1v2.7h-0.6l-1.5-1.7v1.7h-0.7v-2.7h0.6l1.4,1.7v-1.7H12.9z"/>
		<path class="st0" d="M15,31.1c0.4,0,0.9,0.1,1.1,0.4c0.3,0.3,0.4,0.6,0.4,1c0,0.4-0.1,0.7-0.4,1C15.9,33.9,15.5,34,15,34
			c-0.4,0-0.9-0.1-1.1-0.4c-0.3-0.3-0.4-0.6-0.4-1s0.1-0.7,0.4-1C14.2,31.2,14.5,31.1,15,31.1z M15,33.3c0.2,0,0.4-0.1,0.6-0.2
			c0.1-0.1,0.2-0.4,0.2-0.6s-0.1-0.4-0.2-0.6c-0.1-0.1-0.4-0.2-0.6-0.2c-0.2,0-0.4,0.1-0.6,0.2c-0.1,0.1-0.2,0.4-0.2,0.6
			s0.1,0.4,0.2,0.6C14.5,33.3,14.8,33.3,15,33.3z"/>
		<path class="st0" d="M18.3,31.1h1.2c0.3,0,0.5,0.1,0.6,0.2s0.2,0.4,0.2,0.6c0,0.2-0.1,0.4-0.2,0.6c-0.1,0.2-0.4,0.2-0.6,0.2h-0.6
			v1.1h-0.7L18.3,31.1L18.3,31.1z M19,31.6v0.6h0.3c0.3,0,0.4-0.1,0.4-0.3c0-0.1-0.1-0.2-0.1-0.2c-0.1-0.1-0.2-0.1-0.4-0.1L19,31.6
			L19,31.6z"/>
		<path class="st0" d="M20.9,31.1h1.2c0.2,0,0.5,0.1,0.6,0.2c0.1,0.1,0.2,0.4,0.2,0.6c0,0.3-0.1,0.6-0.4,0.6
			c0.1,0.1,0.2,0.2,0.4,0.5c0.1,0.3,0.2,0.6,0.4,0.8h-0.7c-0.1-0.1-0.1-0.2-0.2-0.5c-0.1-0.2-0.2-0.4-0.3-0.5s-0.1-0.1-0.2-0.1h-0.2
			v1.1H21L20.9,31.1L20.9,31.1z M21.6,31.6v0.6h0.4c0.1,0,0.2-0.1,0.2-0.1c0.1-0.1,0.1-0.1,0.1-0.2c0-0.2-0.1-0.3-0.4-0.3
			C21.8,31.6,21.6,31.6,21.6,31.6z"/>
	</g>
	<g>
		<path class="st0" d="M25,31.1c0.4,0,0.9,0.1,1.1,0.4s0.4,0.6,0.4,1c0,0.4-0.1,0.7-0.4,1C25.9,33.9,25.5,34,25,34
			c-0.4,0-0.9-0.1-1.1-0.4c-0.3-0.3-0.4-0.6-0.4-1s0.1-0.7,0.4-1C24.1,31.2,24.6,31.1,25,31.1z M25,33.3c0.2,0,0.4-0.1,0.6-0.2
			c0.1-0.1,0.2-0.4,0.2-0.6s-0.1-0.4-0.2-0.6c-0.1-0.1-0.4-0.2-0.6-0.2c-0.2,0-0.4,0.1-0.6,0.2c-0.1,0.1-0.2,0.4-0.2,0.6
			s0.1,0.4,0.2,0.6C24.6,33.3,24.8,33.3,25,33.3z"/>
		<path class="st0" d="M29,31.1v0.5h-1.2v0.6H29v0.5h-1.2v1.1h-0.7v-2.7H29z"/>
		<path class="st0" d="M30.2,31.1v2.7h-0.7v-2.7H30.2z"/>
		<path class="st0" d="M32.8,31.3v0.6c-0.4-0.1-0.6-0.2-0.9-0.2c-0.1,0-0.2,0-0.3,0.1c-0.1,0.1-0.1,0.1-0.1,0.1s0.1,0.1,0.1,0.1
			c0.1,0.1,0.2,0.1,0.4,0.2c0.2,0.1,0.4,0.1,0.5,0.2c0.1,0.1,0.2,0.1,0.3,0.2c0.1,0.1,0.1,0.2,0.1,0.4s-0.1,0.4-0.3,0.6
			s-0.4,0.2-0.7,0.2c-0.4,0-0.6-0.1-1-0.2v-0.6c0.2,0.1,0.4,0.2,0.5,0.2c0.1,0.1,0.3,0.1,0.4,0.1c0.2,0,0.4-0.1,0.4-0.2
			c0-0.1-0.1-0.1-0.1-0.1c-0.1-0.1-0.2-0.1-0.4-0.2c-0.2-0.1-0.4-0.1-0.5-0.2c-0.1-0.1-0.2-0.1-0.3-0.2c-0.1-0.1-0.1-0.2-0.1-0.4
			c0-0.2,0.1-0.4,0.3-0.6c0.2-0.1,0.4-0.2,0.7-0.2C32.1,31.1,32.4,31.1,32.8,31.3z"/>
		<path class="st0" d="M35.2,31.3v0.6c-0.4-0.1-0.6-0.2-0.9-0.2c-0.1,0-0.2,0-0.3,0.1C34,31.8,34,31.8,34,31.8S34,31.9,34,32
			c0.1,0.1,0.2,0.1,0.4,0.2c0.2,0.1,0.4,0.1,0.5,0.2c0.1,0.1,0.2,0.1,0.3,0.2c0.1,0.1,0.1,0.2,0.1,0.4s-0.1,0.4-0.3,0.6
			c-0.2,0.1-0.4,0.2-0.7,0.2c-0.4,0-0.6-0.1-1-0.2v-0.6c0.2,0.1,0.4,0.2,0.5,0.2c0.1,0.1,0.3,0.1,0.4,0.1c0.2,0,0.4-0.1,0.4-0.2
			c0-0.1-0.1-0.1-0.1-0.1c-0.1-0.1-0.2-0.1-0.4-0.2c-0.2-0.1-0.4-0.1-0.5-0.2c-0.1-0.1-0.2-0.1-0.3-0.2c-0.1-0.1-0.1-0.2-0.1-0.4
			c0-0.2,0.1-0.4,0.3-0.6c0.2-0.1,0.4-0.2,0.7-0.2C34.5,31.1,34.9,31.1,35.2,31.3z"/>
		<path class="st0" d="M36.5,31.1v2.7h-0.7v-2.7H36.5z"/>
		<path class="st0" d="M38.6,31.1c0.4,0,0.9,0.1,1.1,0.4s0.4,0.6,0.4,1c0,0.4-0.1,0.7-0.4,1c-0.3,0.3-0.6,0.4-1.1,0.4
			c-0.4,0-0.9-0.1-1.1-0.4c-0.3-0.3-0.4-0.6-0.4-1s0.1-0.7,0.4-1C37.7,31.2,38.1,31.1,38.6,31.1z M38.6,33.3c0.2,0,0.4-0.1,0.6-0.2
			c0.1-0.1,0.2-0.4,0.2-0.6s-0.1-0.4-0.2-0.6s-0.4-0.2-0.6-0.2c-0.2,0-0.4,0.1-0.6,0.2c-0.1,0.1-0.2,0.4-0.2,0.6s0.1,0.4,0.2,0.6
			C38.1,33.3,38.4,33.3,38.6,33.3z"/>
		<path class="st0" d="M43.4,31.1v2.7h-0.6l-1.5-1.7v1.7h-0.7v-2.7h0.6l1.4,1.7v-1.7H43.4z"/>
		<path class="st0" d="M45.7,31.1l1.2,2.7h-0.7L46,33.3h-1.2l-0.2,0.6h-0.7l1.1-2.7H45.7z M45.8,32.8l-0.4-1.1L45,32.8H45.8z"/>
		<path class="st0" d="M49.3,33.3v0.5h-2.1v-2.7H48v2.2H49.3z"/>
	</g>
	<g>
		<path class="st0" d="M49.6,34.4L49.6,34.4c0.1-0.1,0.1-0.1,0.1-0.2s0.1-0.1,0.1-0.2c-0.1-0.1-0.2-0.1-0.2-0.2s0-0.1,0.1-0.2
			s0.1-0.1,0.1-0.1s0.1,0.1,0.2,0.1c0.1,0.1,0.1,0.1,0.1,0.2c0,0.1-0.1,0.2-0.1,0.4C49.9,34.2,49.8,34.3,49.6,34.4z"/>
	</g>
	<g>
		<path class="st0" d="M51.3,31.1h0.4v2.7h-0.4V31.1z"/>
		<path class="st0" d="M52.5,33.4c0.1,0,0.1,0,0.1,0.1s0.1,0.1,0.1,0.1c0,0.1,0,0.1-0.1,0.1c-0.1,0.1-0.1,0.1-0.1,0.1
			s-0.1,0-0.1-0.1c-0.1-0.1-0.1-0.1-0.1-0.1c0-0.1,0-0.1,0.1-0.1C52.3,33.4,52.4,33.4,52.5,33.4z"/>
		<path class="st0" d="M53.2,33.9v-2.7h0.9c0.2,0,0.4,0.1,0.6,0.2c0.1,0.1,0.2,0.4,0.2,0.6c0,0.1-0.1,0.3-0.1,0.4
			c-0.1,0.1-0.2,0.2-0.4,0.2c-0.1,0.1-0.4,0.1-0.6,0.1h-0.3v1.2C53.6,33.9,53.2,33.9,53.2,33.9z M54.1,31.5h-0.4v0.9h0.4
			c0.1,0,0.3-0.1,0.4-0.1c0.1-0.1,0.1-0.2,0.1-0.3C54.6,31.6,54.4,31.5,54.1,31.5z"/>
	</g>
	<g>
		<path class="st0" d="M54.9,33.4c0.1,0,0.1,0,0.1,0.1s0.1,0.1,0.1,0.1c0,0.1,0,0.1-0.1,0.1c-0.1,0.1-0.1,0.1-0.1,0.1
			s-0.1,0-0.1-0.1s-0.1-0.1-0.1-0.1c0-0.1,0-0.1,0.1-0.1C54.7,33.4,54.7,33.4,54.9,33.4z"/>
	</g>
</g>
</svg>
