<svg id="Layer_1" data-name="Layer 1" xmlns="http://www.w3.org/2000/svg" xmlns:xlink="http://www.w3.org/1999/xlink" width="433" height="100" viewBox="0 0 433 100"><defs><style>.cls-1{fill:none;}.cls-2{fill:#4f5254;}.cls-3{clip-path:url(#clip-path);}.cls-4{fill:url(#linear-gradient);}.cls-5{clip-path:url(#clip-path-2);}.cls-6{fill:url(#linear-gradient-2);}.cls-7{fill:#58595b;}.cls-8{clip-path:url(#clip-path-3);}.cls-9{fill:url(#linear-gradient-3);}.cls-10{clip-path:url(#clip-path-4);}.cls-11{fill:url(#linear-gradient-4);}</style><clipPath id="clip-path"><path class="cls-1" d="M9.38,4A4.56,4.56,0,0,0,4.81,8.57V41.4a73.21,73.21,0,0,0,17.86,2.78c1.45-.79,2.88-1.67,4.28-2.61,1.62-8,6.85-14.32,15.6-15.38,4.88-7,7.94-14.79,7.94-22.19H9.38Z"/></clipPath><linearGradient id="linear-gradient" x1="-86.58" y1="979.74" x2="-82.96" y2="979.74" gradientTransform="matrix(0, 11.71, 11.71, 0, -11446.78, 1011.78)" gradientUnits="userSpaceOnUse"><stop offset="0" stop-color="#d71921"/><stop offset="0.19" stop-color="#d71921"/><stop offset="0.29" stop-color="#da2a1e"/><stop offset="0.48" stop-color="#e35517"/><stop offset="0.74" stop-color="#f09a0c"/><stop offset="1" stop-color="#ffe600"/></linearGradient><clipPath id="clip-path-2"><path class="cls-1" d="M22.62,44.18h0m.05,0c.36,0,2.29.07,3.87.07A26.22,26.22,0,0,1,27,41.57c-1.4.94-2.83,1.82-4.28,2.61M27,41.57h0m0,0ZM35.59,44c5.63-.08,13.62-1.37,13.62-7.23,0-2.81-1.83-4.26-4.57-4.26-6.08,0-8.82,5.86-9,11.49M50.49,4c0,7.39-3.06,15.19-7.94,22.19A22.25,22.25,0,0,1,45.18,26c7.45,0,12.4,3.81,12.4,10.58A11.33,11.33,0,0,1,54,45.29,72.05,72.05,0,0,0,80.87,30.92V8.57A4.56,4.56,0,0,0,76.31,4Z"/></clipPath><linearGradient id="linear-gradient-2" x1="-77.21" y1="967.66" x2="-73.58" y2="967.66" gradientTransform="matrix(14.58, 0, 0, -14.58, 1151.02, 14132.71)" gradientUnits="userSpaceOnUse"><stop offset="0" stop-color="#ffe600"/><stop offset="0.1" stop-color="#fedf01"/><stop offset="0.25" stop-color="#facd04"/><stop offset="0.42" stop-color="#f4af09"/><stop offset="0.61" stop-color="#ec8510"/><stop offset="0.82" stop-color="#e24f18"/><stop offset="1" stop-color="#d71921"/></linearGradient><clipPath id="clip-path-3"><path class="cls-1" d="M4.82,54h0v3.87a38,38,0,0,0,75.72,5.14c-8.41,9.86-22.06,16.1-36,16.1C26.65,79.15,10.88,69.87,4.91,54Z"/></clipPath><linearGradient id="linear-gradient-3" x1="-84.74" y1="967.85" x2="-81.12" y2="967.85" gradientTransform="matrix(0, -18.68, -18.68, 0, 18117.68, -1481.45)" gradientUnits="userSpaceOnUse"><stop offset="0" stop-color="#ede836"/><stop offset="0.05" stop-color="#d6dc37"/><stop offset="0.2" stop-color="#9ec139"/><stop offset="0.34" stop-color="#6da83b"/><stop offset="0.48" stop-color="#46953c"/><stop offset="0.62" stop-color="#27863e"/><stop offset="0.75" stop-color="#127b3e"/><stop offset="0.88" stop-color="#04743f"/><stop offset="1" stop-color="#00723f"/></linearGradient><clipPath id="clip-path-4"><path class="cls-1" d="M4.81,54c.17.44.43.86.62,1.29.29.68.59,1.34.91,2C13.17,71.2,28,79.24,44.66,79.24c13.87,0,27.37-6.17,35.82-15.88a37.56,37.56,0,0,0,.39-5.44V53.38c-6.57.27-14.21,2-22.54,8.34a23.25,23.25,0,0,1-14,4.71c-11.55,0-16.78-6.32-17.77-15.74-7.12.06-15.73-.14-21.76-1.29ZM54,45.29l-.06.05c-3.66,3.38-9.54,4.58-14.85,4.92h0l-1.86.09-1.35.06c.31,4.93,2.9,8.94,9.35,8.94A16.44,16.44,0,0,0,54.84,56c5.08-3.61,14.68-9.94,26-12v-13A72,72,0,0,1,54,45.29"/></clipPath><linearGradient id="linear-gradient-4" x1="-87.65" y1="976" x2="-84.03" y2="976" gradientTransform="matrix(-15.93, 0, 0, 15.93, -1320.06, -15489.85)" gradientUnits="userSpaceOnUse"><stop offset="0" stop-color="#f9ec00"/><stop offset="0.28" stop-color="#e5da4a"/><stop offset="0.36" stop-color="#cdd249"/><stop offset="0.52" stop-color="#8ebd48"/><stop offset="0.74" stop-color="#2b9c46"/><stop offset="0.74" stop-color="#2a9c46"/><stop offset="1" stop-color="#007236"/></linearGradient></defs><path class="cls-2" d="M310.16,42.58c0-1.45-.35-2.34-1.38-2.34s-1.44.88-1.44,2.12.17,2.5,1.41,2.5c1,0,1.41-.94,1.41-2.28m1.57-.21c0,2.49-1.38,3.62-3.08,3.62s-2.87-1.11-2.87-3.45c0-2.68,1.74-3.43,3.07-3.43,1,0,2.88.29,2.88,3.26m2.57,13.4v-1h-2.18v1.05l.54,0c.25,0,.33.1.33.39v3.58c0,.32-.14.4-.38.42l-.43,0v1h3.46v-1l-1.12-.05v-3a1.2,1.2,0,0,1,1.18-1.3.81.81,0,0,1,.35.06.34.34,0,0,1,.13.32v.6l1.2-.09V54.89a2.83,2.83,0,0,0-1.24-.28,2,2,0,0,0-1.84,1.16m6-12V40.44a2.34,2.34,0,0,0-1-.21c-1.23,0-1.64,1.16-1.64,2.43s.28,2.17,1.39,2.17a1.13,1.13,0,0,0,1.23-1M318.66,46c-2,0-2.61-1.55-2.61-3.17,0-2.21,1.14-3.69,3.15-3.69a3.41,3.41,0,0,1,1.06.15V38c0-.23-.12-.3-.33-.32l-.56,0v-1h2.4v7.85c0,.22.11.3.33.3l.45,0v1h-2.1V45l0,0a2,2,0,0,1-1.75.95m-8.59,7a1,1,0,0,0-1-1,.93.93,0,0,0-1,1,.91.91,0,0,0,1,.94.94.94,0,0,0,1-.94m13,2.89a2.78,2.78,0,0,0-1-.17c-1.23,0-1.64,1.15-1.64,2.55,0,1.07.26,2.09,1.34,2.09a1.21,1.21,0,0,0,1.3-1.12Zm1.82,4.34.41,0v1h-2.06v-.75h0a2.18,2.18,0,0,1-1.78.93c-1.82,0-2.58-1.29-2.58-3.14,0-2.27,1.09-3.72,3.41-3.72a7.21,7.21,0,0,1,2.3.45v4.81c0,.28.08.36.33.37M397,55.9a2.78,2.78,0,0,0-1-.17c-1.22,0-1.64,1.15-1.64,2.55,0,1.07.26,2.09,1.34,2.09a1.21,1.21,0,0,0,1.3-1.12Zm1.82,4.34.41,0v1H397.2v-.75h0a2.15,2.15,0,0,1-1.77.93c-1.82,0-2.58-1.29-2.58-3.14,0-2.27,1.08-3.72,3.41-3.72a7.26,7.26,0,0,1,2.3.45v4.81c0,.28.07.36.32.37M360,55.94a2.51,2.51,0,0,0-1-.21c-1.23,0-1.64,1.16-1.64,2.43s.28,2.17,1.39,2.17a1.12,1.12,0,0,0,1.23-1Zm1.83,4.3.46,0v1h-2.1v-.76h0a2,2,0,0,1-1.75.94c-2,0-2.61-1.55-2.61-3.17,0-2.2,1.13-3.69,3.15-3.69a3.15,3.15,0,0,1,1.06.16V53.46c0-.22-.12-.3-.33-.31l-.56,0v-1h2.4V60c0,.21.11.29.32.29m-64.52,0c-1.15,0-1.66-.9-1.66-2.31s.53-2.21,1.56-2.21a1.54,1.54,0,0,1,.5.08c.24.08.27.2.27.44v.62l1.19-.09V55.14a4,4,0,0,0-2-.53c-1.46,0-3.08.9-3.08,3.53,0,2.14,1.13,3.34,3,3.34a3.56,3.56,0,0,0,2.25-.75l-.56-1a2.4,2.4,0,0,1-1.49.55m3.76-16.46c0,.91,0,2.15,2,2.15a3.1,3.1,0,0,0,1.64-.45l-.39-1a1.73,1.73,0,0,1-.88.27c-.53,0-.84-.23-.84-1v-3.4h1.59l.13-1.08h-1.72V37.93h-.84c-.27.74-.58,1.43-1.48,1.51l-.13.94h.91Zm1.24,13.83c1,0,2.31-.23,2.31-1.23a.68.68,0,0,0-.77-.72c-1,0-1.5,1-1.54,1.95m3.27,2,.49,1a3.77,3.77,0,0,1-2.27.72c-2.2,0-3-1.34-3-3.27s1.07-3.59,3.19-3.59c1.26,0,2.11.64,2.11,1.79,0,2-2.17,2.33-3.69,2.34A1.47,1.47,0,0,0,304,60.27a2.79,2.79,0,0,0,1.63-.57m51-15.87c0,.91,0,2.15,2,2.15a3.07,3.07,0,0,0,1.64-.45l-.39-1a1.73,1.73,0,0,1-.88.27c-.53,0-.84-.23-.84-1v-3.4h1.59l.13-1.08h-1.72V37.93h-.84c-.27.74-.58,1.43-1.48,1.51l-.13.94h.92Zm-4.37-1.95c-.6-.16-1.22-.35-1.22-.94s.41-.78,1-.78a2,2,0,0,1,.75.12.39.39,0,0,1,.29.44v.54l1.16-.09V39.62a5,5,0,0,0-2.14-.51c-1.36,0-2.49.71-2.49,2s1,1.76,2,2c.7.18,1.27.3,1.27.92s-.38.79-1,.79a2.57,2.57,0,0,1-.85-.13.4.4,0,0,1-.3-.44v-.62l-1.16.09v1.8a6.47,6.47,0,0,0,2.38.4c1.38,0,2.49-.73,2.49-2.07s-1.11-1.73-2.12-2m.61,17.68c0,.26,0,.41-.36.41h-2.08V57.55h3V56.24h-3V54h1.91c.35,0,.38.15.38.4v.51l1.32-.08V52.71H348.1v1.1l.73,0v6c0,.25-.15.33-.37.36l-.43,0v1h6.14V59l-1.32-.09Zm38.54,1.17-.56-1a2.39,2.39,0,0,1-1.48.55c-1.15,0-1.67-.9-1.67-2.31s.53-2.21,1.57-2.21a1.59,1.59,0,0,1,.5.08c.23.08.27.2.27.44v.62l1.19-.09V55.14a4,4,0,0,0-2-.53c-1.46,0-3.07.9-3.07,3.53,0,2,.91,3.11,2.51,3.3l-.41,1.28c.69,0,1.14.09,1.14.49s-.17.48-.62.48a3.38,3.38,0,0,1-.87-.16l-.2.67a3.07,3.07,0,0,0,1.16.23c.71,0,1.58-.31,1.58-1.26,0-.65-.52-1-1.2-1.05l.15-.65a3.45,3.45,0,0,0,2-.74M297.06,45v.84h2.1v-1l-.46,0c-.24,0-.32-.09-.32-.38V39.3h-2.27v1.06l.41,0c.25,0,.33.11.33.39V43.5a1.28,1.28,0,0,1-1.39,1.28c-.83,0-1-.6-1-1.39V39.3h-2.27v1.06l.41,0c.23,0,.33.1.33.37v3c0,1.52.71,2.24,2,2.24a2.53,2.53,0,0,0,2.09-1m47-2.81c1,0,2.31-.23,2.31-1.22a.69.69,0,0,0-.77-.73c-1,0-1.5,1-1.54,1.95m3.27,2.05.49,1a3.76,3.76,0,0,1-2.27.73c-2.2,0-3.05-1.35-3.05-3.27s1.07-3.59,3.19-3.59c1.27,0,2.11.64,2.11,1.79,0,2-2.16,2.33-3.69,2.34a1.46,1.46,0,0,0,1.59,1.53,2.79,2.79,0,0,0,1.63-.57M369.6,59.87V54.8h-2.28v1.06l.42,0c.24,0,.32.1.32.39V59a1.27,1.27,0,0,1-1.38,1.28c-.83,0-1-.59-1-1.38V54.8h-2.27v1.06l.41,0c.22,0,.32.09.32.36v3c0,1.52.71,2.23,2,2.23a2.51,2.51,0,0,0,2.09-1v.84h2.09v-1l-.45,0c-.24,0-.32-.09-.32-.37m13-4a2.68,2.68,0,0,0-1-.17c-1.23,0-1.64,1.15-1.64,2.55,0,1.07.25,2.09,1.34,2.09a1.2,1.2,0,0,0,1.29-1.12Zm1.82,4.34.42,0v1h-2.06v-.75h0a2.14,2.14,0,0,1-1.77.93c-1.82,0-2.58-1.29-2.58-3.14,0-2.27,1.09-3.72,3.41-3.72a7.21,7.21,0,0,1,2.3.45v4.81c0,.28.08.36.32.37m-9.49,0c-1.15,0-1.66-.9-1.66-2.31s.53-2.21,1.56-2.21a1.54,1.54,0,0,1,.5.08c.24.08.27.2.27.44v.62l1.19-.09V55.14a4,4,0,0,0-2-.53c-1.46,0-3.08.9-3.08,3.53,0,2.14,1.13,3.34,3,3.34a3.57,3.57,0,0,0,2.26-.75l-.56-1a2.42,2.42,0,0,1-1.49.55M325.45,42.15c1,0,2.31-.23,2.31-1.22a.69.69,0,0,0-.77-.73c-1,0-1.5,1-1.54,1.95m3.27,2.05.49,1a3.76,3.76,0,0,1-2.27.73c-2.2,0-3.05-1.35-3.05-3.27s1.07-3.59,3.19-3.59c1.26,0,2.11.64,2.11,1.79,0,2-2.17,2.33-3.69,2.34a1.47,1.47,0,0,0,1.59,1.53,2.79,2.79,0,0,0,1.63-.57m12.92,11.7a2.74,2.74,0,0,0-1-.17c-1.22,0-1.64,1.15-1.64,2.55,0,1.07.26,2.09,1.35,2.09a1.2,1.2,0,0,0,1.29-1.12Zm1.82,4.34.41,0v1h-2.05v-.75h0a2.15,2.15,0,0,1-1.77.93c-1.82,0-2.59-1.29-2.59-3.14,0-2.27,1.09-3.72,3.42-3.72a7.26,7.26,0,0,1,2.3.45v4.81c0,.28.07.36.32.37m-3.15-17.45c0-.31.1-.4.37-.43l.3,0v-1h-3.22v1.1l1,0h0v1.92a3,3,0,0,1-1.37.31c-1.57,0-2.25-1.22-2.25-3.25s.77-3.09,2.5-3.09a3.25,3.25,0,0,1,1,.1c.23.08.27.18.27.43v1l1.32-.09v-2.2a6,6,0,0,0-2.53-.53c-1.86,0-4.12,1.13-4.12,4.47,0,3,1.46,4.43,3.8,4.43a5.33,5.33,0,0,0,3-.82Zm-6.56,13.15a2.51,2.51,0,0,0-1-.21c-1.23,0-1.64,1.16-1.64,2.43s.28,2.17,1.39,2.17a1.12,1.12,0,0,0,1.23-1Zm1.84,4.3.45,0v1h-2.1v-.76h0a2,2,0,0,1-1.75.94c-2,0-2.61-1.55-2.61-3.17,0-2.2,1.13-3.69,3.15-3.69a3.15,3.15,0,0,1,1.06.16V53.46c0-.22-.12-.3-.34-.31l-.55,0v-1h2.4V60c0,.21.1.29.33.29M310,54.8h-2.31v1.07l.45,0c.24,0,.32.09.32.38v3.59c0,.31-.14.39-.37.41l-.43,0v1h3.08v-1l-.74,0Zm-26.1-16.35a.94.94,0,0,0,1-1,1,1,0,0,0-2,0,.92.92,0,0,0,1,1m-8.63,5.45c0-1.41-1.11-1.73-2.12-2-.61-.16-1.23-.35-1.23-.94s.41-.78,1-.78a2,2,0,0,1,.75.12.4.4,0,0,1,.3.44v.54l1.16-.09V39.62a5.07,5.07,0,0,0-2.15-.51c-1.35,0-2.49.71-2.49,2s1.05,1.76,2,2c.69.18,1.26.3,1.26.92s-.38.79-1,.79a2.49,2.49,0,0,1-.85-.13.39.39,0,0,1-.3-.44v-.62l-1.17.09v1.8a6.51,6.51,0,0,0,2.38.4c1.39,0,2.5-.73,2.5-2.07m16.82,13c0-1.53-.76-2.25-2.05-2.25a2.55,2.55,0,0,0-2.1,1V54.8h-2.18v1l.54,0c.23,0,.32.12.32.41v3.58c0,.32-.13.4-.37.42l-.43,0v1h3.08v-1l-.74,0V57.1a1.27,1.27,0,0,1,1.33-1.3c.88,0,1.06.54,1.06,1.39v2.67c0,.32-.13.4-.37.42l-.43,0v1h3.07v-1l-.73,0Zm-4.6-13c0,.91,0,2.15,2,2.15a3,3,0,0,0,1.63-.45l-.38-1a1.73,1.73,0,0,1-.88.27c-.53,0-.84-.23-.84-1v-3.4h1.59l.13-1.08H289V37.93h-.84c-.27.74-.58,1.43-1.49,1.51l-.12.94h.91Zm83.2-1.47c0,1.2.17,2.5,1.41,2.5,1,0,1.41-.94,1.41-2.28s-.35-2.34-1.38-2.34-1.44.88-1.44,2.12m-1.56.18c0-2.68,1.74-3.43,3.08-3.43.95,0,2.88.29,2.88,3.26,0,2.49-1.39,3.62-3.09,3.62s-2.87-1.11-2.87-3.45M395.3,53.23c.42,0,1.08.35,1.61.35s1-.35,1.33-1.13l-.69-.37a.75.75,0,0,1-.57.41c-.49,0-1.14-.36-1.73-.36a1.48,1.48,0,0,0-1.32,1l.62.45a.8.8,0,0,1,.75-.37M363.85,37.72c.43,0,1.09.35,1.62.35s1-.35,1.33-1.12l-.7-.38a.75.75,0,0,1-.57.42c-.49,0-1.14-.37-1.73-.37a1.49,1.49,0,0,0-1.32,1l.62.46a.81.81,0,0,1,.75-.38m-.92,5.05c0,1.08.26,2.1,1.35,2.1a1.2,1.2,0,0,0,1.29-1.13V40.4a2.69,2.69,0,0,0-1-.17c-1.22,0-1.64,1.15-1.64,2.54m-1.57.06c0-2.28,1.08-3.72,3.41-3.72a7.26,7.26,0,0,1,2.3.45v4.8c0,.29.08.37.32.38l.42,0v1h-2.06v-.75h0a2.15,2.15,0,0,1-1.77.93c-1.82,0-2.58-1.3-2.58-3.14m-85.62,14c0-1.53-.76-2.25-2.05-2.25a2.55,2.55,0,0,0-2.09,1V54.8h-2.19v1l.54,0c.24,0,.33.12.33.41v3.58c0,.32-.13.4-.38.42l-.43,0v1h3.08v-1l-.73,0V57.1a1.26,1.26,0,0,1,1.32-1.3c.89,0,1.07.54,1.07,1.39v2.67c0,.32-.13.4-.38.42l-.43,0v1h3.08v-1l-.74,0Zm-7.65-15.51c0-1.52-.76-2.24-2-2.24a2.53,2.53,0,0,0-2.1,1V39.3h-2.18v1l.54,0c.23,0,.33.12.33.4v3.58c0,.32-.14.4-.38.43l-.43,0v1h3.08v-1l-.74,0V41.6a1.28,1.28,0,0,1,1.33-1.31c.88,0,1.06.54,1.06,1.4v2.66c0,.32-.13.4-.37.43l-.43,0v1h3.08v-1l-.74,0ZM279.5,46a3.07,3.07,0,0,0,1.64-.45l-.39-1a1.66,1.66,0,0,1-.87.27c-.53,0-.84-.23-.84-1v-3.4h1.59l.12-1.08H279V37.93h-.84c-.27.74-.59,1.43-1.49,1.51l-.13.94h.92v3.45c0,.91,0,2.15,2,2.15m2.59,9.92a2.68,2.68,0,0,0-1-.17c-1.23,0-1.64,1.15-1.64,2.55,0,1.07.26,2.09,1.34,2.09a1.2,1.2,0,0,0,1.29-1.12Zm1.83,4.34.41,0v1h-2.05v-.75h0a2.15,2.15,0,0,1-1.77.93c-1.83,0-2.59-1.29-2.59-3.14,0-2.27,1.09-3.72,3.42-3.72a7.21,7.21,0,0,1,2.29.45v4.81c0,.28.08.36.33.37M267.37,53a1,1,0,0,0-1-1,.94.94,0,0,0-1,1,.92.92,0,0,0,1,.94.94.94,0,0,0,1-.94M284.8,39.3h-2.31v1.07l.45,0c.25,0,.33.09.33.37v3.59c0,.31-.14.39-.38.42l-.42,0v1h3.07v-1l-.74,0Zm-24.53,5.4-.73,0v-6c0-.31.15-.38.37-.41l.43,0v-1h-3.13V38.3l.74,0v5.95c0,.32-.13.4-.38.42l-.42,0v1h3.12Zm7,10.1H265v1.07l.46,0c.24,0,.32.09.32.38v3.59c0,.31-.14.39-.37.41l-.43,0v1H268v-1l-.74,0Zm-10.05-2.09h6.24v2.15l-1.32.08v-.51c0-.25,0-.4-.38-.4h-2.23v2.28h3.18v1.32h-3.18v2.53l1.15,0v1.1h-3.53v-1l.43,0c.22,0,.37-.11.37-.36v-6l-.73,0Z"/><path class="cls-2" d="M426.38,60.53a.87.87,0,0,0,1,.92.92.92,0,1,0-1-.92m-4-3.52V53.94h.79c1.26,0,2,.21,2,1.53,0,1.15-.76,1.54-1.88,1.54ZM420,61.26h3.61v-1.1l-1.24,0V58.26h1.1c1.94,0,3.33-1,3.33-2.94,0-1.73-1.16-2.63-3-2.63H420v1.1l.73,0v6c0,.25-.15.33-.38.36l-.42,0Zm-2.81-.73a.94.94,0,1,0,.92-.92.88.88,0,0,0-.92.92m-3.26-.78c0,.32-.13.4-.37.43l-.42,0v1h3.11v-1.1l-.73,0V54.19a.36.36,0,0,1,.37-.42l.43,0V52.69h-3.12v1.1l.73,0Zm-4.29.49a2.23,2.23,0,0,0-1.1-.49c-.36,0-.58.26-.64.64L407.48,63l.81.24Zm-9-2.23c0,2.33,1.13,3.44,2.86,3.44s3.08-1.13,3.08-3.61c0-3-1.93-3.26-2.88-3.26-1.32,0-3.06.75-3.06,3.43m3,2.31c-1.24,0-1.4-1.29-1.4-2.49s.41-2.11,1.42-2.11,1.38.89,1.38,2.33-.4,2.27-1.4,2.27"/><g class="cls-3"><rect class="cls-4" x="-1.54" y="-3.77" width="58.38" height="55.72" transform="translate(-7.59 13.94) rotate(-25)"/></g><g class="cls-5"><rect class="cls-6" x="24.26" y="-8.83" width="54.96" height="66.96" transform="translate(14.55 68.24) rotate(-75)"/></g><path class="cls-7" d="M241.25,54.21c0,1-.1,1.64-1.44,1.64h-8.29V46.23h8.22V41h-8.22v-8.8h7.62c1.39,0,1.5.62,1.5,1.59v1.69h5.24V26.93H222.31V31.3l2.94.16V55.39c0,1-.62,1.34-1.5,1.44l-1.69.15v4.17H246.5V52l-5.25,0ZM101.73,31.3l2.93.16V55.13c0,1.29-.51,1.6-1.49,1.7l-1.7.15v4.17h12.46V56.78L111,56.62V32.9c0-1.24.61-1.54,1.49-1.65l1.7-.15V26.93H101.73Zm87.24,0,2.94.16V55.39c0,1-.62,1.34-1.49,1.44l-1.7.15v4.17h14.05V56.78l-4.58-.16V46.54h9V41.29h-9V32.18h8.9c1.39,0,1.49.62,1.49,1.59v1.7h5.25V26.93H189ZM178.6,54.77l2,4.17a15,15,0,0,1-9.06,2.88c-8.74,0-12.14-5.35-12.14-13s4.27-14.3,12.71-14.3c5,0,8.39,2.57,8.39,7.15,0,7.92-8.6,9.26-14.67,9.31.21,3.35,2,6.07,6.33,6.07a11,11,0,0,0,6.48-2.26m-13-8.13c3.8,0,9.21-.93,9.21-4.89,0-1.9-1.24-2.88-3.09-2.88-4.12,0-6,4-6.12,7.77m-27.05,1,4,.15h.05v7.67a12,12,0,0,1-5.45,1.24c-6.28,0-9-4.9-9-13,0-7.67,3-12.3,9.93-12.3a13.36,13.36,0,0,1,3.81.41c.93.31,1.09.72,1.09,1.7v1.95h5.24v-7a24.13,24.13,0,0,0-10.09-2.11c-7.4,0-16.41,4.48-16.41,17.81,0,11.94,5.81,17.65,15.13,17.65a21.3,21.3,0,0,0,11.84-3.29V49.16c0-1.23.41-1.59,1.49-1.7l1.18-.1V43.24H138.54Z"/><g class="cls-8"><rect class="cls-9" x="1.07" y="33.41" width="83.21" height="83.21" transform="translate(-40.55 52.14) rotate(-45)"/></g><g class="cls-10"><rect class="cls-11" x="9.66" y="12.1" width="66.36" height="85.97" transform="translate(-21.45 82.21) rotate(-75)"/></g></svg>