<svg id="Layer_1" data-name="Layer 1" xmlns="http://www.w3.org/2000/svg" width="477.5" height="100" viewBox="0 0 477.5 100"><defs><style>.cls-1{fill:#00662c;}.cls-1,.cls-10,.cls-2,.cls-3,.cls-4,.cls-5,.cls-7,.cls-8,.cls-9{fill-rule:evenodd;}.cls-2{fill:#e62e30;}.cls-3{fill:#64b333;}.cls-4{fill:#f7a316;}.cls-5,.cls-6{fill:#fce901;}.cls-7{fill:#000401;}.cls-8{fill:#fff;}.cls-9{fill:#00487a;}.cls-10,.cls-11{fill:#474747;}</style></defs><path class="cls-1" d="M31.37,4.1C12.68,10.12,3.2,26,3.2,50.51V87.67S6.33,63.78,31.37,56.89Zm0,0"/><path class="cls-2" d="M33.46,11.11S47.68,5.72,67.93,4.58c0,0-.06,16.91-.6,30.65C65.62,78.65,26.82,56.34,7.81,79.43c3.82-10,16.79-17.1,25.65-18.85Zm0,0"/><path class="cls-1" d="M28.21,73.11S7.59,74.78,5.83,86.54C4.44,95.76,28.21,96,28.21,96Zm0,0"/><path class="cls-3" d="M4.08,38.5c4.27-10,11.5-20.17,27.29-26.56V4.1C15.94,9.07,6.8,20.78,4.08,38.5Zm0,0"/><path class="cls-4" d="M31.87,56.61v.27s0,.06,0,.06h-.4a.06.06,0,0,1-.06-.06V51.83l.5,0Zm-.68,0A18.62,18.62,0,0,1,17,48.49l-.08-.12h0a3.47,3.47,0,0,1,.45-.17,18.17,18.17,0,0,0,13.73,7.92l.08.46ZM16,47.09a.19.19,0,0,1-.16-.07c0-.05-.21-.39-.21-.39s0,0,0,0a.56.56,0,0,1,.13-.27,18.57,18.57,0,0,1-1.93-7.15c.16-.07.31-.14.46-.19a18.66,18.66,0,0,0,1.84,7,6.27,6.27,0,0,1,.95-.51,16.92,16.92,0,0,1-1.73-6.72,3.5,3.5,0,0,1,.48,0,16.36,16.36,0,0,0,1.69,6.53,17.67,17.67,0,0,1,2-.67c.63-.18,1.29-.35,2-.51a4.19,4.19,0,0,0,.2.49c-.71.15-1.39.32-2.05.52a.23.23,0,0,0-.11,0h0l-.1,0h0l-.1,0h0l-.1,0,0,0-.22.07h0l-.12,0h0l-.12,0h0l-.11,0-.23.08h0c-.19.08-.38.14-.55.22a4.68,4.68,0,0,0-.45.2s0,0-.06,0h0l-.06,0-.07,0-.32.15s0,0-.05,0a.05.05,0,0,0-.05,0h0l0,0-.25.16a1.4,1.4,0,0,0-.37.35l0,0h0a.47.47,0,0,0-.06.15s0,.06.09.08Zm.81,1.17A7.89,7.89,0,0,1,20,46.71c.76-.22,1.54-.41,2.35-.57l-.27-.48c-.73.16-1.46.34-2.2.55a.38.38,0,0,1-.1,0h0s-.05,0-.08,0h0l-.2.06h0l-.08,0s0,0,0,0l-.2.07h0a.11.11,0,0,0-.08,0h0l-.18.06s0,0,0,0l-.08,0h0l-.19.07h0l-.09,0-.17.08-.45.18-.21.1-.25.13h0l-.05,0h0s-.07,0-.11.05h0l-.05,0h0l0,0h0l-.09.06h0l0,0h0l0,0a3.67,3.67,0,0,0-.38.32h0s0,0,0,0a.53.53,0,0,0-.12.2v0s.17.26.21.34a.39.39,0,0,0,.23.14c-.16-.1-.09-.22-.06-.25Zm-3-9.33.07-.07a2.58,2.58,0,0,1,.4-.29A6,6,0,0,1,15.3,38l.47-.19a28.39,28.39,0,0,1,4.42-1.22l.55-.1V36c-.21,0-.42.07-.62.12l-.15,0h0a.2.2,0,0,1-.1,0l-.07,0h-.08l-.06,0-.1,0h-.06l-.08,0h-.06l-.09,0-.06,0a.15.15,0,0,0-.09,0H19l-.08,0h-.06l-.09,0-.06,0h-.08l-.06,0-.08,0h-.05a.29.29,0,0,1-.1,0H18.3l-.08,0,0,0-.12,0h0l-.14,0h0a.24.24,0,0,1-.1,0l0,0-.09,0-.05,0-.08,0h-.05l-.08,0h-.05a.11.11,0,0,1-.07,0h-.06l-.07,0h-.06l-.07,0h-.06l-.06,0-.06,0-.07,0,0,0-.08,0h0l-.07,0h-.05l-.07,0,0,0-.09,0h0l-.11,0a.29.29,0,0,0-.11,0h0l-.08,0h0l-.06,0c-.19.06-.38.14-.56.21h0l-.17.07h0l-.07,0,0,0-.06,0h0l-.05,0h0l-.05,0h0l-.14.08h0l-.06,0h0l-.05,0,0,0h-.06l0,0s0,0,0,0l-.06,0h0a2.57,2.57,0,0,0-.5.35l0,0a.76.76,0,0,0-.21.29h0v.51c0,.08.09.12.14.15-.11-.1,0-.24,0-.29a.33.33,0,0,1,.09-.11Zm37.53-.26h0v.51c0,.07-.09.12-.13.15s0-.25,0-.3l-.1-.1a.21.21,0,0,1,0-.06h0l-.07-.07c-.1-.07-.22-.16-.34-.23a5.9,5.9,0,0,0-1-.53l-.1,0-.33-.14h0a27.92,27.92,0,0,0-4.43-1.22l-.54-.1V36l.62.12.15,0h0a.23.23,0,0,0,.11,0l.06,0h.09l.06,0h.15s.06,0,.08,0h.07l.08,0,.07,0,.08,0,.06,0H46l.08,0,.06,0h.09l0,0a.15.15,0,0,1,.09,0h0l.1,0h0l.12,0h0l.14,0h0l.11,0h0l.09,0,.05,0h.09a.05.05,0,0,0,.05,0l.08,0h0l.08,0,0,0,.07,0h0l.08,0h0l.07,0h0l.08,0,0,0,.08,0,0,0,.08,0h0l.11,0h0l.23.08h0l.1,0h0s0,0,.07,0h0l.07,0h0l.07,0a4.87,4.87,0,0,1,.53.21h0l.06,0h0l0,0h0l.08,0h0l0,0,0,0,0,0,0,0,.05,0h0l0,0h0s0,0,.06,0h0l.08,0s0,0,0,0l0,0h0l0,0s0,0,0,0h0s0,0,0,0l0,0s0,0,0,0a2.21,2.21,0,0,1,.49.35l0,0a.77.77,0,0,1,.21.31Zm0-1.61a.93.93,0,0,0-.3-.37A18.44,18.44,0,0,0,49.26,30c0-.06,0-.11-.07-.17h0a5,5,0,0,0-.62-.14,17.7,17.7,0,0,1,1.93,6.67,8.14,8.14,0,0,0-1.1-.53,17.15,17.15,0,0,0-2.07-6.25c-.27,0-.46,0-.55,0a.08.08,0,0,0,0,0,0,0,0,0,0,0,0c.18.32.36.66.52,1a16.37,16.37,0,0,1,1.55,5,26.78,26.78,0,0,0-4.18-1.12l-.62-.11v.52l.52.09.14,0h0l.14,0h0l.14,0h0a.66.66,0,0,0,.15,0h0l.13,0a0,0,0,0,1,0,0l.13,0h0l.13,0,.14,0h0l.13,0h0l.13,0h0l.13,0h0l.13,0h0l.12,0h0a.58.58,0,0,1,.14,0l.14,0h0l.14,0h0l.13,0h0l.27.08h0s.09,0,.12,0h0l.13,0h0l.13,0h0l.12,0h0l.12,0h0l.25.09h0l.11,0,.12,0h0l.12,0h0l.12,0h0l.11,0s0,0,0,0l.12,0,.58.23h0l.06,0h0l.07,0h0l.08,0a.09.09,0,0,1,.06,0h0l.07,0h0l.06,0h0l.06,0h0l.06,0h0l0,0h0l.06,0h0l.05,0h0s0,0,0,0h0l0,0h0l0,0h0s0,0,0,0h0a2.25,2.25,0,0,1,.46.37.06.06,0,0,1,.05,0s0,0,0,0,.18.22.11.29a.11.11,0,0,0,.1-.12v-.48h0ZM51,39.18a3.45,3.45,0,0,0-.46-.19,18.25,18.25,0,0,1-1.7,6.72,9.91,9.91,0,0,0-.75-.87,17.23,17.23,0,0,0,1.41-6.05H49c0,.08,0,.15,0,.21s0,.06,0,.09,0,.06,0,.09a.37.37,0,0,1,0,.11v.08s0,.07,0,.11a.57.57,0,0,0,0,.13.19.19,0,0,1,0,.08c0,.06,0,.12,0,.17v0l0,.19h0a.28.28,0,0,1,0,.09,16.27,16.27,0,0,1-1.17,4.3,40.6,40.6,0,0,0-3.71-3c0,.21-.05.41-.09.62l.12.08s0,0,0,0a.16.16,0,0,0,.08.06l0,0,.09.07,0,0,.11.07s0,0,0,0l.11.09,0,0,.08.07s0,0,0,0a.27.27,0,0,1,.08.07l0,0,.11.09h0l.12.09s0,0,0,0l.09.07,0,0a.24.24,0,0,0,.09.06s0,0,0,0l.1.08.12.09h0l.09.08a0,0,0,0,1,0,0l.1.07,0,0c.07,0,.14.12.22.17h0l.1.08,0,0a.27.27,0,0,1,.08.07s0,0,0,0l.31.26h0l.1.09h0l.29.26h0a.6.6,0,0,0,.08.08h0l.27.25a.6.6,0,0,0,.08.08h0c.29.27.53.53.76.77h0a.13.13,0,0,1,0,.06h0l0,0h0a4.3,4.3,0,0,1,.49.66.49.49,0,0,1,.13.23h0a1,1,0,0,1,0,.14c.07.29-.08.47-.17.49.12,0,.15-.06.23-.17s.23-.35.23-.35a.73.73,0,0,0-.07-.63A18.36,18.36,0,0,0,51,39.45c0-.09,0-.18,0-.26ZM47,49.54l-.14.16h0s-.08.09-.12.15a18.6,18.6,0,0,1-13.31,6.73v.29a.05.05,0,0,1,0,0,0,0,0,0,1,0,0H33a.06.06,0,0,1,0-.06v-5a2.91,2.91,0,0,0,.51,0v2.76a16.65,16.65,0,0,0,10.64-4.79l0,0,.12-.12h0c.34-.35.67-.7,1-1.08.17,0,.34.1.49.15a17,17,0,0,1-12.26,6.34v1.07a18.15,18.15,0,0,0,13.21-6.9,2,2,0,0,1,.35.32Zm.52-.48a.32.32,0,0,1,0,.28s-.15.26-.21.34a.41.41,0,0,1-.33.2s.34-.05.17-.5a.33.33,0,0,0-.06-.14,2.21,2.21,0,0,0-.2-.32h0a8.78,8.78,0,0,0-.72-.79,3.76,3.76,0,0,0-.35-.34,37.84,37.84,0,0,0-3-2.43c.07-.16.15-.32.23-.49a36.83,36.83,0,0,1,3.45,2.85l.18.18h0s0,0,0,.06h0s0,0,0,0h0s0,0,0,.06h0s0,0,0,0h0l0,0h0a.07.07,0,0,1,0,0h0l.09.09h0l0,0h0a.05.05,0,0,0,0,0,0,0,0,0,1,0,0,1.79,1.79,0,0,1,.29.46s0,0,0,0h0v0a0,0,0,0,1,0,0,.11.11,0,0,1,0,.07ZM31.37,20.89V19s0,0,.06,0h.4a0,0,0,0,1,0,0v5.61h-.5ZM13.5,37.55v-.48h0a.93.93,0,0,1,.3-.37A18.63,18.63,0,0,1,15.09,31v0l0-.06,0-.1h0l.08-.18s0,0,0-.05a4.46,4.46,0,0,1,.45.16,18.24,18.24,0,0,0-1.41,5.58,9.17,9.17,0,0,1,1.12-.53,17,17,0,0,1,1.19-4.47,3.34,3.34,0,0,1,.37.38c-.11.25-.2.5-.29.75,0,0,0,0,0,0a16.5,16.5,0,0,0-.75,3.12,28,28,0,0,1,4.18-1.11l.62-.12v.52l-.52.1-.14,0h0l-.12,0h0l-.12,0h0l-.13,0h0l-.13,0a0,0,0,0,0,0,0l-.13,0h0l-.13,0h0l-.13,0h0l-.13,0h0l-.14,0h0a.58.58,0,0,0-.14,0l-.14,0h0a.61.61,0,0,0-.13,0h0l-.14,0-.13,0h0a.5.5,0,0,0-.13,0h0l-.12,0-.29.08-.12,0h0l-.13,0h0l-.13,0-.13,0-.13,0-.25.08h0l-.13.05h0l-.12,0h0a2.5,2.5,0,0,0-.25.09l-.11,0h0l-.11,0a4.34,4.34,0,0,0-.5.2l-.08,0h0l-.06,0h0l-.15.07h0l-.08,0h0l-.07,0-.07,0a.09.09,0,0,1-.07,0h0s-.06,0-.07,0h0l-.12.06a.15.15,0,0,0-.06,0h0l-.12.07-.05,0h0l-.06,0a2.63,2.63,0,0,0-.47.36l0,0c-.09.1-.25.24-.16.34a.14.14,0,0,1-.1-.13ZM31.36,19.34l-.08,0,.08,0ZM48.79,29a1.63,1.63,0,0,1,.38.25l.28.48a.19.19,0,0,1-.13.25c.06,0,.14-.11,0-.22l-.16-.09h0a13.31,13.31,0,0,0-2.2-.81h0l-.7-.19h0c-.64-.16-1.34-.33-2.11-.48v-.51l.28.05h0l.07,0h.1s0,0,0,0h.11l.06,0h0l.07,0h0l.06,0,.09,0h.14l.06,0h.13l.07,0h.11a0,0,0,0,1,0,0h.1a.16.16,0,0,0,.09,0l.74.2a.19.19,0,0,1,.1,0l.22.05.31.09.91.29c.29.11.54.2.73.29l0,0ZM33,19.33v5.31h.5V21.38a16.48,16.48,0,0,1,8.92,3.28h.78a17,17,0,0,0-9.7-3.77V19.84a18.15,18.15,0,0,1,13.37,7.07c-.54-.19-1.17-.39-1.87-.58-.28-.3-.57-.59-.88-.88v1.18h0l.15,0h0l.15,0,.15.05a.74.74,0,0,1,.17,0c.32.08.63.16.94.26h0a.7.7,0,0,1,.12,0h0l.11,0,.11,0s0,0,0,0l.12,0h0l.11,0a.22.22,0,0,0,.1,0h0l.21.07h0a.24.24,0,0,0,.09,0h0l.09,0,.1,0h0a.29.29,0,0,0,.1,0l.09,0h0l.09,0h0l.1,0a8.68,8.68,0,0,1,.86.42l.06,0s0,0,0,0l.2.14c.18.16.15.21.09.26a.18.18,0,0,0,.08-.26c-.08-.1-.37-.58-.37-.58s0,0,0,0a2.24,2.24,0,0,0-.56-.33,18.66,18.66,0,0,0-14.24-8V19a0,0,0,0,0-.05-.05H33a.05.05,0,0,0,0,0ZM20.6,49.68l0,0A19.84,19.84,0,0,1,19.16,48a3,3,0,0,0-.62,0A17,17,0,0,0,31,55l-.07-.49A16.61,16.61,0,0,1,20.6,49.68ZM15,30.82c0-.3.21-.38.39-.39h.51a10,10,0,0,1,1.07.24h0l.46.14a33.63,33.63,0,0,1,3.36,1.34V31.6l-.12,0,0,0-.08,0-.05,0-.06,0h-.05l-.06,0s0,0,0,0l-.07,0,0,0-.07,0s0,0,0,0-.05,0-.07,0h0l-.07,0a.05.05,0,0,0,0,0l-.07,0,0,0s-.05,0-.07,0h0l-.07,0h0l-.08,0h0l-.08,0h0l-.08,0h0l-.08,0h0l-.08,0h0s-.05,0-.08,0,0,0,0,0l-.08,0h0l-.08,0h0l-.09,0h0l-.09,0h0l-.09,0-.09,0h0s-.05,0-.08,0h0l-.09,0-.08,0h0l-.08,0h0l-.09,0-.08,0-.09,0-.16-.05c-.16-.05-.32-.11-.46-.14A7.26,7.26,0,0,0,16.08,30a3.32,3.32,0,0,0-.41,0h-.13a.64.64,0,0,0-.32.09,0,0,0,0,1,0,0L15,30.5a.5.5,0,0,0,0,.32Zm15.92-9.41a16.43,16.43,0,0,0-8.42,3.23h-.78A16.89,16.89,0,0,1,31,20.92Zm-13.12,5.8h0Zm-1.08.49h0s0,0,0,0h.72l.05,0h0a1.13,1.13,0,0,1,.18,0h.07l.2,0,.07,0h0l.22,0,.8.23.08,0h0l.07,0h0l.25.08,0,0,.07,0,0,0a.19.19,0,0,1,.08,0l.1,0,.06,0,.07,0,.06,0,.07,0h.05a.52.52,0,0,0,.13.06h0l.11,0,0,0,.09,0s0,0,0,0l.14.06V27.6l-.46.1-.41.09-.12,0-.05,0-.06,0h-.07a.06.06,0,0,0-.05,0l-.06,0-.05,0c-.3-.1-.59-.19-.86-.26h0l-.07,0h0l-.08,0h0l-.09,0h0l.11,0a.7.7,0,0,1,.12,0h0a.54.54,0,0,1,.11,0l.25-.07h0l.12,0h0c.52-.15,1.1-.3,1.73-.44v-.52h0v-.67c-.31.29-.61.59-.89.9a15.74,15.74,0,0,0-1.88.58,18.16,18.16,0,0,1,13.14-7.08l.07-.49a18.61,18.61,0,0,0-14,7.81,1,1,0,0,0-.58.16s0,0,0,0l-.28.49a.54.54,0,0,0,0,.23c0-.17.13-.3.37-.37Zm0,0"/><path class="cls-5" d="M15.43,35.82a17,17,0,0,1,1.19-4.47,3,3,0,0,0-.9-.58,18.24,18.24,0,0,0-1.41,5.58,9.17,9.17,0,0,1,1.12-.53Zm32.67,9a9.91,9.91,0,0,1,.75.87A18.25,18.25,0,0,0,50.55,39a4.18,4.18,0,0,0-1-.2,17.23,17.23,0,0,1-1.41,6.05Zm-31,.67a16.92,16.92,0,0,1-1.73-6.72,4,4,0,0,0-1.06.2,18.66,18.66,0,0,0,1.84,7,6.27,6.27,0,0,1,.95-.51Zm16.42,9.54v1.07a18.15,18.15,0,0,0,13.21-6.9,4,4,0,0,0-.94-.51,17.07,17.07,0,0,1-12.27,6.34ZM18.54,48a4.22,4.22,0,0,0-1.16.19,18.17,18.17,0,0,0,13.73,7.92L31,55a17,17,0,0,1-12.41-7ZM33.46,20.89a17,17,0,0,1,9.7,3.77h.92v.79c.31.29.6.58.88.88.7.19,1.33.39,1.87.58a18.15,18.15,0,0,0-13.37-7.07Zm15.11,8.79a6.86,6.86,0,0,0-1.24-.11,17.15,17.15,0,0,1,2.07,6.25,8.14,8.14,0,0,1,1.1.53,17.7,17.7,0,0,0-1.93-6.67ZM18,26.93a18.16,18.16,0,0,1,13.14-7.08L31,20.92a16.89,16.89,0,0,0-9.27,3.72h-.94v.81c-.31.29-.61.59-.89.9a17.82,17.82,0,0,0-1.88.58Zm0,0"/><path class="cls-5" d="M48.28,28.08a15,15,0,0,0-4.2-1.45v1A25.56,25.56,0,0,1,48.81,29Zm0,0"/><path class="cls-5" d="M19.87,27.79c.28-.06.57-.14.87-.19v-1c-.93.21-1.76.44-2.45.67a15.38,15.38,0,0,1,1.58.48Zm0,0"/><path class="cls-5" d="M20.74,34.92l-.53.1c-2.62.51-5.57,1.43-6.41,2.29l-.09.08v1c.74-.73,3.28-1.63,6.41-2.25.2,0,.41-.08.62-.12Zm0,0"/><path class="cls-5" d="M51,37.31c-.84-.86-3.78-1.78-6.41-2.29l-.52-.09V36l.62.12c3.12.62,5.65,1.52,6.4,2.24v-1L51,37.31Zm0,0"/><path class="cls-5" d="M21.63,44.63c-.71.16-1.39.33-2.05.53C18,45.6,16.29,46.31,16,46.85h0l.58,1a7.79,7.79,0,0,1,3.38-1.6c.74-.21,1.47-.39,2.2-.55a7.43,7.43,0,0,1-.48-1Zm0,0"/><rect class="cls-6" x="31.87" y="19.24" width="1.09" height="5.4"/><path class="cls-5" d="M32.39,51.88h-.52v4.9H33V51.85a3.63,3.63,0,0,1-.57,0Zm0,0"/><path class="cls-5" d="M48.75,46.48a22.39,22.39,0,0,0-4.82-4.4,11.5,11.5,0,0,1-.82,2.79c2.47,1.85,4.19,3.36,4.43,4.12l1.39-2.13a.91.91,0,0,0-.18-.38Zm0,0"/><path class="cls-5" d="M20.74,28.65a11.09,11.09,0,0,0-3.57-1h0a1.89,1.89,0,0,0-.46.05L15.53,30h.13a16.88,16.88,0,0,1,5.08,1.66Zm0,0"/><path class="cls-7" d="M47.19,49.45s0,0,0,0a.05.05,0,0,0,0,0,.33.33,0,0,0-.06-.14,6,6,0,0,0-1.26-1.45h0a36.82,36.82,0,0,0-2.94-2.42A11.9,11.9,0,0,1,37,51a45.09,45.09,0,0,0,4.88-.69c.5-.07,1.33-.25,2.26-.47a16.46,16.46,0,0,0,1.13-1.23,3.69,3.69,0,0,1,1.8,1l-.28.34H47c.07,0,.27-.07.18-.42Zm4-10.33h-.06l0,0a.35.35,0,0,0-.05-.08l-.14-.12A5.55,5.55,0,0,0,49.42,38c-.12-.06-.24-.1-.37-.15V38a44,44,0,0,1-5,1.14v1.06c0,.33,0,.66,0,1a48.7,48.7,0,0,0,4.86-1c.06-.46.1-.93.13-1.39a3.81,3.81,0,0,1,2,.39,1.14,1.14,0,0,1,0,.26.87.87,0,0,0,.2-.12.18.18,0,0,0,0-.19ZM48.6,47.36h.17a.43.43,0,0,0,.16-.49Zm0-18.9s0-.1-.12-.24a.94.94,0,0,0-.19-.14l.23.41s.06,0,.08,0Zm2.62,9.21c.07-.07,0-.19-.11-.28v.31a.24.24,0,0,0,.12,0Zm-7.13-8.4v2.12c1.27-.26,2.38-.53,3.25-.78-.17-.35-.36-.7-.55-1a7.72,7.72,0,0,1,2.41.25h0c0,.06.05.11.07.17h0a.05.05,0,0,0,0,0c.06,0,.13-.1-.06-.21l-.16-.09a14.37,14.37,0,0,0-2.92-1,.56.56,0,0,1,.05.08,21.18,21.18,0,0,1-2.16.54Zm0,0"/><path class="cls-7" d="M16,46.86a.47.47,0,0,0-.06.15s0,.06.09.08h.12Zm8.22,1.56-.12-.12c-1.76-.26-3.55-.6-5.42-1a.2.2,0,0,1-.06-.07,4.44,4.44,0,0,0-1.78,1.06.17.17,0,0,0,.05.26h0l.27.1-.17-.26A4.11,4.11,0,0,1,19.16,48a16.36,16.36,0,0,0,1.44,1.65,47.59,47.59,0,0,0,7.13,1.19,11.91,11.91,0,0,1-3.56-2.45Zm7,8.16.18,0v-2l-.49,0ZM20.74,40.21v-1a42.66,42.66,0,0,1-5-1.13v-.2a5.69,5.69,0,0,0-.55.23,4.48,4.48,0,0,0-.44.19h0a4.13,4.13,0,0,0-.9.58l-.08.08-.06.08,0,0h0v0h0v0H13.6v0h0v0h0v0h0a1,1,0,0,0,.2.11,2,2,0,0,1,0-.25,3.91,3.91,0,0,1,2-.39,12.82,12.82,0,0,0,.13,1.39,44.69,44.69,0,0,0,4.86,1,8.17,8.17,0,0,1-.05-1ZM15.06,31.1l.21-.49A3.25,3.25,0,0,1,17,31.73a8.12,8.12,0,0,0-.38,1c.64.55,1.49,1.2,2.54,1.95.32-.08.64-.14,1-.2s.41-.08.62-.12V32.15c-1.25-.56-2.36-1-3.26-1.3h0l-.05,0h0a6.81,6.81,0,0,0-1.87-.4h-.25a.41.41,0,0,0-.3.38.06.06,0,0,1,0,0,.13.13,0,0,0,0,.06,2.24,2.24,0,0,0,.1.26ZM31.37,19.34a.55.55,0,0,1-.18,0l-.31,2.06.49-.06ZM13.71,37.7v-.31c-.09.1-.18.21-.11.28a.2.2,0,0,0,.11,0Zm2.67-9.41a.9.9,0,0,1-.06-.22c0-.17.12-.3.36-.37Zm0,0"/><path class="cls-8" d="M32.35,52A11.84,11.84,0,0,1,20.56,40.48V24.58H44.15v15.9A11.84,11.84,0,0,1,32.35,52Zm0,0"/><path class="cls-2" d="M38.9,40.48a6.55,6.55,0,0,1-13.09,0V29.83H38.9V40.48ZM21.35,25.36V40.48a11,11,0,0,0,22,0V25.36Zm0,0"/><path class="cls-5" d="M23,28.83a1.08,1.08,0,0,1,.68-1,1.06,1.06,0,0,1,.67,1Zm2.12,0h0l-.11-1a.27.27,0,0,0,.24-.25.25.25,0,0,0-.25-.25h0l0-.45H25a0,0,0,0,0,0,0v-.32h-.14v.16h-.21v-.16h-.16v.16h-.21v-.16h-.14v.31a.06.06,0,0,0,.05.05h.11l0,.45H24l0-1H24a0,0,0,0,0,.05-.05V26h-.15v.15h-.21V26h-.15v.15h-.2V26h-.15v.32s0,0,.05.05h.07l0,1H23l0-.45h.11s.05,0,.05,0v-.32H23v.16h-.2v-.16h-.16v.16h-.21v-.16h-.14v.31a.05.05,0,0,0,.05.05h.09l0,.45h0a.25.25,0,0,0,0,.49l-.1,1H22.2a.25.25,0,0,0-.24.25.23.23,0,0,0,.24.23h2.88a.24.24,0,0,0,.25-.23.25.25,0,0,0-.25-.25Zm0,0"/><path class="cls-5" d="M31.71,28.83a1.09,1.09,0,0,1,.68-1,1.08,1.08,0,0,1,.69,1Zm2.13,0h-.07l-.09-1a.26.26,0,0,0,.23-.25.25.25,0,0,0-.24-.25h0l0-.45h.12a0,0,0,0,0,0,0v-.32h-.14v.16H33.4v-.16h-.15v.16H33v-.16h-.15v.31a.06.06,0,0,0,.06.05h.11l0,.45h-.28l-.06-1h.08a.06.06,0,0,0,.06-.05V26h-.15v.15h-.21V26h-.15v.15h-.21V26H32v.32s0,0,0,.05h.08l-.05,1h-.28l0-.45h.1s.06,0,.06,0v-.32h-.16v.16h-.21v-.16h-.14v.16h-.22v-.16H31v.31a.06.06,0,0,0,.05.05h.11l0,.45h0a.25.25,0,0,0,0,.49l-.11,1h0a.24.24,0,0,0-.25.25.23.23,0,0,0,.25.23h2.87a.23.23,0,0,0,.24-.23.25.25,0,0,0-.24-.25Zm0,0"/><path class="cls-5" d="M40.39,28.83a1.08,1.08,0,0,1,.68-1h0a1.09,1.09,0,0,1,.67,1Zm2.12,0h0l-.1-1a.27.27,0,0,0,.23-.25.25.25,0,0,0-.25-.25h0l0-.45h.1a0,0,0,0,0,0,0v-.32h-.14v.16h-.21v-.16h-.16v.16h-.21v-.16h-.14v.31a.05.05,0,0,0,0,.05h.11l0,.45h-.27l-.07-1h.09a0,0,0,0,0,0-.05V26h-.14v.15h-.22V26H41v.15h-.21V26h-.14v.32s0,0,0,.05h.07l0,1h-.29v-.45h.1s.05,0,.05,0v-.32h-.15v.16H40.2v-.16h-.15v.16h-.21v-.16h-.15v.31a.06.06,0,0,0,.05.05h.11l0,.45h0a.25.25,0,0,0-.25.25.24.24,0,0,0,.23.24l-.1,1h0a.25.25,0,0,0-.24.25.23.23,0,0,0,.24.23h2.88a.23.23,0,0,0,.24-.23.24.24,0,0,0-.24-.25Zm0,0"/><path class="cls-5" d="M23,37.85a1.06,1.06,0,0,1,.68-1,1,1,0,0,1,.67,1Zm2.12,0h0l-.11-1a.25.25,0,0,0,.24-.25.25.25,0,0,0-.25-.25h0l0-.44H25a0,0,0,0,0,0,0v-.32h-.14v.17h-.21v-.17h-.16v.17h-.21v-.17h-.14v.32a.06.06,0,0,0,.05,0h.11l0,.44H24l0-1H24a.05.05,0,0,0,.05,0V35h-.15v.16h-.21V35h-.15v.16h-.2V35h-.15v.31a.07.07,0,0,0,.05.06h.07l0,1H23l0-.44h.11a.05.05,0,0,0,.05,0v-.32H23v.17h-.2v-.17h-.16v.17h-.21v-.17h-.14v.32a.05.05,0,0,0,.05,0h.09l0,.44h0a.25.25,0,0,0-.25.25.26.26,0,0,0,.23.25l-.1,1H22.2a.25.25,0,0,0-.24.25.24.24,0,0,0,.24.24h2.88a.25.25,0,0,0,.25-.24.25.25,0,0,0-.25-.25Zm0,0"/><path class="cls-5" d="M40.39,37.85a1.06,1.06,0,0,1,.68-1h0a1.07,1.07,0,0,1,.67,1Zm2.12,0h0l-.1-1a.24.24,0,0,0,.23-.25.25.25,0,0,0-.25-.25h0l0-.44h.1a0,0,0,0,0,0,0v-.32h-.14v.17h-.21v-.17h-.16v.17h-.21v-.17h-.14v.32a.05.05,0,0,0,0,0h.11l0,.44h-.27l-.07-1h.09a.05.05,0,0,0,0,0V35h-.14v.16h-.22V35H41v.16h-.21V35h-.14v.31a.07.07,0,0,0,0,.06h.07l0,1h-.29v-.44h.1a.05.05,0,0,0,.05,0v-.32h-.15v.17H40.2v-.17h-.15v.17h-.21v-.17h-.15v.32a.06.06,0,0,0,.05,0h.11l0,.44h0a.25.25,0,0,0,0,.5l-.1,1h0a.25.25,0,0,0-.24.25.24.24,0,0,0,.24.24h2.88a.23.23,0,0,0,.24-.24.24.24,0,0,0-.24-.25Zm0,0"/><path class="cls-5" d="M26.12,47.23A1.07,1.07,0,0,1,25.88,46a1,1,0,0,1,1.22.25Zm1.5-1.5,0,0-.78-.64a.24.24,0,0,0,0-.34.27.27,0,0,0-.36,0l0,0-.33-.3,0,0,.06-.06a0,0,0,0,0,0-.06L26,44.15l-.11.1.11.13-.14.14-.12-.11-.11.09.11.12-.15.15-.1-.11-.11.1.22.23h.08l.05-.06,0,0,.3.33-.2.19-.72-.63.06,0s0-.06,0-.07l-.22-.23-.11.11.11.11-.15.15-.1-.11-.11.11.11.1-.15.16L24.41,45l-.11.1.22.22a.06.06,0,0,0,.08,0l0-.06.64.72-.19.2-.34-.28v0l.06,0a0,0,0,0,0,0-.07l-.23-.24-.1.11.11.1-.14.17-.11-.12-.12.11.12.11-.15.14L24.1,46l-.1.1.22.23h.08l.06-.07h0l.29.32v0a.25.25,0,0,0,0,.36A.27.27,0,0,0,25,47l.63.78,0,0a.23.23,0,0,0,0,.34.25.25,0,0,0,.36,0l2-2a.26.26,0,0,0,0-.35.23.23,0,0,0-.36,0Zm0,0"/><path class="cls-5" d="M37.77,46.27A1,1,0,0,1,39,46a1,1,0,0,1-.25,1.21Zm-.9-.53a.26.26,0,0,0,0,.35l2,2a.23.23,0,0,0,.35,0,.25.25,0,0,0,0-.34l0,0,.65-.78a.25.25,0,0,0,.33,0,.25.25,0,0,0,0-.36l0,0,.3-.32h0l.06.07h.07l.22-.23-.1-.09-.11.09L40.49,46l.1-.11-.1-.11-.11.12-.15-.17.11-.1-.09-.11-.24.24s0,0,0,.07l.06,0,0,0-.34.28-.19-.2.64-.72.06.06s.06,0,.07,0l.22-.22-.11-.1-.1.11-.16-.16.12-.1-.12-.11-.09.11-.16-.15.11-.11-.11-.11-.22.23s0,0,0,.07l.06,0-.73.63-.19-.19.29-.33,0,0,0,.06h.07l.23-.23-.11-.1-.11.11-.14-.15.11-.12-.11-.09-.11.11-.15-.14.11-.13-.1-.1-.23.23a0,0,0,0,0,0,.06l.06.06,0,0-.32.3,0,0a.27.27,0,0,0-.36,0,.26.26,0,0,0,0,.34l-.78.64,0,0a.23.23,0,0,0-.36,0Zm0,0"/><path class="cls-8" d="M33.16,43.48a.29.29,0,0,0-.28.28.28.28,0,1,0,.56,0,.29.29,0,0,0-.28-.28Zm0,0"/><path class="cls-8" d="M31.59,43.49a.29.29,0,0,0-.28.28.29.29,0,1,0,.58,0,.28.28,0,0,0-.3-.28Zm0,0"/><path class="cls-9" d="M32.35,35.05a1.5,1.5,0,0,0,1.46-1.55V31.44H30.9V33.5a1.5,1.5,0,0,0,1.45,1.55Zm0,0"/><path class="cls-8" d="M31.94,32.25a.33.33,0,1,0-.33.33.33.33,0,0,0,.33-.33Zm0,0"/><path class="cls-8" d="M32.69,33a.34.34,0,0,0-.34-.34A.33.33,0,0,0,32,33a.32.32,0,0,0,.32.32.33.33,0,0,0,.34-.32Zm0,0"/><path class="cls-8" d="M33.43,33.73a.33.33,0,0,0-.66,0,.33.33,0,1,0,.66,0Zm0,0"/><path class="cls-8" d="M33.1,32.58a.33.33,0,1,0-.33-.33.33.33,0,0,0,.33.33Zm0,0"/><path class="cls-8" d="M31.61,34.07a.34.34,0,0,0,.33-.34.33.33,0,0,0-.66,0,.34.34,0,0,0,.33.34Zm0,0"/><path class="cls-9" d="M32.35,40.06a1.5,1.5,0,0,0,1.46-1.54V36.44H30.9v2.08a1.5,1.5,0,0,0,1.45,1.54Zm0,0"/><path class="cls-8" d="M31.94,37.27a.33.33,0,1,0-.66,0,.33.33,0,0,0,.66,0Zm0,0"/><path class="cls-8" d="M32.69,38a.34.34,0,0,0-.34-.34A.33.33,0,0,0,32,38a.32.32,0,0,0,.32.32.33.33,0,0,0,.34-.32Zm0,0"/><path class="cls-8" d="M33.43,38.75a.33.33,0,1,0-.33.33.33.33,0,0,0,.33-.33Zm0,0"/><path class="cls-8" d="M33.1,37.59a.33.33,0,0,0,.33-.32.33.33,0,1,0-.66,0,.33.33,0,0,0,.33.32Zm0,0"/><path class="cls-8" d="M31.61,39.08a.33.33,0,1,0-.33-.33.33.33,0,0,0,.33.33Zm0,0"/><path class="cls-9" d="M28.35,40.06a1.49,1.49,0,0,0,1.45-1.54V36.44H26.9v2.08a1.49,1.49,0,0,0,1.45,1.54Zm0,0"/><path class="cls-8" d="M27.93,37.27a.33.33,0,0,0-.33-.34.34.34,0,0,0-.33.34.33.33,0,0,0,.33.32.32.32,0,0,0,.33-.32Zm0,0"/><path class="cls-8" d="M28.68,38A.33.33,0,1,0,28,38a.33.33,0,0,0,.66,0Zm0,0"/><path class="cls-8" d="M29.42,38.75a.33.33,0,1,0-.33.33.33.33,0,0,0,.33-.33Zm0,0"/><path class="cls-8" d="M29.09,37.59a.33.33,0,0,0,.33-.32.33.33,0,1,0-.66,0,.33.33,0,0,0,.33.32Zm0,0"/><path class="cls-8" d="M27.6,39.08a.33.33,0,0,0,0-.66.33.33,0,1,0,0,.66Zm0,0"/><path class="cls-9" d="M36.36,40.06a1.5,1.5,0,0,0,1.46-1.54V36.44h-2.9v2.08a1.49,1.49,0,0,0,1.44,1.54Zm0,0"/><path class="cls-8" d="M36,37.27a.33.33,0,0,0-.33-.34.34.34,0,0,0-.33.34.33.33,0,0,0,.33.32.32.32,0,0,0,.33-.32Zm0,0"/><path class="cls-8" d="M36.7,38a.34.34,0,0,0-.34-.34A.33.33,0,0,0,36,38a.32.32,0,0,0,.32.32A.33.33,0,0,0,36.7,38Zm0,0"/><path class="cls-8" d="M37.44,38.75a.33.33,0,0,0-.33-.33.33.33,0,0,0,0,.66.33.33,0,0,0,.33-.33Zm0,0"/><path class="cls-8" d="M37.11,37.59a.32.32,0,0,0,.33-.32.33.33,0,0,0-.33-.34.34.34,0,0,0-.33.34.33.33,0,0,0,.33.32Zm0,0"/><path class="cls-8" d="M35.62,39.08a.33.33,0,0,0,0-.66.33.33,0,0,0,0,.66Zm0,0"/><path class="cls-9" d="M32.35,45.07a1.49,1.49,0,0,0,1.46-1.54V41.46H30.9v2.07a1.49,1.49,0,0,0,1.45,1.54Zm0,0"/><path class="cls-8" d="M31.94,42.28a.33.33,0,1,0-.33.32.33.33,0,0,0,.33-.32Zm0,0"/><path class="cls-8" d="M32.69,43a.34.34,0,0,0-.34-.33.33.33,0,0,0,0,.66.34.34,0,0,0,.34-.33Zm0,0"/><path class="cls-8" d="M33.43,43.76a.33.33,0,0,0-.66,0,.33.33,0,1,0,.66,0Zm0,0"/><path class="cls-8" d="M33.1,42.6a.33.33,0,1,0-.33-.32.33.33,0,0,0,.33.32Zm0,0"/><path class="cls-8" d="M31.61,44.1a.34.34,0,0,0,.33-.34.33.33,0,1,0-.66,0,.34.34,0,0,0,.33.34Zm0,0"/><path class="cls-10" d="M102.88,20.5a6.26,6.26,0,0,0-3.74-.92l-1.1,0q-.53,0-1,.06v7.8c.19,0,.45,0,.78.06H99a5.79,5.79,0,0,0,3.76-1.11,3.66,3.66,0,0,0,1.36-3,3.39,3.39,0,0,0-1.24-2.95Zm1.46,20.6L97.7,30.45h-.62v7.77a13.78,13.78,0,0,1,2.52.44V41.1H90V38.7a12,12,0,0,1,1.54-.29c.53-.07,1.08-.14,1.64-.19V19.36c-.56,0-1.11-.11-1.64-.18a12,12,0,0,1-1.54-.3v-2.4h2.85c.24,0,.59,0,1,0l1.63-.06,2,0h2.2a15.79,15.79,0,0,1,3.49.36,8,8,0,0,1,2.73,1.15,5.31,5.31,0,0,1,1.78,2.06,7.23,7.23,0,0,1,.61,3.1,6.48,6.48,0,0,1-.47,2.53,6.05,6.05,0,0,1-1.36,2,7.18,7.18,0,0,1-2,1.41,9.45,9.45,0,0,1-2.61.79c.26.31.51.65.75,1s.47.7.69,1l4.25,6.38,1.24.19,1.39.25V41.1Zm0,0"/><path class="cls-10" d="M111.82,41.1V38.69c.48-.12,1-.21,1.52-.29s1.09-.13,1.65-.18V19.32q-.84-.06-1.65-.18a11.71,11.71,0,0,1-1.52-.28V16.48h16.3v5.87h-2.88c-.1-.5-.18-1-.26-1.48s-.13-.9-.18-1.29h-5.87V27h4.7c.06-.4.11-.8.19-1.18a6.24,6.24,0,0,1,.29-1.07h2.48v7.43h-2.48a5.8,5.8,0,0,1-.29-1.11c-.08-.4-.13-.78-.19-1.14h-4.7v8h5.91c0-.44.11-.9.18-1.39s.17-1,.29-1.53h2.88V41.1Zm0,0"/><path class="cls-10" d="M144.38,20.77a5.68,5.68,0,0,0-4-1.19h-1a5.66,5.66,0,0,0-1,.08v9c.29,0,.59.08.87.1a8.77,8.77,0,0,0,.88,0,6.19,6.19,0,0,0,4-1.29,4.29,4.29,0,0,0,1.49-3.45,4.34,4.34,0,0,0-1.25-3.3Zm4.69,6.29a7.43,7.43,0,0,1-1.93,2.65,9.14,9.14,0,0,1-3,1.74,11.41,11.41,0,0,1-3.93.65h-.87a6.09,6.09,0,0,1-.95-.08v6.2c.56.05,1.1.12,1.64.19a12.34,12.34,0,0,1,1.54.29v2.4H131.26V38.7a11.53,11.53,0,0,1,1.53-.29c.53-.07,1.08-.14,1.64-.19V19.36c-.56,0-1.11-.11-1.64-.18a11.51,11.51,0,0,1-1.53-.3v-2.4H134c.29,0,.69,0,1.18,0l1.67-.06,1.89,0h1.94q4.41,0,6.72,2a6.77,6.77,0,0,1,2.33,5.42,8,8,0,0,1-.69,3.32Zm0,0"/><path class="cls-10" d="M162.78,14.73l-1.46-2.22,5.73-4,1.74,2.67Zm10.29,4.63V31.69c0,3.31-.86,5.77-2.54,7.37s-4.17,2.41-7.43,2.41a12.9,12.9,0,0,1-4.74-.73A6.63,6.63,0,0,1,154.11,36a13.58,13.58,0,0,1-.38-3.28V19.36c-.42,0-.83-.11-1.24-.18s-.8-.16-1.17-.25V16.48h9.12v2.45a9.77,9.77,0,0,1-1.37.27l-1.4.17V32.42a10.41,10.41,0,0,0,.24,2.3,4.31,4.31,0,0,0,.85,1.82,4.09,4.09,0,0,0,1.74,1.21,7.78,7.78,0,0,0,2.82.43,9.4,9.4,0,0,0,2.59-.32,4.08,4.08,0,0,0,1.81-1.08,4.69,4.69,0,0,0,1.06-2,10.69,10.69,0,0,0,.34-2.92V19.36c-.46,0-.94-.1-1.42-.16a8.48,8.48,0,0,1-1.35-.27V16.48h9.12v2.45a20.74,20.74,0,0,1-2.4.43Zm0,0"/><path class="cls-10" d="M192.81,32a3.46,3.46,0,0,0-1.24-1.19,5.8,5.8,0,0,0-1.87-.65,13.73,13.73,0,0,0-2.41-.2h-1.7a5.16,5.16,0,0,1-.53,0v7.84a17.49,17.49,0,0,0,2.88.19,5.81,5.81,0,0,0,4-1.19,3.9,3.9,0,0,0,1.3-3.05,3.23,3.23,0,0,0-.46-1.78Zm-.23-10.36a2.43,2.43,0,0,0-.77-1.08,4,4,0,0,0-1.44-.71,8.12,8.12,0,0,0-2.2-.25h-1.61c-.51,0-1,0-1.5.06v7.3q.48,0,1,0h1.13a6.92,6.92,0,0,0,4.19-1.06A3.43,3.43,0,0,0,192.8,23a4.25,4.25,0,0,0-.22-1.38ZM197,36.2a6.59,6.59,0,0,1-1.55,2.45,8.56,8.56,0,0,1-3,1.84,13.22,13.22,0,0,1-4.71.72c-.75,0-1.71,0-2.88-.05s-2.43-.06-3.8-.06H178V38.7a11.85,11.85,0,0,1,1.53-.29c.53-.07,1.08-.14,1.64-.19V19.36c-.56,0-1.11-.11-1.64-.18a11.84,11.84,0,0,1-1.53-.3v-2.4H181c.92,0,2.07,0,3.48-.05s2.83-.05,4.32-.05c2.7,0,4.73.51,6.09,1.56a5.25,5.25,0,0,1,2,4.41,5.59,5.59,0,0,1-1.14,3.43A6.29,6.29,0,0,1,192.76,28V28a6.31,6.31,0,0,1,2.1.77,5,5,0,0,1,1.46,1.31,5.66,5.66,0,0,1,.85,1.68,6,6,0,0,1,.3,1.87A7.94,7.94,0,0,1,197,36.2Zm0,0"/><path class="cls-10" d="M200.35,41.1V38.7a11.53,11.53,0,0,1,1.53-.29c.53-.07,1.08-.14,1.64-.19V19.36c-.56,0-1.11-.11-1.64-.18a11.51,11.51,0,0,1-1.53-.3v-2.4h10.29v2.4a12.34,12.34,0,0,1-1.54.3c-.53.07-1.08.14-1.64.19V37.82H213c.12-1,.29-2,.52-3.18h2.84V41.1Zm0,0"/><path class="cls-10" d="M217.82,41.1V38.7a12.18,12.18,0,0,1,1.53-.29c.54-.07,1.09-.14,1.64-.19V19.36c-.55,0-1.1-.11-1.64-.18a12.18,12.18,0,0,1-1.53-.3v-2.4h10.29v2.4a12,12,0,0,1-1.54.3c-.53.07-1.08.14-1.64.19V38.22c.56.05,1.11.12,1.64.19a12,12,0,0,1,1.54.29v2.4Zm0,0"/><path class="cls-10" d="M245.69,23.41c-.12-.61-.21-1.17-.27-1.7s-.11-1-.17-1.5a9.91,9.91,0,0,0-1.58-.3c-.5-.05-1-.08-1.56-.08a6.82,6.82,0,0,0-3.11.68,6.25,6.25,0,0,0-2.22,1.86,8,8,0,0,0-1.34,2.85,14.22,14.22,0,0,0-.44,3.63,14.49,14.49,0,0,0,.46,3.78,7.16,7.16,0,0,0,1.44,2.8,6.19,6.19,0,0,0,2.52,1.75,10.1,10.1,0,0,0,3.68.6,13.76,13.76,0,0,0,2.87-.31,13.22,13.22,0,0,0,2.64-.81l.26,3.64a24.87,24.87,0,0,1-3.22.83,19.62,19.62,0,0,1-3.46.3c-3.87,0-6.76-1-8.7-3.16s-2.9-5-2.9-8.76a18.59,18.59,0,0,1,.74-5.37A11.52,11.52,0,0,1,233.6,20a10.35,10.35,0,0,1,3.83-2.74,13.87,13.87,0,0,1,5.48-1,25.62,25.62,0,0,1,2.86.17c1,.13,1.93.3,2.88.52v6.49Zm0,0"/><path class="cls-10" d="M264.08,24.25a18.43,18.43,0,0,1-.62-1.86c-.17-.61-.33-1.26-.48-1.93h-.07a18.74,18.74,0,0,1-.48,1.93c-.19.66-.41,1.31-.65,2l-2.67,7.33h7.7Zm2.26,16.85V38.7c.41-.1.86-.19,1.35-.26s.95-.14,1.42-.18l-1.27-3.47H258.1l-1.24,3.47c.46,0,.93.11,1.41.18s.94.16,1.36.26v2.4h-8.87V38.7a7.24,7.24,0,0,1,1-.24c.38-.06.74-.12,1.08-.16l7.84-21.82h4.78l7.95,21.82c.34,0,.7.1,1.08.16a7.57,7.57,0,0,1,1,.24v2.4Zm0,0"/><path class="cls-10" d="M102.88,20.5a6.26,6.26,0,0,0-3.74-.92l-1.1,0q-.53,0-1,.06v7.8c.19,0,.45,0,.78.06H99a5.79,5.79,0,0,0,3.76-1.11,3.66,3.66,0,0,0,1.36-3,3.39,3.39,0,0,0-1.24-2.95Zm1.46,20.6L97.7,30.45h-.62v7.77a13.78,13.78,0,0,1,2.52.44V41.1H90V38.7a12,12,0,0,1,1.54-.29c.53-.07,1.08-.14,1.64-.19V19.36c-.56,0-1.11-.11-1.64-.18a12,12,0,0,1-1.54-.3v-2.4h2.85c.24,0,.59,0,1,0l1.63-.06,2,0h2.2a15.79,15.79,0,0,1,3.49.36,8,8,0,0,1,2.73,1.15,5.31,5.31,0,0,1,1.78,2.06,7.23,7.23,0,0,1,.61,3.1,6.48,6.48,0,0,1-.47,2.53,6.05,6.05,0,0,1-1.36,2,7.18,7.18,0,0,1-2,1.41,9.45,9.45,0,0,1-2.61.79c.26.31.51.65.75,1s.47.7.69,1l4.25,6.38,1.24.19,1.39.25V41.1Zm0,0"/><path class="cls-10" d="M111.82,41.1V38.69c.48-.12,1-.21,1.52-.29s1.09-.13,1.65-.18V19.32q-.84-.06-1.65-.18a11.71,11.71,0,0,1-1.52-.28V16.48h16.3v5.87h-2.88c-.1-.5-.18-1-.26-1.48s-.13-.9-.18-1.29h-5.87V27h4.7c.06-.4.11-.8.19-1.18a6.24,6.24,0,0,1,.29-1.07h2.48v7.43h-2.48a5.8,5.8,0,0,1-.29-1.11c-.08-.4-.13-.78-.19-1.14h-4.7v8h5.91c0-.44.11-.9.18-1.39s.17-1,.29-1.53h2.88V41.1Zm0,0"/><path class="cls-10" d="M144.38,20.77a5.68,5.68,0,0,0-4-1.19h-1a5.66,5.66,0,0,0-1,.08v9c.29,0,.59.08.87.1a8.77,8.77,0,0,0,.88,0,6.19,6.19,0,0,0,4-1.29,4.29,4.29,0,0,0,1.49-3.45,4.34,4.34,0,0,0-1.25-3.3Zm4.69,6.29a7.43,7.43,0,0,1-1.93,2.65,9.14,9.14,0,0,1-3,1.74,11.41,11.41,0,0,1-3.93.65h-.87a6.09,6.09,0,0,1-.95-.08v6.2c.56.05,1.1.12,1.64.19a12.34,12.34,0,0,1,1.54.29v2.4H131.26V38.7a11.53,11.53,0,0,1,1.53-.29c.53-.07,1.08-.14,1.64-.19V19.36c-.56,0-1.11-.11-1.64-.18a11.51,11.51,0,0,1-1.53-.3v-2.4H134c.29,0,.69,0,1.18,0l1.67-.06,1.89,0h1.94q4.41,0,6.72,2a6.77,6.77,0,0,1,2.33,5.42,8,8,0,0,1-.69,3.32Zm0,0"/><path class="cls-10" d="M162.78,14.73l-1.46-2.22,5.73-4,1.74,2.67Zm10.29,4.63V31.69c0,3.31-.86,5.77-2.54,7.37s-4.17,2.41-7.43,2.41a12.9,12.9,0,0,1-4.74-.73A6.63,6.63,0,0,1,154.11,36a13.58,13.58,0,0,1-.38-3.28V19.36c-.42,0-.83-.11-1.24-.18s-.8-.16-1.17-.25V16.48h9.12v2.45a9.77,9.77,0,0,1-1.37.27l-1.4.17V32.42a10.41,10.41,0,0,0,.24,2.3,4.31,4.31,0,0,0,.85,1.82,4.09,4.09,0,0,0,1.74,1.21,7.78,7.78,0,0,0,2.82.43,9.4,9.4,0,0,0,2.59-.32,4.08,4.08,0,0,0,1.81-1.08,4.69,4.69,0,0,0,1.06-2,10.69,10.69,0,0,0,.34-2.92V19.36c-.46,0-.94-.1-1.42-.16a8.48,8.48,0,0,1-1.35-.27V16.48h9.12v2.45a20.74,20.74,0,0,1-2.4.43Zm0,0"/><path class="cls-10" d="M192.81,32a3.46,3.46,0,0,0-1.24-1.19,5.8,5.8,0,0,0-1.87-.65,13.73,13.73,0,0,0-2.41-.2h-1.7a5.16,5.16,0,0,1-.53,0v7.84a17.49,17.49,0,0,0,2.88.19,5.81,5.81,0,0,0,4-1.19,3.9,3.9,0,0,0,1.3-3.05,3.23,3.23,0,0,0-.46-1.78Zm-.23-10.36a2.43,2.43,0,0,0-.77-1.08,4,4,0,0,0-1.44-.71,8.12,8.12,0,0,0-2.2-.25h-1.61c-.51,0-1,0-1.5.06v7.3q.48,0,1,0h1.13a6.92,6.92,0,0,0,4.19-1.06A3.43,3.43,0,0,0,192.8,23a4.25,4.25,0,0,0-.22-1.38ZM197,36.2a6.59,6.59,0,0,1-1.55,2.45,8.56,8.56,0,0,1-3,1.84,13.22,13.22,0,0,1-4.71.72c-.75,0-1.71,0-2.88-.05s-2.43-.06-3.8-.06H178V38.7a11.85,11.85,0,0,1,1.53-.29c.53-.07,1.08-.14,1.64-.19V19.36c-.56,0-1.11-.11-1.64-.18a11.84,11.84,0,0,1-1.53-.3v-2.4H181c.92,0,2.07,0,3.48-.05s2.83-.05,4.32-.05c2.7,0,4.73.51,6.09,1.56a5.25,5.25,0,0,1,2,4.41,5.59,5.59,0,0,1-1.14,3.43A6.29,6.29,0,0,1,192.76,28V28a6.31,6.31,0,0,1,2.1.77,5,5,0,0,1,1.46,1.31,5.66,5.66,0,0,1,.85,1.68,6,6,0,0,1,.3,1.87A7.94,7.94,0,0,1,197,36.2Zm0,0"/><path class="cls-10" d="M200.35,41.1V38.7a11.53,11.53,0,0,1,1.53-.29c.53-.07,1.08-.14,1.64-.19V19.36c-.56,0-1.11-.11-1.64-.18a11.51,11.51,0,0,1-1.53-.3v-2.4h10.29v2.4a12.34,12.34,0,0,1-1.54.3c-.53.07-1.08.14-1.64.19V37.82H213c.12-1,.29-2,.52-3.18h2.84V41.1Zm0,0"/><path class="cls-10" d="M217.82,41.1V38.7a12.18,12.18,0,0,1,1.53-.29c.54-.07,1.09-.14,1.64-.19V19.36c-.55,0-1.1-.11-1.64-.18a12.18,12.18,0,0,1-1.53-.3v-2.4h10.29v2.4a12,12,0,0,1-1.54.3c-.53.07-1.08.14-1.64.19V38.22c.56.05,1.11.12,1.64.19a12,12,0,0,1,1.54.29v2.4Zm0,0"/><path class="cls-10" d="M245.69,23.41c-.12-.61-.21-1.17-.27-1.7s-.11-1-.17-1.5a9.91,9.91,0,0,0-1.58-.3c-.5-.05-1-.08-1.56-.08a6.82,6.82,0,0,0-3.11.68,6.25,6.25,0,0,0-2.22,1.86,8,8,0,0,0-1.34,2.85,14.22,14.22,0,0,0-.44,3.63,14.49,14.49,0,0,0,.46,3.78,7.16,7.16,0,0,0,1.44,2.8,6.19,6.19,0,0,0,2.52,1.75,10.1,10.1,0,0,0,3.68.6,13.76,13.76,0,0,0,2.87-.31,13.22,13.22,0,0,0,2.64-.81l.26,3.64a24.87,24.87,0,0,1-3.22.83,19.62,19.62,0,0,1-3.46.3c-3.87,0-6.76-1-8.7-3.16s-2.9-5-2.9-8.76a18.59,18.59,0,0,1,.74-5.37A11.52,11.52,0,0,1,233.6,20a10.35,10.35,0,0,1,3.83-2.74,13.87,13.87,0,0,1,5.48-1,25.62,25.62,0,0,1,2.86.17c1,.13,1.93.3,2.88.52v6.49Zm0,0"/><path class="cls-10" d="M264.08,24.25a18.43,18.43,0,0,1-.62-1.86c-.17-.61-.33-1.26-.48-1.93h-.07a18.74,18.74,0,0,1-.48,1.93c-.19.66-.41,1.31-.65,2l-2.67,7.33h7.7Zm2.26,16.85V38.7c.41-.1.86-.19,1.35-.26s.95-.14,1.42-.18l-1.27-3.47H258.1l-1.24,3.47c.46,0,.93.11,1.41.18s.94.16,1.36.26v2.4h-8.87V38.7a7.24,7.24,0,0,1,1-.24c.38-.06.74-.12,1.08-.16l7.84-21.82h4.78l7.95,21.82c.34,0,.7.1,1.08.16a7.57,7.57,0,0,1,1,.24v2.4Zm0,0"/><path class="cls-10" d="M103.08,53a5.58,5.58,0,0,0-4-1.19H98.06a6.65,6.65,0,0,0-1,.07v9A8.46,8.46,0,0,0,98,61a8.12,8.12,0,0,0,.86,0,6.19,6.19,0,0,0,4-1.3,4.81,4.81,0,0,0,.24-6.74Zm4.7,6.28a7.59,7.59,0,0,1-1.93,2.65,9,9,0,0,1-3,1.75,11.35,11.35,0,0,1-3.92.64H98a6,6,0,0,1-.94-.07v6.2c.56,0,1.11.11,1.64.18a13.84,13.84,0,0,1,1.53.29v2.41H90V70.92a14,14,0,0,1,1.54-.29c.53-.07,1.08-.13,1.64-.18V51.58c-.56,0-1.11-.1-1.64-.17s-1-.17-1.54-.29V48.71h2.78l1.18,0,1.66-.06,1.9-.05c.65,0,1.3,0,1.93,0,2.94,0,5.19.66,6.73,2A6.76,6.76,0,0,1,108.46,56a8.07,8.07,0,0,1-.68,3.31Zm0,0"/><path class="cls-10" d="M127.28,54.21a6.38,6.38,0,0,0-5.36-2.4,6.83,6.83,0,0,0-2.75.56,6.36,6.36,0,0,0-2.31,1.7,8.63,8.63,0,0,0-1.6,2.82,11.6,11.6,0,0,0-.6,3.91,15.71,15.71,0,0,0,.44,3.82,8.47,8.47,0,0,0,1.32,3,6,6,0,0,0,2.23,1.9,7.1,7.1,0,0,0,3.19.68,7,7,0,0,0,2.68-.55,6.52,6.52,0,0,0,2.36-1.69,8.24,8.24,0,0,0,1.67-2.82,11.6,11.6,0,0,0,.63-4c0-3-.63-5.3-1.9-6.88Zm5.16,12a12.25,12.25,0,0,1-2.53,4.09,10.86,10.86,0,0,1-3.76,2.55,12.13,12.13,0,0,1-4.59.87,12.65,12.65,0,0,1-4.9-.87,9,9,0,0,1-3.46-2.5,10.55,10.55,0,0,1-2.06-3.9,18,18,0,0,1-.68-5.12,15.35,15.35,0,0,1,.93-5.48,11.84,11.84,0,0,1,2.54-4.06,10.61,10.61,0,0,1,3.76-2.54,11.91,11.91,0,0,1,4.59-.88,12.72,12.72,0,0,1,4.52.76,9.33,9.33,0,0,1,3.51,2.32,10.7,10.7,0,0,1,2.26,3.87,16.46,16.46,0,0,1,.8,5.42,15.08,15.08,0,0,1-.93,5.47Zm0,0"/><path class="cls-10" d="M148.63,52.72a6.29,6.29,0,0,0-3.74-.91h-1.11l-1,.06v7.8a5.16,5.16,0,0,0,.78.06l1.15,0a5.76,5.76,0,0,0,3.75-1.11,3.64,3.64,0,0,0,1.36-3,3.44,3.44,0,0,0-1.23-3Zm1.45,20.61-6.64-10.65h-.62v7.77a12.26,12.26,0,0,1,2.52.44v2.44H135.7V70.92a14.49,14.49,0,0,1,1.54-.29c.54-.07,1.08-.13,1.64-.18V51.58c-.56,0-1.1-.1-1.64-.17s-1.05-.17-1.54-.29V48.71h2.85l1.06,0,1.62-.06,2-.05c.72,0,1.45,0,2.2,0a15.19,15.19,0,0,1,3.49.37,7.68,7.68,0,0,1,2.73,1.15,5.12,5.12,0,0,1,1.78,2.05,7.16,7.16,0,0,1,.61,3.11,6.48,6.48,0,0,1-.47,2.53,5.75,5.75,0,0,1-1.35,2,7.62,7.62,0,0,1-2.06,1.42,9.35,9.35,0,0,1-2.61.79,12.52,12.52,0,0,1,.76,1c.24.35.46.69.68,1l4.25,6.38c.39,0,.8.11,1.24.19s.9.15,1.39.25v2.48Zm0,0"/><path class="cls-10" d="M103.08,53a5.58,5.58,0,0,0-4-1.19H98.06a6.65,6.65,0,0,0-1,.07v9A8.46,8.46,0,0,0,98,61a8.12,8.12,0,0,0,.86,0,6.19,6.19,0,0,0,4-1.3,4.81,4.81,0,0,0,.24-6.74Zm4.7,6.28a7.59,7.59,0,0,1-1.93,2.65,9,9,0,0,1-3,1.75,11.35,11.35,0,0,1-3.92.64H98a6,6,0,0,1-.94-.07v6.2c.56,0,1.11.11,1.64.18a13.84,13.84,0,0,1,1.53.29v2.41H90V70.92a14,14,0,0,1,1.54-.29c.53-.07,1.08-.13,1.64-.18V51.58c-.56,0-1.11-.1-1.64-.17s-1-.17-1.54-.29V48.71h2.78l1.18,0,1.66-.06,1.9-.05c.65,0,1.3,0,1.93,0,2.94,0,5.19.66,6.73,2A6.76,6.76,0,0,1,108.46,56a8.07,8.07,0,0,1-.68,3.31Zm0,0"/><path class="cls-10" d="M127.28,54.21a6.38,6.38,0,0,0-5.36-2.4,6.83,6.83,0,0,0-2.75.56,6.36,6.36,0,0,0-2.31,1.7,8.63,8.63,0,0,0-1.6,2.82,11.6,11.6,0,0,0-.6,3.91,15.71,15.71,0,0,0,.44,3.82,8.47,8.47,0,0,0,1.32,3,6,6,0,0,0,2.23,1.9,7.1,7.1,0,0,0,3.19.68,7,7,0,0,0,2.68-.55,6.52,6.52,0,0,0,2.36-1.69,8.24,8.24,0,0,0,1.67-2.82,11.6,11.6,0,0,0,.63-4c0-3-.63-5.3-1.9-6.88Zm5.16,12a12.25,12.25,0,0,1-2.53,4.09,10.86,10.86,0,0,1-3.76,2.55,12.13,12.13,0,0,1-4.59.87,12.65,12.65,0,0,1-4.9-.87,9,9,0,0,1-3.46-2.5,10.55,10.55,0,0,1-2.06-3.9,18,18,0,0,1-.68-5.12,15.35,15.35,0,0,1,.93-5.48,11.84,11.84,0,0,1,2.54-4.06,10.61,10.61,0,0,1,3.76-2.54,11.91,11.91,0,0,1,4.59-.88,12.72,12.72,0,0,1,4.52.76,9.33,9.33,0,0,1,3.51,2.32,10.7,10.7,0,0,1,2.26,3.87,16.46,16.46,0,0,1,.8,5.42,15.08,15.08,0,0,1-.93,5.47Zm0,0"/><path class="cls-10" d="M148.63,52.72a6.29,6.29,0,0,0-3.74-.91h-1.11l-1,.06v7.8a5.16,5.16,0,0,0,.78.06l1.15,0a5.76,5.76,0,0,0,3.75-1.11,3.64,3.64,0,0,0,1.36-3,3.44,3.44,0,0,0-1.23-3Zm1.45,20.61-6.64-10.65h-.62v7.77a12.26,12.26,0,0,1,2.52.44v2.44H135.7V70.92a14.49,14.49,0,0,1,1.54-.29c.54-.07,1.08-.13,1.64-.18V51.58c-.56,0-1.1-.1-1.64-.17s-1.05-.17-1.54-.29V48.71h2.85l1.06,0,1.62-.06,2-.05c.72,0,1.45,0,2.2,0a15.19,15.19,0,0,1,3.49.37,7.68,7.68,0,0,1,2.73,1.15,5.12,5.12,0,0,1,1.78,2.05,7.16,7.16,0,0,1,.61,3.11,6.48,6.48,0,0,1-.47,2.53,5.75,5.75,0,0,1-1.35,2,7.62,7.62,0,0,1-2.06,1.42,9.35,9.35,0,0,1-2.61.79,12.52,12.52,0,0,1,.76,1c.24.35.46.69.68,1l4.25,6.38c.39,0,.8.11,1.24.19s.9.15,1.39.25v2.48Zm0,0"/><path class="cls-10" d="M174,55.24c-.12-.63-.22-1.22-.31-1.75s-.15-1-.19-1.5H169V70.46c.56,0,1.11.11,1.64.17s1,.17,1.53.29v2.41H161.9V70.92c.48-.12,1-.21,1.53-.29s1.08-.13,1.64-.17V52h-4.48c-.06.46-.11,1-.19,1.5s-.17,1.12-.29,1.75h-2.84V48.71h19.55v6.53Zm0,0"/><path class="cls-10" d="M200.2,51.58V63.92c0,3.31-.84,5.76-2.53,7.37s-4.17,2.4-7.43,2.4A12.69,12.69,0,0,1,185.5,73,6.84,6.84,0,0,1,182.66,71a6.69,6.69,0,0,1-1.4-2.79,13.1,13.1,0,0,1-.39-3.28V51.58c-.42,0-.83-.1-1.24-.17s-.8-.16-1.17-.25V48.71h9.12v2.45a11.46,11.46,0,0,1-1.37.26c-.47.07-.94.12-1.4.16V64.65a10.25,10.25,0,0,0,.24,2.29,4.3,4.3,0,0,0,.85,1.83,4.16,4.16,0,0,0,1.74,1.2,7.55,7.55,0,0,0,2.82.44,9.4,9.4,0,0,0,2.59-.32A4.07,4.07,0,0,0,194.86,69a4.69,4.69,0,0,0,1.06-2,10.79,10.79,0,0,0,.34-2.92V51.58c-.45,0-.93-.09-1.42-.16a10.11,10.11,0,0,1-1.35-.26V48.71h9.12v2.45a18.64,18.64,0,0,1-2.41.42Zm0,0"/><path class="cls-10" d="M226.71,63.31l-1.15.18V72.2a21.13,21.13,0,0,1-4,1.11,23.86,23.86,0,0,1-4.27.38,14.51,14.51,0,0,1-5.12-.84,10.59,10.59,0,0,1-3.87-2.39,10.32,10.32,0,0,1-2.44-3.8,15.54,15.54,0,0,1,.08-10.42,11.73,11.73,0,0,1,2.66-4.18,12.23,12.23,0,0,1,4.22-2.72,15.57,15.57,0,0,1,5.63-1,23.84,23.84,0,0,1,3.39.24c1.1.16,2.22.37,3.38.64v6.19h-3c-.12-.55-.21-1.1-.29-1.61s-.13-1-.18-1.52c-.61-.15-1.22-.26-1.83-.35a13.68,13.68,0,0,0-1.79-.12,10.41,10.41,0,0,0-3.48.57,7.85,7.85,0,0,0-2.81,1.77,8.3,8.3,0,0,0-1.9,2.93,10.75,10.75,0,0,0-.7,4,9.16,9.16,0,0,0,2.28,6.65,8.39,8.39,0,0,0,6.28,2.35,12.83,12.83,0,0,0,2-.15,10.08,10.08,0,0,0,1.8-.44v-6c-.56-.05-1.11-.11-1.64-.18a10.87,10.87,0,0,1-1.47-.3V60.63h9.27v2.45a8.8,8.8,0,0,1-1.07.23Zm0,0"/><path class="cls-10" d="M251.42,51.58V63.92c0,3.31-.84,5.76-2.54,7.37s-4.16,2.4-7.42,2.4a12.65,12.65,0,0,1-4.74-.73A7,7,0,0,1,233.87,71a6.69,6.69,0,0,1-1.4-2.79,14.09,14.09,0,0,1-.39-3.28V51.58c-.4,0-.82-.1-1.23-.17s-.81-.16-1.17-.25V48.71h9.11v2.45a11.29,11.29,0,0,1-1.36.26c-.48.07-.94.12-1.4.16V64.65a10.27,10.27,0,0,0,.23,2.29,4.43,4.43,0,0,0,.86,1.83,4.06,4.06,0,0,0,1.73,1.2,7.68,7.68,0,0,0,2.83.44,9.4,9.4,0,0,0,2.59-.32A4.18,4.18,0,0,0,246.08,69a4.68,4.68,0,0,0,1-2,10.76,10.76,0,0,0,.35-2.92V51.58c-.46,0-.94-.09-1.43-.16a10,10,0,0,1-1.34-.26V48.71h9.12v2.45a18.64,18.64,0,0,1-2.41.42Zm0,0"/><path class="cls-10" d="M256.31,73.33V70.92a13.84,13.84,0,0,1,1.53-.29c.53-.08,1.08-.14,1.64-.19V51.56l-1.64-.19a11.85,11.85,0,0,1-1.53-.29V48.71h16.31v5.87h-2.88c-.11-.51-.19-1-.26-1.48s-.14-.91-.18-1.29h-5.87v7.4h4.7c.05-.41.11-.8.18-1.18A7.11,7.11,0,0,1,268.6,57h2.48v7.44H268.6a6.91,6.91,0,0,1-.29-1.11c-.07-.4-.13-.78-.18-1.15h-4.7v8h5.9c.05-.44.11-.9.18-1.39s.17-1,.29-1.53h2.89v6.13Zm0,0"/><path class="cls-10" d="M291,69a7.26,7.26,0,0,1-1.86,2.47,8.77,8.77,0,0,1-2.94,1.62,12.07,12.07,0,0,1-3.88.58,21.37,21.37,0,0,1-5.4-.62v-6.2h2.92c.1.56.18,1.11.25,1.63s.14,1,.18,1.47c.35.08.71.14,1.1.19a11,11,0,0,0,1.1.07,8.26,8.26,0,0,0,2-.22,4.8,4.8,0,0,0,1.58-.67,3.2,3.2,0,0,0,1.06-1.19,3.54,3.54,0,0,0,.38-1.71,2.61,2.61,0,0,0-.82-2,7.5,7.5,0,0,0-2-1.32c-.8-.36-1.68-.71-2.64-1a10.79,10.79,0,0,1-2.64-1.29,7.36,7.36,0,0,1-2-2,5.65,5.65,0,0,1-.82-3.22,7,7,0,0,1,.61-2.9,6.15,6.15,0,0,1,1.75-2.27,8.12,8.12,0,0,1,2.8-1.48,12.48,12.48,0,0,1,3.77-.53,24.9,24.9,0,0,1,2.51.13c.78.09,1.6.21,2.42.38V54.8h-2.92c-.11-.54-.21-1.06-.27-1.57s-.11-1-.16-1.42a6.24,6.24,0,0,0-.78-.13,7.62,7.62,0,0,0-.93-.06,5.29,5.29,0,0,0-3.46,1,3.14,3.14,0,0,0-1.14,2.5,2.55,2.55,0,0,0,.82,2,7.37,7.37,0,0,0,2,1.29c.82.36,1.69.73,2.63,1.08a13.53,13.53,0,0,1,2.64,1.31,7.16,7.16,0,0,1,2,2,5.52,5.52,0,0,1,.82,3.14A7.46,7.46,0,0,1,291,69Zm0,0"/><path class="cls-10" d="M306.24,56.48c-.23-.63-.44-1.26-.61-1.87s-.33-1.24-.48-1.93h-.07a18.12,18.12,0,0,1-.48,1.93c-.19.67-.41,1.32-.65,2l-2.66,7.33H309Zm2.27,16.85V70.92c.41-.09.86-.18,1.35-.26l1.42-.18L310,67h-9.75L299,70.48l1.43.18c.49.08.93.17,1.35.26v2.41h-8.87V70.92a9.43,9.43,0,0,1,1-.23l1.08-.17,7.84-21.81h4.78l7.95,21.81,1.08.17a8.51,8.51,0,0,1,1,.23v2.41Zm0,0"/><path class="cls-10" d="M174,55.24c-.12-.63-.22-1.22-.31-1.75s-.15-1-.19-1.5H169V70.46c.56,0,1.11.11,1.64.17s1,.17,1.53.29v2.41H161.9V70.92c.48-.12,1-.21,1.53-.29s1.08-.13,1.64-.17V52h-4.48c-.06.46-.11,1-.19,1.5s-.17,1.12-.29,1.75h-2.84V48.71h19.55v6.53Zm0,0"/><path class="cls-10" d="M200.2,51.58V63.92c0,3.31-.84,5.76-2.53,7.37s-4.17,2.4-7.43,2.4A12.69,12.69,0,0,1,185.5,73,6.84,6.84,0,0,1,182.66,71a6.69,6.69,0,0,1-1.4-2.79,13.1,13.1,0,0,1-.39-3.28V51.58c-.42,0-.83-.1-1.24-.17s-.8-.16-1.17-.25V48.71h9.12v2.45a11.46,11.46,0,0,1-1.37.26c-.47.07-.94.12-1.4.16V64.65a10.25,10.25,0,0,0,.24,2.29,4.3,4.3,0,0,0,.85,1.83,4.16,4.16,0,0,0,1.74,1.2,7.55,7.55,0,0,0,2.82.44,9.4,9.4,0,0,0,2.59-.32A4.07,4.07,0,0,0,194.86,69a4.69,4.69,0,0,0,1.06-2,10.79,10.79,0,0,0,.34-2.92V51.58c-.45,0-.93-.09-1.42-.16a10.11,10.11,0,0,1-1.35-.26V48.71h9.12v2.45a18.64,18.64,0,0,1-2.41.42Zm0,0"/><path class="cls-10" d="M226.71,63.31l-1.15.18V72.2a21.13,21.13,0,0,1-4,1.11,23.86,23.86,0,0,1-4.27.38,14.51,14.51,0,0,1-5.12-.84,10.59,10.59,0,0,1-3.87-2.39,10.32,10.32,0,0,1-2.44-3.8,15.54,15.54,0,0,1,.08-10.42,11.73,11.73,0,0,1,2.66-4.18,12.23,12.23,0,0,1,4.22-2.72,15.57,15.57,0,0,1,5.63-1,23.84,23.84,0,0,1,3.39.24c1.1.16,2.22.37,3.38.64v6.19h-3c-.12-.55-.21-1.1-.29-1.61s-.13-1-.18-1.52c-.61-.15-1.22-.26-1.83-.35a13.68,13.68,0,0,0-1.79-.12,10.41,10.41,0,0,0-3.48.57,7.85,7.85,0,0,0-2.81,1.77,8.3,8.3,0,0,0-1.9,2.93,10.75,10.75,0,0,0-.7,4,9.16,9.16,0,0,0,2.28,6.65,8.39,8.39,0,0,0,6.28,2.35,12.83,12.83,0,0,0,2-.15,10.08,10.08,0,0,0,1.8-.44v-6c-.56-.05-1.11-.11-1.64-.18a10.87,10.87,0,0,1-1.47-.3V60.63h9.27v2.45a8.8,8.8,0,0,1-1.07.23Zm0,0"/><path class="cls-10" d="M251.42,51.58V63.92c0,3.31-.84,5.76-2.54,7.37s-4.16,2.4-7.42,2.4a12.65,12.65,0,0,1-4.74-.73A7,7,0,0,1,233.87,71a6.69,6.69,0,0,1-1.4-2.79,14.09,14.09,0,0,1-.39-3.28V51.58c-.4,0-.82-.1-1.23-.17s-.81-.16-1.17-.25V48.71h9.11v2.45a11.29,11.29,0,0,1-1.36.26c-.48.07-.94.12-1.4.16V64.65a10.27,10.27,0,0,0,.23,2.29,4.43,4.43,0,0,0,.86,1.83,4.06,4.06,0,0,0,1.73,1.2,7.68,7.68,0,0,0,2.83.44,9.4,9.4,0,0,0,2.59-.32A4.18,4.18,0,0,0,246.08,69a4.68,4.68,0,0,0,1-2,10.76,10.76,0,0,0,.35-2.92V51.58c-.46,0-.94-.09-1.43-.16a10,10,0,0,1-1.34-.26V48.71h9.12v2.45a18.64,18.64,0,0,1-2.41.42Zm0,0"/><path class="cls-10" d="M256.31,73.33V70.92a13.84,13.84,0,0,1,1.53-.29c.53-.08,1.08-.14,1.64-.19V51.56l-1.64-.19a11.85,11.85,0,0,1-1.53-.29V48.71h16.31v5.87h-2.88c-.11-.51-.19-1-.26-1.48s-.14-.91-.18-1.29h-5.87v7.4h4.7c.05-.41.11-.8.18-1.18A7.11,7.11,0,0,1,268.6,57h2.48v7.44H268.6a6.91,6.91,0,0,1-.29-1.11c-.07-.4-.13-.78-.18-1.15h-4.7v8h5.9c.05-.44.11-.9.18-1.39s.17-1,.29-1.53h2.89v6.13Zm0,0"/><path class="cls-10" d="M291,69a7.26,7.26,0,0,1-1.86,2.47,8.77,8.77,0,0,1-2.94,1.62,12.07,12.07,0,0,1-3.88.58,21.37,21.37,0,0,1-5.4-.62v-6.2h2.92c.1.56.18,1.11.25,1.63s.14,1,.18,1.47c.35.08.71.14,1.1.19a11,11,0,0,0,1.1.07,8.26,8.26,0,0,0,2-.22,4.8,4.8,0,0,0,1.58-.67,3.2,3.2,0,0,0,1.06-1.19,3.54,3.54,0,0,0,.38-1.71,2.61,2.61,0,0,0-.82-2,7.5,7.5,0,0,0-2-1.32c-.8-.36-1.68-.71-2.64-1a10.79,10.79,0,0,1-2.64-1.29,7.36,7.36,0,0,1-2-2,5.65,5.65,0,0,1-.82-3.22,7,7,0,0,1,.61-2.9,6.15,6.15,0,0,1,1.75-2.27,8.12,8.12,0,0,1,2.8-1.48,12.48,12.48,0,0,1,3.77-.53,24.9,24.9,0,0,1,2.51.13c.78.09,1.6.21,2.42.38V54.8h-2.92c-.11-.54-.21-1.06-.27-1.57s-.11-1-.16-1.42a6.24,6.24,0,0,0-.78-.13,7.62,7.62,0,0,0-.93-.06,5.29,5.29,0,0,0-3.46,1,3.14,3.14,0,0,0-1.14,2.5,2.55,2.55,0,0,0,.82,2,7.37,7.37,0,0,0,2,1.29c.82.36,1.69.73,2.63,1.08a13.53,13.53,0,0,1,2.64,1.31,7.16,7.16,0,0,1,2,2,5.52,5.52,0,0,1,.82,3.14A7.46,7.46,0,0,1,291,69Zm0,0"/><path class="cls-10" d="M306.24,56.48c-.23-.63-.44-1.26-.61-1.87s-.33-1.24-.48-1.93h-.07a18.12,18.12,0,0,1-.48,1.93c-.19.67-.41,1.32-.65,2l-2.66,7.33H309Zm2.27,16.85V70.92c.41-.09.86-.18,1.35-.26l1.42-.18L310,67h-9.75L299,70.48l1.43.18c.49.08.93.17,1.35.26v2.41h-8.87V70.92a9.43,9.43,0,0,1,1-.23l1.08-.17,7.84-21.81h4.78l7.95,21.81,1.08.17a8.51,8.51,0,0,1,1,.23v2.41Zm0,0"/><path class="cls-10" d="M386.6,42.07h7.77v2.26h-4.93l0,2.3h4.86l0,2.24h-4.86l0,2.49h5l0,2.3h-7.84Zm0,0"/><path class="cls-10" d="M398.85,44.44l-.11,6.75H400a3.42,3.42,0,0,0,2.48-.87,3.26,3.26,0,0,0,.9-2.42,3.61,3.61,0,0,0-.84-2.58,3.23,3.23,0,0,0-2.46-.88Zm-2.79-2.37h4a6.75,6.75,0,0,1,4.65,1.39,5.21,5.21,0,0,1,1.56,4.12,7.69,7.69,0,0,1-.49,2.83,4.93,4.93,0,0,1-1.4,2,4.65,4.65,0,0,1-1.8,1,10.38,10.38,0,0,1-2.7.28h-4Zm0,0"/><path class="cls-10" d="M407.94,42.07h3l-.12,6.8V49a2.31,2.31,0,0,0,.52,1.64,1.92,1.92,0,0,0,1.5.56,1.8,1.8,0,0,0,1.54-.62,3.42,3.42,0,0,0,.5-2l.09-6.49h2.88l-.09,6.82a5.13,5.13,0,0,1-1.3,3.7,6.11,6.11,0,0,1-7.35,0,4.72,4.72,0,0,1-1.24-3.55V49Zm0,0"/><path class="cls-10" d="M428.59,42.38l-.52,2.48a6.9,6.9,0,0,0-1.12-.3,5.63,5.63,0,0,0-1.05-.1,3.48,3.48,0,0,0-2.58.95,3.31,3.31,0,0,0-1,2.49,3.13,3.13,0,0,0,.94,2.37,3.42,3.42,0,0,0,2.47.91,5.68,5.68,0,0,0,1.05-.11,10.5,10.5,0,0,0,1.24-.33l.46,2.47a16,16,0,0,1-1.9.48,8.48,8.48,0,0,1-1.59.16,5.52,5.52,0,0,1-4.2-1.66,6.12,6.12,0,0,1-1.57-4.38,5.72,5.72,0,0,1,1.68-4.29,6,6,0,0,1,4.42-1.65,10.73,10.73,0,0,1,1.55.12,16.26,16.26,0,0,1,1.7.39Zm0,0"/><path class="cls-10" d="M434.84,44c-.08.29-.17.63-.26,1s-.16.58-.17.63l-1,3.11h2.84l-1-3.16c0-.09-.09-.35-.2-.78s-.14-.59-.2-.79Zm-1.7-1.93h3.54l4.13,11.59h-3.09l-.89-2.7h-4.07l-1,2.7h-3.11Zm0,0"/><path class="cls-10" d="M450.48,42.38,450,44.86a7.18,7.18,0,0,0-1.12-.3,5.66,5.66,0,0,0-1.06-.1,3.51,3.51,0,0,0-2.58.95,3.31,3.31,0,0,0-1,2.49,3.13,3.13,0,0,0,.94,2.37,3.42,3.42,0,0,0,2.47.91,5.86,5.86,0,0,0,1.05-.11,11,11,0,0,0,1.24-.33l.46,2.47a16,16,0,0,1-1.9.48,8.66,8.66,0,0,1-1.6.16,5.46,5.46,0,0,1-4.18-1.66,6,6,0,0,1-1.59-4.38,5.72,5.72,0,0,1,1.69-4.29,6,6,0,0,1,4.42-1.65,10.49,10.49,0,0,1,1.54.12,15.85,15.85,0,0,1,1.71.39Zm0,0"/><path class="cls-10" d="M456.73,44l-.27,1c-.1.37-.15.58-.17.63l-1,3.11h2.85l-1-3.16c0-.09-.09-.35-.2-.78l-.2-.79ZM455,42.07h3.55l4.11,11.59h-3.08l-.89-2.7h-4.08l-.95,2.7h-3.11Zm3.35-3.71h.83a3.21,3.21,0,0,1-.6,1.47,1.29,1.29,0,0,1-1,.46l-.26,0-.31-.06-.75-.23-.24-.06-.19,0a.72.72,0,0,0-.46.14,1,1,0,0,0-.28.47h-.84a3.08,3.08,0,0,1,.59-1.42,1.3,1.3,0,0,1,1-.47l.3,0a2.14,2.14,0,0,1,.32.08l.76.21a.49.49,0,0,0,.2.05.93.93,0,0,0,.24,0,.58.58,0,0,0,.44-.15,1.11,1.11,0,0,0,.27-.5Zm0,0"/><path class="cls-10" d="M469.08,44.39a2.51,2.51,0,0,0-2.07.93,4,4,0,0,0-.75,2.6,3.82,3.82,0,0,0,.74,2.52,2.81,2.81,0,0,0,4.15,0,3.91,3.91,0,0,0,.74-2.55,4,4,0,0,0-.74-2.55,2.45,2.45,0,0,0-2-.94Zm.05-2.52a6.61,6.61,0,0,1,2.41.41,4.85,4.85,0,0,1,1.83,1.27,5.66,5.66,0,0,1,1.14,1.94,7.53,7.53,0,0,1,.39,2.45,6.44,6.44,0,0,1-.43,2.32,5.66,5.66,0,0,1-1.15,1.91,5.09,5.09,0,0,1-1.9,1.27,6.86,6.86,0,0,1-2.48.42,6,6,0,0,1-2.23-.37A4.74,4.74,0,0,1,465,52.35a5.46,5.46,0,0,1-1.28-2,6.77,6.77,0,0,1-.44-2.46,6.07,6.07,0,0,1,1.62-4.38,5.64,5.64,0,0,1,4.26-1.67Zm0,0"/><rect class="cls-11" x="350.83" y="4" width="1.33" height="91.26"/><path class="cls-10" d="M445.39,55.38l1.84-.17a2.81,2.81,0,0,1,.29,1.86c-.32,1.2-2.45,1.2-2.45,1.2s1-.68.92-1.53a2,2,0,0,0-.6-1.36Zm0,0"/></svg>