<?xml version="1.0" encoding="utf-8"?>
<!-- Generator: Adobe Illustrator 25.3.1, SVG Export Plug-In . SVG Version: 6.00 Build 0)  -->
<svg version="1.1" id="Layer_1" xmlns="http://www.w3.org/2000/svg" xmlns:xlink="http://www.w3.org/1999/xlink" x="0px" y="0px"
	 width="38px" height="38px" viewBox="0 0 38 38" style="enable-background:new 0 0 38 38;" xml:space="preserve">
<style type="text/css">
	.st0{fill:none;stroke:#CCE8D6;stroke-width:20;stroke-miterlimit:10;}
	.st1{fill:#3E7785;}
	.st2{fill:#83BB9B;}
</style>
<g>
	<g>
		<path class="st0" d="M11.1,23.3"/>
	</g>
	<path class="st1" d="M27.2,35c0.1-0.1,0.2-0.1,0.3-0.2c0.1-0.1,0.3-0.1,0.4-0.2c1.4-0.8,2.6-1.7,3.8-2.9l0.1-0.1
		C35,28.4,37,23.9,37,19c0-0.5-0.2-1-0.5-1.3s-0.8-0.5-1.3-0.5l-6.8,0.1c-1,0-1.8,0.8-1.8,1.8s0.8,1.8,1.8,1.8h4.8
		c-0.6,4.6-3.4,8.5-7.2,10.7c0,0-0.1,0-0.1,0.1c-0.1,0.1-0.3,0.1-0.4,0.2c-0.1,0-0.2,0.1-0.2,0.1c-0.1,0-0.2,0.1-0.3,0.1
		c-0.1,0.1-0.3,0.1-0.4,0.2c-0.1,0-0.1,0.1-0.2,0.1c-0.2,0.1-0.4,0.1-0.6,0.2l0,0c-5,1.8-10.9,0.6-14.9-3.4
		C6.2,26.4,4.7,22.8,4.7,19s1.5-7.4,4.2-10.2c5.6-5.6,14.7-5.6,20.3,0c0.7,0.7,1.9,0.7,2.6,0c0.7-0.7,0.7-1.9,0-2.6
		c-7-7-18.4-7-25.5,0c-3.4,3.5-5.3,8-5.3,12.8s1.9,9.3,5.3,12.7c3.5,3.5,8.1,5.3,12.7,5.3l0,0l0,0c2.7,0,5.2-0.6,7.5-1.6
		c0.1,0,0.1,0,0.2-0.1C26.8,35.2,27,35.1,27.2,35z"/>
	<g>
		<path class="st2" d="M18.9,28.4c-2.4,0-4.8-0.9-6.6-2.7c-1.8-1.8-2.8-4.2-2.8-6.7s1-4.9,2.8-6.6c3.7-3.7,9.6-3.7,13.3,0
			c0.7,0.7,0.7,1.9,0,2.6l-5.1,5.1c-0.7,0.7-1.9,0.7-2.6,0s-0.7-1.9,0-2.6l3.6-3.6c-2.2-1.1-4.8-0.7-6.6,1.1
			c-1.1,1.1-1.7,2.5-1.7,4.1c0,1.5,0.6,3,1.7,4.1c2.2,2.2,5.9,2.2,8.1,0c0.7-0.7,1.9-0.7,2.6,0s0.7,1.9,0,2.6
			C23.8,27.5,21.3,28.4,18.9,28.4z"/>
	</g>
</g>
</svg>
