<?xml version="1.0" encoding="utf-8"?>
<!-- Generator: Adobe Illustrator 25.3.1, SVG Export Plug-In . SVG Version: 6.00 Build 0)  -->
<svg version="1.1" id="Layer_1" xmlns="http://www.w3.org/2000/svg" xmlns:xlink="http://www.w3.org/1999/xlink" x="0px" y="0px"
	 width="200px" height="200px" viewBox="0 0 200 200" style="enable-background:new 0 0 200 200;" xml:space="preserve">
<style type="text/css">
	.st0{fill:#3C7685;}
	.st1{fill:#BA5655;}
	.st2{fill:#284652;}
</style>
<g>
	<path class="st0" d="M170,145V50h10v95c0,2.8-2.2,5-5,5l0,0C172.2,150,170,147.8,170,145z"/>
	<rect x="130" y="70" class="st0" width="10" height="60"/>
	<path class="st0" d="M25,150L25,150c-2.8,0-5-2.2-5-5V50h10v95C30,147.8,27.8,150,25,150z"/>
	<g>
		<path d="M20,145L20,145c0-2.8,2.2-5,5-5h150c2.8,0,5,2.2,5,5l0,0c0,2.8-2.2,5-5,5H25C22.2,150,20,147.8,20,145z"/>
	</g>
	<rect x="60" y="70" class="st0" width="10" height="60"/>
	<path class="st1" d="M180.3,50H121H70.3h-3.6H19.7c-5.5,0-10,4.5-10,10s4.5,10,10,10H79h50.6h3.6h26.4h10h10.7c5.5,0,10-4.5,10-10
		S185.8,50,180.3,50z"/>
	<path class="st2" d="M20,105V95c0-2.8,2.2-5,5-5h150c2.8,0,5,2.2,5,5v10c0,2.8-2.2,5-5,5H25C22.2,110,20,107.8,20,105z"/>
	<path class="st2" d="M20,145v-10c0-2.8,2.2-5,5-5h150c2.8,0,5,2.2,5,5v10c0,2.8-2.2,5-5,5H25C22.2,150,20,147.8,20,145z"/>
</g>
</svg>
