<?xml version="1.0" encoding="utf-8"?>
<!-- Generator: Adobe Illustrator 25.3.1, SVG Export Plug-In . SVG Version: 6.00 Build 0)  -->
<svg version="1.1" id="Layer_1" xmlns="http://www.w3.org/2000/svg" xmlns:xlink="http://www.w3.org/1999/xlink" x="0px" y="0px"
	 width="200px" height="200px" viewBox="0 0 200 200" style="enable-background:new 0 0 200 200;" xml:space="preserve">
<style type="text/css">
	.st0{fill:#3C7685;}
	.st1{fill:#008D5B;}
	.st2{fill:none;}
	.st3{fill:#BA5655;}
	.st4{fill:#FFFFFF;}
	.st5{fill:#284652;}
</style>
<path class="st0" d="M25,170L25,170c-2.8,0-5-2.2-5-5V70h10v95C30,167.8,27.8,170,25,170z"/>
<g>
	<path d="M20,165L20,165c0-2.8,2.2-5,5-5h150c2.8,0,5,2.2,5,5l0,0c0,2.8-2.2,5-5,5H25C22.2,170,20,167.8,20,165z"/>
</g>
<rect x="60" y="90" class="st0" width="10" height="60"/>
<g>
	<path class="st1" d="M160,30c-16.6,0-30,13.4-30,30c0,16.6,13.4,30,30,30s30-13.4,30-30C190,43.4,176.6,30,160,30z M165.7,55.3
		l-1.4,3.2h-8.4c0,0.5,0,1,0,1.5c0,0.5,0,0.9,0,1.4h7l-1.6,3.3h-4.8c0,0.1,0.1,0.3,0.1,0.4c0.5,1.3,1.1,2.2,2,2.8
		c0.9,0.6,1.9,0.9,3.1,0.9c0.8,0,1.6-0.1,2.3-0.3c0.7-0.2,1.2-0.5,1.7-0.8c0.5-0.3,0.9-0.5,1.1-0.7l2.6,5.5c-1,0.8-2.2,1.5-3.5,1.9
		s-2.7,0.6-4.2,0.6c-2.5,0-4.8-0.6-6.8-1.8c-2-1.2-3.5-2.9-4.6-5.1c-0.5-1-0.9-2.2-1.2-3.4H145l1.2-3.3h2.6c0-0.5,0-0.9,0-1.4
		c0-0.5,0-1,0-1.5H145l1.2-3.2h3c0.3-1.2,0.7-2.4,1.2-3.4c1.1-2.2,2.6-4,4.6-5.2c2-1.2,4.2-1.8,6.8-1.8c1.5,0,3,0.2,4.3,0.7
		c1.3,0.4,2.5,1.1,3.6,1.9L167,53c-0.3-0.2-0.7-0.4-1.2-0.7c-0.5-0.3-1.1-0.6-1.7-0.8c-0.7-0.2-1.4-0.3-2.3-0.3
		c-1.2,0-2.3,0.3-3.1,0.9c-0.9,0.6-1.6,1.5-2,2.8c0,0.1-0.1,0.3-0.1,0.4H165.7z"/>
	<g>
		<path class="st2" d="M150.4,68.1c-0.5-1-0.9-2.2-1.2-3.4H145l1.2-3.3h2.6c0-0.5,0-0.9,0-1.4c0-0.5,0-1,0-1.5H145l1.2-3.2h3
			c0.3-1.2,0.7-2.4,1.2-3.4c1.1-2.2,2.6-4,4.6-5.2c2-1.2,4.2-1.8,6.8-1.8c1.5,0,3,0.2,4.3,0.7c1.3,0.4,2.5,1.1,3.6,1.9L167,53
			c-0.3-0.2-0.7-0.4-1.2-0.7c-0.5-0.3-1.1-0.6-1.7-0.8c-0.7-0.2-1.4-0.3-2.3-0.3c-1.2,0-2.3,0.3-3.1,0.9c-0.9,0.6-1.6,1.5-2,2.8
			c0,0.1-0.1,0.3-0.1,0.4h9.3l-1.4,3.2h-8.4c0,0.5,0,1,0,1.5c0,0.5,0,0.9,0,1.4h7l-1.6,3.3h-4.8c0,0.1,0.1,0.3,0.1,0.4
			c0.5,1.3,1.1,2.2,2,2.8c0.9,0.6,1.9,0.9,3.1,0.9c0.8,0,1.6-0.1,2.3-0.3c0.7-0.2,1.2-0.5,1.7-0.8c0.5-0.3,0.9-0.5,1.1-0.7l1.4,3
			H180c2.8,0,5.3,1.1,7.1,2.9c1.9-3.9,2.9-8.3,2.9-12.9c0-16.6-13.4-30-30-30s-30,13.4-30,30c0,3.5,0.6,6.9,1.7,10h19.8
			C151.1,69.4,150.7,68.8,150.4,68.1z"/>
		<path class="st0" d="M170,165c0,2.8,2.2,5,5,5s5-2.2,5-5V94.6c-3.1,1.8-6.5,3.2-10,4.1V165z"/>
		<path class="st0" d="M130,90v60h10V94.6c-2.3-1.3-4.4-2.9-6.4-4.6H130z"/>
		<path class="st3" d="M121.3,70H20c-5.5,0-10,4.5-10,10c0,5.5,4.5,10,10,10h110h3.6C127.7,84.8,123.3,77.9,121.3,70z"/>
		<path class="st4" d="M133.6,90c2,1.7,4.1,3.3,6.4,4.6V90H133.6z"/>
		<path class="st4" d="M160,90h10v-1.7C166.9,89.4,163.5,90,160,90z"/>
	</g>
</g>
<path class="st5" d="M20,125v-10c0-2.8,2.2-5,5-5h150c2.8,0,5,2.2,5,5v10c0,2.8-2.2,5-5,5H25C22.2,130,20,127.8,20,125z"/>
<path class="st5" d="M20,165v-10c0-2.8,2.2-5,5-5h150c2.8,0,5,2.2,5,5v10c0,2.8-2.2,5-5,5H25C22.2,170,20,167.8,20,165z"/>
</svg>
