<svg xmlns="http://www.w3.org/2000/svg" xmlns:xlink="http://www.w3.org/1999/xlink" width="200" height="200" viewBox="0 0 200 200"><defs><style>.cls-1{fill:none;}.cls-2{isolation:isolate;}.cls-3{clip-path:url(#clip-path);}.cls-4{fill:#ee7c31;}.cls-5{mix-blend-mode:multiply;}.cls-6{clip-path:url(#clip-path-2);}.cls-7{fill:#93c01f;}.cls-8{clip-path:url(#clip-path-3);}.cls-9{fill:#dddb00;}.cls-10{clip-path:url(#clip-path-4);}.cls-11{clip-path:url(#clip-path-5);}.cls-12{fill:#f8b133;}.cls-13{clip-path:url(#clip-path-6);}.cls-14{clip-path:url(#clip-path-7);}.cls-15{fill:#e84f2d;}.cls-16{fill:#fff;}.cls-17{fill:#363c3c;}.cls-18{fill:#e20613;}</style><clipPath id="clip-path"><path class="cls-1" d="M120.33,141.78q0-5,7.78-23.13c1-2.32,1.58-3.48,1.72-3.48.3,0,.87,1.09,1.72,3.28q6.6,17.22,6.61,22.92v.3q0,1.43-4.8,1.42h-7.72q-5.31,0-5.31-1.31m3.39-40q-1.57,1.36-5.45,9.35-.4.86-9.6,28.43t-9.19,29.69q0,2.12,4.57,2.12c3,0,5.21-.79,6.49-2.38.67-.84,1.71-3.24,3.13-7.22s2.74-6.27,4-6.92q3.44-1.75,16.16-1.76c4.17,0,6.77.57,7.78,1.72.6.7,1.5,2.87,2.7,6.48a30.77,30.77,0,0,0,3.15,7.35q2.22,3.08,7.17,3.08t4.95-2.67a58.76,58.76,0,0,0-2.09-7.78q-2.1-6.87-3.26-11.69t-8.06-25q-6.89-20.2-10.48-23-1.45-1.11-5.9-1.16c-3,0-5,.46-6.06,1.36M46.36,108.1q-8.09,8.73-8.08,24.94v2a52.13,52.13,0,0,0,2.07,14.87,34,34,0,0,0,5.81,11.67,25.5,25.5,0,0,0,10,7.39,30.33,30.33,0,0,0,12.17,2.73H70.2q12.17,0,17.54-3.33t5.38-13.64V151q0-10.67-2.05-13.16t-8.91-2.5q-6.87,0-8.88,1.72a2.2,2.2,0,0,0-1,1.57c0,2.25,1.54,4.32,4.6,6.21s4.59,3.68,4.59,5.4a9.91,9.91,0,0,1-2.39,6.44q-2.4,2.9-7.17,2.9a25.31,25.31,0,0,1-9-1.61,14.47,14.47,0,0,1-6.56-4.7,23.85,23.85,0,0,1-3.69-8.76,52.9,52.9,0,0,1-1.36-12.25q0-10.55,5.4-16.41T71,110a36.78,36.78,0,0,1,9.67,1.64,37.5,37.5,0,0,0,7.4,1.65A3.72,3.72,0,0,0,90.9,112c.37-.41.65-.13.86.16s.35.66.35-.12c0-2.53-4.43-5.45-8.39-7.62s-5.86-2.72-11.38-2.72L70,99.92c-9.59,0-17.47,1.54-23.63,8.18M42.83,32.82a11.09,11.09,0,0,0-1.26,5.76l.16,4.8,0,2.42L40.06,88.25c0,2.49.53,4.14,1.61,5a5.26,5.26,0,0,0,3.08.66,4.4,4.4,0,0,0,3.71-2.15c.47-.67.85-.61,1.16-.56s.59.13.74-.89a91.17,91.17,0,0,0,.55-9.44q.17-6.58.56-12.25,1.11-14.94,2.27-14.94c.77,0,1.63,5,6.13,15.14s7.06,15.57,7.7,16.42a6.45,6.45,0,0,0,5.35,2.42,5.87,5.87,0,0,0,5.31-3.13q1.2-2,7.59-16.64t7.55-14.62q1.17,0,1.16,14.34c0,1.65,0,3.32,0,5l.1,5c0,7.8-.07,29.4.78,31.84a8.75,8.75,0,0,0,2.48,3.71,5.75,5.75,0,0,0,3.94,1.49,4,4,0,0,0,3.38-1.49,5.75,5.75,0,0,0,1.14-3.61l-.15-6.86v-4.8l0-18.41v-4.9l0-4.9.15-7.47V49.59q0-10-1-13.28a8,8,0,0,0-3.26-4.7,7.66,7.66,0,0,0-3.29-1.41q-6.41,0-9.39,4.74-1.41,2.23-8.58,18t-8,15.81l-1-1.62-7-15q-6.16-12.76-8.83-16.56c-2.73-3.87-4.14-5.81-7.77-5.81a6,6,0,0,0-5.46,3.08m99-4.49-1.67,0H130q-9.9,0-12.42,2.27-1.92,1.71-1.92,10.78T115,59.59q-.65,9.18-.65,17.92v9q0,10.16,3.13,11.92,2.57,1.45,13.43,1.46h5.35c9,0,5.45-1.74,9.22-2.38q4.18-.7,4.19-3.84c0-2.46,9.1-2.62,7.47-3.32s-6.18-1.06-13.66-1.06-12.06-.49-13.76-1.47-2.55-4-2.55-9.24.74-8.34,2.2-9.47,5.32-1.69,11.56-1.69,9.78-.13,10.58-.4c1.58-.51,2.38-2,2.38-4.4s-.35-3.92-1-4.49-4.14-.86-10.35-.86-10.14-.29-11.79-.88a3.68,3.68,0,0,1-2.48-3.87q0-10,2.33-12c1-.84,4-1.26,9-1.26h4.84l3.08-.11,3,.11q8.48,0,8.48-5.91,0-3.09-2.28-4.09c-1.51-.68-4.24-1-8.18-1Z"/></clipPath><clipPath id="clip-path-2"><rect class="cls-1" x="8.52" y="106.95" width="171.97" height="40.58"/></clipPath><clipPath id="clip-path-3"><rect class="cls-1" x="29.4" y="125.65" width="171.97" height="56.56"/></clipPath><clipPath id="clip-path-4"><rect class="cls-1" x="15.42" y="119.55" width="163.99" height="49.08"/></clipPath><clipPath id="clip-path-5"><rect class="cls-1" x="26.7" y="1.46" width="155.14" height="86.46"/></clipPath><clipPath id="clip-path-6"><rect class="cls-1" x="28.38" y="32.52" width="144.49" height="70.19"/></clipPath><clipPath id="clip-path-7"><rect class="cls-1" x="20.01" y="65.79" width="153.26" height="57.01"/></clipPath></defs><g class="cls-2"><g id="Layer_1" data-name="Layer 1"><g class="cls-3"><polygon class="cls-4" points="167.21 54.77 34.69 64.45 22.88 18.68 155.41 -8.76 167.21 54.77"/><g class="cls-5"><g class="cls-6"><polygon class="cls-7" points="180.49 141.75 12.85 147.53 8.52 112.74 176.16 106.96 180.49 141.75"/></g></g><g class="cls-5"><g class="cls-8"><polygon class="cls-9" points="201.37 176.43 33.73 182.21 29.4 131.44 197.05 125.65 201.37 176.43"/></g></g><g class="cls-5"><g class="cls-10"><polygon class="cls-7" points="170.85 154.28 25.71 168.63 15.42 139.27 179.41 119.55 170.85 154.28"/></g></g><g class="cls-5"><g class="cls-11"><rect class="cls-12" x="67.64" y="-29.87" width="73.25" height="149.12" transform="translate(50.32 144.48) rotate(-84.8)"/></g></g><g class="cls-5"><g class="cls-13"><polygon class="cls-12" points="170.81 93.4 28.38 102.72 28.52 56.05 172.86 32.52 170.81 93.4"/></g></g><g class="cls-5"><g class="cls-14"><polygon class="cls-15" points="173.27 107.8 20.01 122.8 46.89 96.25 170.85 65.79 173.27 107.8"/></g></g></g><path class="cls-16" d="M154.62,173.07c-3.74,0-6.52-1.22-8.27-3.64a31.8,31.8,0,0,1-3.34-7.71c-1.55-4.68-2.22-5.78-2.44-6s-1.65-1.25-6.75-1.25c-10.24,0-14.11.88-15.54,1.62-.33.17-1.53,1.11-3.33,6.17-2,5.52-2.86,7-3.35,7.61-1.55,1.91-4.09,2.88-7.55,2.88-4.9,0-5.92-1.89-5.92-3.47,0-.7,0-2.35,9.26-30.12s9.52-28.3,9.65-28.58c3.33-6.84,4.8-8.83,5.61-9.62-3.62-.33-5.06-.88-5.86-1.34C114.19,98.12,113,94,113,86.5v-9c0-5.79.23-11.86.66-18s.66-12.18.66-18.16c0-8.57,1.26-10.8,2.36-11.79,2-1.78,6.22-2.61,13.33-2.61h18.47c4.18,0,7,.36,8.74,1.12,1.41.62,3.08,2.05,3.08,5.33s-1.71,7.26-9.84,7.26l-3-.1-3,.1h-4.89c-6.65,0-7.94.79-8.13,1-.54.46-1.83,2.47-1.83,10.92,0,1.79.8,2.32,1.58,2.59,1,.37,3.82.81,11.33.81,9.05,0,10.5.58,11.21,1.17,1.06.87,1.53,2.58,1.53,5.53,0,3.83-1.8,5.2-3.31,5.69-.7.23-2.56.47-11,.47-7.75,0-10.06.88-10.74,1.41-.5.38-1.67,2-1.67,8.39s1.3,7.74,1.87,8.07c.83.48,3.64,1.28,13.08,1.28,10.3,0,13,.67,14.2,1.17a1.52,1.52,0,0,1,1,1.57c-.13,1.19-1.13,1.38-3.12,1.76-1.1.21-4,.76-4.54,1.37,0,1.61-.81,4.28-5.32,5a2.13,2.13,0,0,0-1.46.65c-1,1-2.05,1.67-6.94,1.75,1.8,1.93,4.75,7,10.17,22.89,4.58,13.43,7.3,21.89,8.09,25.14s1.84,7.07,3.23,11.61h0c2,6.54,2.16,7.65,2.16,8.17C160.93,170.88,159.83,173.07,154.62,173.07Zm-20.8-21.34c4.69,0,7.48.7,8.79,2.18.51.59,1.3,1.91,3,7,1.43,4.33,2.41,6.19,3,7,1.21,1.68,3.2,2.51,6.06,2.51,1.64,0,3.6-.23,3.6-1.33a65.5,65.5,0,0,0-2-7.38h0c-1.4-4.59-2.5-8.55-3.28-11.77s-3.46-11.54-8-24.89c-5.58-16.38-8.53-21.19-10-22.35-.4-.3-1.61-.84-5.09-.87s-4.71.65-5.17,1-1.83,2.17-5.11,8.9c-.21.49-2,5.82-9.52,28.26-7.87,23.6-9.1,28.47-9.13,29.27,0,.3.86.76,3.22.76,2.6,0,4.43-.63,5.44-1.87.31-.4,1.12-1.83,2.91-6.82,1.56-4.41,3-6.84,4.64-7.67C119.55,152.36,125,151.73,133.82,151.73Zm6.32-122.1H130c-8.16,0-10.72,1.21-11.52,1.93-.34.31-1.47,1.92-1.47,9.77,0,6-.22,12.21-.66,18.35s-.65,12.1-.65,17.83v9c0,8.14,1.53,10.22,2.44,10.74h0c.84.48,3.63,1.29,12.76,1.29h5.35c5.1,0,5.66-.56,6.08-1a4.6,4.6,0,0,1,2.91-1.4c3.06-.51,3.06-1.9,3.06-2.5,0-1.42,1.11-2.28,2.61-2.86-1.85-.11-4.27-.17-7.44-.17-10.38,0-13.21-.94-14.43-1.64-2.2-1.27-3.23-4.58-3.23-10.42s.87-9.11,2.73-10.54c1.09-.85,3.57-2,12.39-2,8.39,0,9.89-.26,10.15-.34s1.44-.46,1.44-3.11c0-2.92-.54-3.44-.54-3.45-.2-.08-1.7-.54-9.49-.54-6.43,0-10.43-.32-12.25-1a5,5,0,0,1-3.37-5.14c0-7.24.89-11.37,2.8-13,.89-.74,2.8-1.59,9.87-1.59h4.84l3-.1,3.07.1c7.08,0,7.08-3.31,7.08-4.55,0-2-.78-2.55-1.46-2.85-.92-.41-3-.9-7.64-.9l-6.6.05ZM70.2,173.07H68.33a31.88,31.88,0,0,1-12.71-2.83,27,27,0,0,1-10.52-7.8,35.29,35.29,0,0,1-6.05-12.13,53.73,53.73,0,0,1-2.12-15.25v-2c0-11.11,2.83-19.81,8.43-25.86,7-7.57,16-8.61,24.63-8.61h.45l2.35,1.73c5.53,0,7.61.71,11.58,2.9,6.2,3.4,9.09,6.2,9.09,8.8a1.65,1.65,0,0,1-1,1.78,1.36,1.36,0,0,1-1.24-.24,4.92,4.92,0,0,1-3.12,1.11c-.77,0-2.41-.17-7.77-1.69a35.41,35.41,0,0,0-9.3-1.59c-5.58,0-9.93,1.77-13.29,5.42s-5.05,8.84-5.05,15.49A51.29,51.29,0,0,0,54,144.21a22.55,22.55,0,0,0,3.45,8.26,13.07,13.07,0,0,0,6,4.25,24,24,0,0,0,8.54,1.53c2.78,0,4.78-.79,6.12-2.41a8.49,8.49,0,0,0,2.09-5.58c0-1.17-1.4-2.68-4-4.25-3.48-2.14-5.24-4.62-5.24-7.36a3.44,3.44,0,0,1,1.44-2.6c1.63-1.39,4.74-2,9.76-2s8.31,1,10,3c1,1.23,2.35,4,2.35,14v3.73c0,7.34-2,12.31-6,14.79S78.64,173.07,70.2,173.07Zm-.65-71.79c-10.71.06-17.16,2.31-22.2,7.74s-7.72,13.61-7.72,24v2a51,51,0,0,0,2,14.49,32.55,32.55,0,0,0,5.56,11.2,24.28,24.28,0,0,0,9.49,7,29.07,29.07,0,0,0,11.63,2.62H70.2c7.81,0,13.48-1.06,16.83-3.13,3.14-2,4.73-6.15,4.73-12.49V151c0-8.86-1.09-11.51-1.73-12.3s-2.72-2-7.87-2c-5.54,0-7.4.87-8,1.39-.43.37-.48.56-.48.56,0,1.72,1.33,3.42,4,5,3.53,2.17,5.24,4.32,5.24,6.56a11.22,11.22,0,0,1-2.71,7.3c-1.86,2.25-4.62,3.4-8.21,3.4a26.63,26.63,0,0,1-9.5-1.71,15.75,15.75,0,0,1-7.16-5.15,25.08,25.08,0,0,1-3.92-9.26A53.93,53.93,0,0,1,50,132.28c0-7.35,1.94-13.18,5.77-17.33s9-6.29,15.28-6.29a37.64,37.64,0,0,1,10,1.69c4.89,1.39,6.5,1.59,7,1.59a2.35,2.35,0,0,0,1.82-.89,2,2,0,0,1,.31-.28c-.79-1.06-2.68-2.76-7.13-5.2-3.72-2-5.38-2.56-10.73-2.56h-.45Zm63.81,43.16h-7.72c-2.33,0-6.66,0-6.66-2.66,0-3.55,2.58-11.29,7.89-23.67,1.6-3.69,1.9-4.3,3-4.3s1.8,1.09,3,4.15c4.51,11.75,6.7,19.41,6.7,23.41v.3C139.51,144.44,135.2,144.44,133.36,144.44Zm-11.66-3.07a13.22,13.22,0,0,0,3.94.37h7.72a10,10,0,0,0,3.45-.38c0-3.62-2.2-11.17-6.53-22.43-.14-.37-.27-.69-.38-1-.16.35-.34.75-.55,1.23C123.38,133.11,121.86,138.94,121.7,141.37ZM101.88,116a7.11,7.11,0,0,1-4.83-1.83,10.06,10.06,0,0,1-2.86-4.28c-.73-2.07-.87-13.71-.86-30.55V77.56l-.1-5c0-1.69,0-3.37,0-5,0-6.23-.17-9.6-.35-11.41-1,1.77-2.73,5.28-5.76,12.23-4.33,9.9-6.84,15.39-7.68,16.8A7.27,7.27,0,0,1,72.92,89,7.75,7.75,0,0,1,66.51,86c-.51-.67-1.85-3.15-7.88-16.7-2.42-5.44-3.77-9.36-4.67-12-.31,2-.71,5.46-1.14,11.3-.27,3.76-.45,7.86-.55,12.18a92,92,0,0,1-.57,9.6,2.49,2.49,0,0,1-.86,1.77,1.71,1.71,0,0,1-1.28.29,5.78,5.78,0,0,1-4.81,2.7,6.41,6.41,0,0,1-3.9-.94c-1.44-1.08-2.15-3-2.15-6l1.72-42.51-.2-7.12a12.28,12.28,0,0,1,1.46-6.5,7.39,7.39,0,0,1,6.61-3.73c4.38,0,6.17,2.54,8.87,6.38,1.85,2.61,4.77,8.09,9,16.76L73,66.25c1-1.77,2.88-5.6,6.67-13.89,4.84-10.66,7.68-16.59,8.67-18.14,2.24-3.57,5.78-5.38,10.53-5.38,1,0,2.2.5,4,1.62a9.25,9.25,0,0,1,3.84,5.46c.7,2.34,1.05,6.81,1.05,13.67V62.16l-.21,12.38,0,28.09.16,6.84a7.14,7.14,0,0,1-1.42,4.46A5.29,5.29,0,0,1,101.88,116ZM93.37,51.87c1.7,0,2.51.67,2.51,15.69,0,1.64,0,3.3.06,5l.1,5V79.3c0,6.83,0,27.59.7,29.65a7.25,7.25,0,0,0,2.09,3.14,4.44,4.44,0,0,0,3,1.16,2.62,2.62,0,0,0,2.31-1,4.42,4.42,0,0,0,.86-2.79l-.15-6.84v-33l.15-7.49V49.59c0-6.5-.31-10.84-.93-12.89a7.23,7.23,0,0,0-5.25-5.15c-3.81,0-6.5,1.35-8.24,4.11-.63,1-2.61,4.87-8.5,17.82-7.58,16.6-8.06,16.6-9.21,16.6h-.75l-1.49-2.4-7-15c-4.05-8.4-7-13.91-8.72-16.36-2.8-4-3.82-5.23-6.66-5.23A4.65,4.65,0,0,0,44,33.52a9.83,9.83,0,0,0-1.06,5.06l.2,7.19L41.41,88.3c0,2,.37,3.29,1.07,3.81.1.08.6.39,2.27.39a3,3,0,0,0,2.6-1.56,2.45,2.45,0,0,1,1.71-1.15c.23-1.85.4-4.88.5-9,.1-4.37.29-8.51.56-12.31,1.2-16.21,2.17-16.21,3.62-16.21s1.69,1.06,2.78,4.2c.88,2.55,2.21,6.41,4.58,11.75,5.81,13,7.22,15.72,7.55,16.15a5.1,5.1,0,0,0,4.27,1.89,4.5,4.5,0,0,0,4.14-2.48c.77-1.28,3.3-6.83,7.52-16.48C91.32,51.87,92.23,51.87,93.37,51.87Z"/><path class="cls-17" d="M165.2,99.24l-52.5,14.27a16.08,16.08,0,0,1-25.4,0L34.79,99.24a3,3,0,0,1-1.25-4,3,3,0,0,1,4-1.24l53.13,14.6a2.93,2.93,0,0,1,1.07.94,10,10,0,0,0,16.44,0,3,3,0,0,1,1.07-.94L162.42,94a3,3,0,0,1,4,1.24,2.94,2.94,0,0,1-1.26,4M39.68,91,89,106.52a1.51,1.51,0,0,0,2.09-.36,1.47,1.47,0,0,0-.37-2.06L41.4,88.63a1.49,1.49,0,0,0-2.08.35A1.46,1.46,0,0,0,39.68,91m69.25,15.12a1.49,1.49,0,0,0,1.22.63,1.51,1.51,0,0,0,.86-.27L160.32,91a1.47,1.47,0,0,0,.37-2.06,1.5,1.5,0,0,0-2.09-.35L109.29,104.1a1.47,1.47,0,0,0-.36,2.06"/><path class="cls-16" d="M100,122.93a19.35,19.35,0,0,1-14.52-6.6l-51.86-14.1-.31-.17a6.12,6.12,0,0,1-2.59-8.32,6.21,6.21,0,0,1,5.18-3.26,4.6,4.6,0,0,1,.82-3.35,4.7,4.7,0,0,1,6-1.44L92.13,101.2l.4.28a4.61,4.61,0,0,1,1.94,3,4.55,4.55,0,0,1-.38,2.8l.3.38a6.85,6.85,0,0,0,11.21,0c.1-.14.2-.28.31-.41a4.68,4.68,0,0,1,1.54-5.82l.41-.28,49.45-15.52a4.71,4.71,0,0,1,6,1.44,4.6,4.6,0,0,1,.82,3.35,6.19,6.19,0,0,1,5.18,3.26,6.15,6.15,0,0,1-2.6,8.33l-.3.16-51.86,14.1A19.37,19.37,0,0,1,100,122.93Z"/><path class="cls-18" d="M165.2,99.24l-52.5,14.27a16.08,16.08,0,0,1-25.4,0L34.79,99.24a3,3,0,0,1-1.25-4,3,3,0,0,1,4-1.24l53.13,14.6a2.93,2.93,0,0,1,1.07.94,10,10,0,0,0,16.44,0,3,3,0,0,1,1.07-.94L162.42,94a3,3,0,0,1,4,1.24,2.94,2.94,0,0,1-1.26,4M39.68,91,89,106.52a1.51,1.51,0,0,0,2.09-.36,1.47,1.47,0,0,0-.37-2.06L41.4,88.63a1.49,1.49,0,0,0-2.08.35A1.46,1.46,0,0,0,39.68,91m69.25,15.12a1.49,1.49,0,0,0,1.22.63,1.51,1.51,0,0,0,.86-.27L160.32,91a1.47,1.47,0,0,0,.37-2.06,1.5,1.5,0,0,0-2.09-.35L109.29,104.1a1.47,1.47,0,0,0-.36,2.06"/><path class="cls-16" d="M100,120.53a16.94,16.94,0,0,1-13.16-6.32L34.42,99.94a3.7,3.7,0,0,1-1.85-2.23,3.65,3.65,0,0,1,.27-2.84,3.81,3.81,0,0,1,5-1.61L87.72,107,39.23,91.69a2.25,2.25,0,0,1-.95-1.47,2.29,2.29,0,0,1,.39-1.7,2.31,2.31,0,0,1,3.07-.62l49.42,15.55a2.27,2.27,0,0,1,1,1.48,2.22,2.22,0,0,1-.39,1.69,2.33,2.33,0,0,1-1.73,1l1.09.31a3.85,3.85,0,0,1,1.35,1.19,9.25,9.25,0,0,0,15.14,0,3.73,3.73,0,0,1,1.36-1.2l.15-.06.93-.25a2.33,2.33,0,0,1-1.73-1,2.24,2.24,0,0,1-.39-1.68,2.32,2.32,0,0,1,.94-1.49l.22-.1L158.26,87.9a2.31,2.31,0,0,1,3.07.62,2.26,2.26,0,0,1-.55,3.17l-.22.11L112.27,107l49.86-13.7a3.8,3.8,0,0,1,5,1.61,3.67,3.67,0,0,1,.27,2.85,3.75,3.75,0,0,1-1.86,2.22l-.16.06-52.25,14.21A16.94,16.94,0,0,1,100,120.53Zm-64.91-22,52.68,14.32.16.21a15.28,15.28,0,0,0,24.14,0l.16-.21.26-.07L164.91,98.5a2.24,2.24,0,0,0,1-1.25,2.13,2.13,0,0,0-.16-1.64,2.21,2.21,0,0,0-3-.91l-.16.07-53,14.57a2.16,2.16,0,0,0-.72.66,10.83,10.83,0,0,1-17.74,0,2.24,2.24,0,0,0-.72-.65L37.21,94.7a2.21,2.21,0,0,0-3,.92,2.08,2.08,0,0,0-.16,1.62A2.19,2.19,0,0,0,35.09,98.5Zm74.58,6.32a.63.63,0,0,0-.21.38.67.67,0,0,0,.11.5h0a.63.63,0,0,0,1,.17l.21-.11L160,90.33a.72.72,0,0,0,.21-.38.67.67,0,0,0-.12-.5.7.7,0,0,0-1-.17l-.22.1ZM40.06,90.33l49.39,15.54a.62.62,0,0,0,1-.17.63.63,0,0,0,.12-.5.68.68,0,0,0-.21-.38L41,89.28a.72.72,0,0,0-1,.16.71.71,0,0,0-.11.51A.63.63,0,0,0,40.06,90.33Z"/></g></g></svg>