<?xml version="1.0" encoding="utf-8"?>
<!-- Generator: Adobe Illustrator 25.3.1, SVG Export Plug-In . SVG Version: 6.00 Build 0)  -->
<svg version="1.1" id="Layer_1" xmlns="http://www.w3.org/2000/svg" xmlns:xlink="http://www.w3.org/1999/xlink" x="0px" y="0px"
	 width="200px" height="200px" viewBox="0 0 200 200" style="enable-background:new 0 0 200 200;" xml:space="preserve">
<style type="text/css">
	.st0{fill:#21CE6B;}
	.st1{fill:#12295F;}
	.st2{fill:none;}
</style>
<g>
	<path class="st0" d="M133.3,101.3c18.3,0,33.3,15,33.3,33.3h16.7c0-27.5-22.5-50-50-50c-19.2,0-35.8,10.8-44.2,26.7
		c-4.2,7.5,10.8,23.3,10.8,23.3C100,116.3,115,101.3,133.3,101.3"/>
</g>
<g>
	<path class="st1" d="M66.7,126.3c18.3,0,33.3,15,33.3,33.3h16.7c0-27.5-22.5-50-50-50l0,0c-27.5,0-50,22.5-50,50h16.7
		C33.3,141.3,48.3,126.3,66.7,126.3"/>
</g>
<path class="st0" d="M133.3,51.3c9.2,0,16.7,7.5,16.7,16.7s-7.5,16.7-16.7,16.7s-16.7-7.5-16.7-16.7S124.2,51.3,133.3,51.3
	 M133.3,34.6c-18.3,0-33.3,15-33.3,33.3s15,33.3,33.3,33.3s33.3-15,33.3-33.3S151.7,34.6,133.3,34.6L133.3,34.6z"/>
<path class="st1" d="M66.7,76.3c9.2,0,16.7,7.5,16.7,16.7s-7.5,16.7-16.7,16.7S50,102.1,50,92.9S57.5,76.3,66.7,76.3 M66.7,59.6
	c-18.3,0-33.3,15-33.3,33.3s15,33.3,33.3,33.3s33.3-15,33.3-33.3S85,59.6,66.7,59.6L66.7,59.6z"/>
<rect y="1.3" class="st2" width="200" height="200"/>
</svg>
