<?xml version="1.0" encoding="utf-8"?>
<!-- Generator: Adobe Illustrator 25.3.1, SVG Export Plug-In . SVG Version: 6.00 Build 0)  -->
<svg version="1.1" id="Layer_1" xmlns="http://www.w3.org/2000/svg" xmlns:xlink="http://www.w3.org/1999/xlink" x="0px" y="0px"
	 width="140px" height="38px" viewBox="0 0 140 38" style="enable-background:new 0 0 140 38;" xml:space="preserve">
<style type="text/css">
	.st0{fill:none;stroke:#CCE8D6;stroke-width:20;stroke-miterlimit:10;}
	.st1{fill:#3E7785;}
	.st2{fill:#83BB9B;}
</style>
<g>
	<g>
		<path class="st0" d="M11.5,23.3"/>
	</g>
	<path class="st1" d="M27.7,35c0.1-0.1,0.2-0.1,0.3-0.2c0.1-0.1,0.3-0.1,0.4-0.2c1.4-0.8,2.6-1.7,3.8-2.9c0,0,0.1-0.1,0.1-0.1
		c3.2-3.2,5.2-7.7,5.2-12.6c0-0.5-0.2-1-0.5-1.3c-0.3-0.3-0.8-0.5-1.3-0.5l-6.8,0.1c-1,0-1.8,0.8-1.8,1.8c0,1,0.8,1.8,1.8,1.8l4.8,0
		c-0.6,4.6-3.4,8.5-7.2,10.7c0,0-0.1,0-0.1,0.1c-0.1,0.1-0.3,0.1-0.4,0.2c-0.1,0-0.2,0.1-0.2,0.1c-0.1,0-0.2,0.1-0.3,0.1
		c-0.1,0.1-0.3,0.1-0.4,0.2c-0.1,0-0.1,0.1-0.2,0.1c-0.2,0.1-0.4,0.1-0.6,0.2c0,0,0,0,0,0c-5,1.8-10.9,0.6-14.9-3.4
		C6.6,26.4,5.1,22.8,5.1,19c0-3.8,1.5-7.4,4.2-10.2c5.6-5.6,14.7-5.6,20.3,0c0.7,0.7,1.9,0.7,2.6,0c0.7-0.7,0.7-1.9,0-2.6
		c-7-7-18.4-7-25.5,0C3.3,9.7,1.4,14.2,1.4,19c0,4.8,1.9,9.3,5.3,12.7c3.5,3.5,8.1,5.3,12.7,5.3c0,0,0,0,0,0v0
		c2.7,0,5.2-0.6,7.5-1.6c0.1,0,0.1,0,0.2-0.1C27.3,35.2,27.5,35.1,27.7,35z"/>
	<g>
		<path class="st2" d="M19.4,28.4c-2.4,0-4.8-0.9-6.6-2.7C11,23.9,10,21.5,10,19c0-2.5,1-4.9,2.8-6.6c3.7-3.7,9.6-3.7,13.3,0
			c0.7,0.7,0.7,1.9,0,2.6l-5.1,5.1c-0.7,0.7-1.9,0.7-2.6,0s-0.7-1.9,0-2.6l3.6-3.6c-2.2-1.1-4.8-0.7-6.6,1.1
			c-1.1,1.1-1.7,2.5-1.7,4.1c0,1.5,0.6,3,1.7,4.1c2.2,2.2,5.9,2.2,8.1,0c0.7-0.7,1.9-0.7,2.6,0c0.7,0.7,0.7,1.9,0,2.6
			C24.2,27.5,21.8,28.4,19.4,28.4z"/>
	</g>
	<g>
		<path class="st2" d="M58.6,15.8c-0.1-0.4-0.3-0.8-0.5-1.2c-0.2-0.3-0.5-0.6-0.8-0.9c-0.3-0.2-0.7-0.4-1.1-0.5
			c-0.4-0.1-0.9-0.2-1.4-0.2c-0.9,0-1.8,0.2-2.5,0.7c-0.7,0.5-1.3,1.1-1.6,2S50,17.7,50,19s0.2,2.4,0.6,3.2c0.4,0.9,0.9,1.6,1.6,2
			c0.7,0.5,1.5,0.7,2.5,0.7c0.9,0,1.6-0.2,2.2-0.5c0.6-0.3,1.1-0.8,1.4-1.3c0.3-0.6,0.5-1.2,0.5-2l0.8,0.1H55v-2.9h7.6v2.3
			c0,1.6-0.3,3-1,4.1c-0.7,1.2-1.6,2-2.8,2.7c-1.2,0.6-2.6,0.9-4.1,0.9c-1.7,0-3.2-0.4-4.5-1.1c-1.3-0.8-2.3-1.8-3-3.2
			c-0.7-1.4-1.1-3.1-1.1-5c0-1.5,0.2-2.8,0.6-4c0.4-1.2,1-2.1,1.8-3c0.8-0.8,1.7-1.4,2.7-1.8c1-0.4,2.2-0.6,3.4-0.6
			c1,0,2,0.2,2.9,0.5c0.9,0.3,1.7,0.7,2.4,1.3c0.7,0.5,1.3,1.2,1.7,1.9c0.4,0.8,0.7,1.6,0.8,2.5H58.6z"/>
		<path class="st2" d="M71.7,28.4c-1.4,0-2.6-0.3-3.6-0.9c-1-0.6-1.8-1.4-2.3-2.4c-0.5-1.1-0.8-2.3-0.8-3.8c0-1.4,0.3-2.6,0.8-3.7
			c0.5-1.1,1.3-1.9,2.3-2.5c1-0.6,2.2-0.9,3.5-0.9c0.9,0,1.7,0.1,2.5,0.4c0.8,0.3,1.5,0.7,2.1,1.3c0.6,0.6,1,1.3,1.4,2.2
			C77.9,19,78,20,78,21.2v1H66.4v-2.4h8c0-0.5-0.1-1-0.4-1.5c-0.2-0.4-0.6-0.8-1-1c-0.4-0.2-0.9-0.4-1.5-0.4c-0.6,0-1.1,0.1-1.5,0.4
			c-0.4,0.3-0.8,0.6-1,1.1c-0.2,0.4-0.4,0.9-0.4,1.5v2.2c0,0.7,0.1,1.3,0.4,1.8c0.3,0.5,0.6,0.9,1.1,1.1c0.5,0.3,1,0.4,1.7,0.4
			c0.4,0,0.8-0.1,1.2-0.2c0.4-0.1,0.7-0.3,0.9-0.5c0.2-0.2,0.4-0.5,0.6-0.9l3.5,0.2c-0.2,0.8-0.5,1.6-1.1,2.2s-1.3,1.1-2.1,1.5
			C73.9,28.2,72.9,28.4,71.7,28.4z"/>
		<path class="st2" d="M91.9,18.3l-3.5,0.2c-0.1-0.3-0.2-0.6-0.4-0.8c-0.2-0.2-0.5-0.4-0.8-0.6c-0.3-0.1-0.7-0.2-1.1-0.2
			c-0.6,0-1.1,0.1-1.5,0.4c-0.4,0.2-0.6,0.6-0.6,1c0,0.3,0.1,0.6,0.4,0.8c0.3,0.2,0.7,0.4,1.3,0.5l2.5,0.5c1.3,0.3,2.3,0.7,3,1.3
			c0.7,0.6,1,1.4,1,2.4c0,0.9-0.3,1.7-0.8,2.4c-0.5,0.7-1.2,1.2-2.2,1.6c-0.9,0.4-2,0.6-3.2,0.6c-1.8,0-3.3-0.4-4.3-1.1
			c-1.1-0.8-1.7-1.8-1.9-3.1l3.7-0.2c0.1,0.6,0.4,1,0.8,1.3c0.4,0.3,1,0.4,1.7,0.4c0.7,0,1.2-0.1,1.6-0.4c0.4-0.3,0.6-0.6,0.6-1
			c0-0.3-0.2-0.6-0.4-0.9c-0.3-0.2-0.7-0.4-1.3-0.5l-2.4-0.5c-1.3-0.3-2.3-0.7-3-1.4c-0.7-0.7-1-1.5-1-2.5c0-0.9,0.2-1.6,0.7-2.3
			c0.5-0.6,1.2-1.1,2-1.5c0.9-0.3,1.9-0.5,3.1-0.5c1.7,0,3.1,0.4,4.1,1.1C91.2,16.1,91.7,17.1,91.9,18.3z"/>
		<path class="st2" d="M94.7,28.1V9.8H107V13h-8.5v4.4h7.8v3.2h-7.8v4.4h8.5v3.2H94.7z"/>
		<path class="st2" d="M115.1,28.3c-1,0-2-0.3-2.8-0.8c-0.8-0.5-1.5-1.3-2-2.4c-0.5-1.1-0.7-2.3-0.7-3.9c0-1.6,0.3-2.9,0.8-3.9
			c0.5-1,1.2-1.8,2-2.3c0.8-0.5,1.8-0.8,2.8-0.8c0.8,0,1.4,0.1,1.9,0.4c0.5,0.3,0.9,0.6,1.2,1c0.3,0.4,0.6,0.8,0.7,1.1h0.1V9.8h3.8
			v18.3h-3.7v-2.2H119c-0.2,0.4-0.4,0.8-0.8,1.1c-0.3,0.4-0.7,0.7-1.3,0.9C116.4,28.2,115.8,28.3,115.1,28.3z M116.3,25.3
			c0.6,0,1.1-0.2,1.6-0.5c0.4-0.3,0.8-0.8,1-1.4c0.2-0.6,0.3-1.3,0.3-2.1c0-0.8-0.1-1.5-0.3-2.1c-0.2-0.6-0.6-1.1-1-1.4
			c-0.4-0.3-0.9-0.5-1.6-0.5c-0.6,0-1.2,0.2-1.6,0.5c-0.4,0.3-0.8,0.8-1,1.4c-0.2,0.6-0.3,1.3-0.3,2.1c0,0.8,0.1,1.5,0.3,2.1
			c0.2,0.6,0.5,1.1,1,1.4C115.1,25.2,115.6,25.3,116.3,25.3z"/>
		<path class="st2" d="M134.8,22.3v-7.9h3.8v13.7h-3.7v-2.5h-0.1c-0.3,0.8-0.8,1.4-1.5,1.9c-0.7,0.5-1.6,0.7-2.6,0.7
			c-0.9,0-1.7-0.2-2.4-0.6c-0.7-0.4-1.2-1-1.6-1.8c-0.4-0.8-0.6-1.7-0.6-2.8v-8.7h3.8v8c0,0.8,0.2,1.4,0.7,1.9
			c0.4,0.5,1,0.7,1.7,0.7c0.5,0,0.9-0.1,1.3-0.3c0.4-0.2,0.7-0.5,1-0.9C134.7,23.4,134.8,22.9,134.8,22.3z"/>
	</g>
</g>
</svg>
